SplineFontDB: 3.0
FontName: Spiral
FullName: Spiral
FamilyName: Spiral
Weight: Book
Copyright: Digitized data copyright (c) 2014, Santhosh Thottingal, Kavya Manohar,\nSwathanthra Malayalam Computing(http://smc.org.in) with reserved font name "Chilanka".
Version: 1.0.0-beta.20141116
ItalicAngle: 0
UnderlinePosition: -600
UnderlineWidth: 100
Ascent: 1434
Descent: 614
InvalidEm: 0
sfntRevision: 0x00060000
LayerCount: 2
Layer: 0 1 "Back" 1
Layer: 1 1 "Fore" 0
XUID: [1021 393 960756424 15359094]
FSType: 0
OS2Version: 1
OS2_WeightWidthSlopeOnly: 0
OS2_UseTypoMetrics: 1
CreationTime: 1201144287
ModificationTime: 1421391744
PfmFamily: 33
TTFWeight: 400
TTFWidth: 5
LineGap: 0
VLineGap: 0
OS2TypoAscent: 0
OS2TypoAOffset: 1
OS2TypoDescent: 0
OS2TypoDOffset: 1
OS2TypoLinegap: 0
OS2WinAscent: 0
OS2WinAOffset: 1
OS2WinDescent: 0
OS2WinDOffset: 1
HheadAscent: 0
HheadAOffset: 1
HheadDescent: 0
HheadDOffset: 1
OS2SubXSize: 1331
OS2SubYSize: 1433
OS2SubXOff: 274
OS2SubYOff: 286
OS2SupXSize: 1331
OS2SupYSize: 1433
OS2SupXOff: -944
OS2SupYOff: 983
OS2StrikeYSize: 102
OS2StrikeYPos: 530
OS2CapHeight: 0
OS2XHeight: 0
OS2Vendor: 'SMC '
OS2CodePages: 00000001.00000000
OS2UnicodeRanges: 80800003.00002000.00000000.00000000
Lookup: 4 0 0 "'akhn' Akhand in Malay+AQEA-lam lookup 0" { "'akhn' Akhand in Malay+AQEA-lam lookup 0 subtable"  } ['akhn' ('mlym' <'dflt' > ) ]
Lookup: 4 0 0 "'akhn' Akhand in Malay+AQEA-lam2 lookup 0" { "'akhn' Akhand in Malay+AQEA-lam2 lookup 0 subtable"  } ['akhn' ('mlm2' <'dflt' > ) ]
Lookup: 4 0 0 "'pref' Pre Base Forms in Malay+AQEA-lam2 lookup 1" { "'pref' Pre Base Forms in Malay+AQEA-lam2 lookup 1 subtable"  } ['pref' ('mlm2' <'dflt' > ) ]
Lookup: 4 0 0 "'half' Half Forms in Malay+AQEA-lam lookup 1" { "'half' Half Forms in Malay+AQEA-lam lookup 1 subtable"  } ['half' ('mlym' <'dflt' > ) ]
Lookup: 4 0 0 "'blwf' Below Base Forms in Malay+AQEA-lam lookup 2" { "'blwf' Below Base Forms in Malay+AQEA-lam lookup 2 subtable"  } ['blwf' ('mlym' <'dflt' > ) ]

StartChar: .notdef
Encoding: 0 -1 0
Width: 692
GlyphClass: 2
Flags: MW
LayerCount: 2
Back
Fore
SplineSet
45 1 m 1,0,-1
 45 1119 l 1,1,-1
 606 1119 l 1,2,-1
 606 1 l 1,3,-1
 45 1 l 1,0,-1
102 55 m 1,4,-1
 552 55 l 1,5,-1
 552 1063 l 1,6,-1
 102 1063 l 1,7,-1
 102 55 l 1,4,-1
EndSplineSet
EndChar

StartChar: exclam
Encoding: 2 33 2
Width: 607
GlyphClass: 2
Flags: MW
LayerCount: 2
Back
Fore
SplineSet
303 -1 m 1,0,-1
 303 164 l 1,1,-1
 450 164 l 1,2,-1
 450 -1 l 1,3,-1
 303 -1 l 1,0,-1
450 687 m 1,4,-1
 406 299 l 1,5,-1
 350 299 l 1,6,7
 305 683 305 683 305 687 c 2,8,-1
 303 1280 l 1,9,-1
 450 1280 l 1,10,-1
 450 687 l 1,4,-1
EndSplineSet
EndChar

StartChar: quotedbl
Encoding: 3 34 3
Width: 782
GlyphClass: 2
Flags: MW
LayerCount: 2
Back
Fore
SplineSet
663 952 m 2,0,-1
 639 832 l 1,1,-1
 585 832 l 1,2,-1
 560 952 l 2,3,4
 539 1053 539 1053 539 1067 c 2,5,-1
 539 1262 l 1,6,-1
 686 1262 l 1,7,-1
 686 1067 l 1,8,9
 681 1039 681 1039 663 952 c 2,0,-1
427 952 m 2,10,-1
 402 832 l 1,11,-1
 350 832 l 1,12,-1
 326 952 l 2,13,14
 303 1053 303 1053 301 1067 c 2,15,-1
 301 1262 l 1,16,-1
 451 1262 l 1,17,-1
 451 1067 l 1,18,19
 446 1039 446 1039 427 952 c 2,10,-1
EndSplineSet
EndChar

StartChar: numbersign
Encoding: 4 35 4
Width: 942
GlyphClass: 2
Flags: MW
LayerCount: 2
Back
Fore
SplineSet
807 781 m 1,0,-1
 746 450 l 1,1,-1
 938 450 l 1,2,-1
 938 349 l 1,3,-1
 728 349 l 1,4,-1
 659 -28 l 1,5,-1
 544 -28 l 1,6,-1
 612 349 l 1,7,-1
 366 349 l 1,8,-1
 296 -28 l 1,9,-1
 183 -28 l 1,10,-1
 251 349 l 1,11,-1
 68 349 l 1,12,-1
 68 450 l 1,13,-1
 272 450 l 1,14,-1
 330 781 l 1,15,-1
 134 781 l 1,16,-1
 134 882 l 1,17,-1
 350 882 l 1,18,-1
 413 1231 l 1,19,-1
 530 1231 l 1,20,-1
 462 882 l 1,21,-1
 711 882 l 1,22,-1
 774 1231 l 1,23,-1
 891 1231 l 1,24,-1
 824 882 l 1,25,-1
 996 882 l 1,26,-1
 996 781 l 1,27,-1
 807 781 l 1,0,-1
446 781 m 1,28,-1
 384 450 l 1,29,-1
 633 450 l 1,30,-1
 692 781 l 1,31,-1
 446 781 l 1,28,-1
EndSplineSet
EndChar

StartChar: dollar
Encoding: 5 36 5
Width: 955
GlyphClass: 2
Flags: MW
LayerCount: 2
Back
Fore
SplineSet
566 -31 m 1,0,-1
 566 -212 l 1,1,-1
 483 -212 l 1,2,-1
 483 -31 l 1,3,4
 293 -18 293 -18 198.5 76 c 128,-1,5
 104 170 104 170 104 360 c 1,6,-1
 225 360 l 1,7,8
 237 222 237 222 287.5 155 c 128,-1,9
 338 88 338 88 483 70 c 1,10,-1
 483 576 l 1,11,12
 301 630 301 630 214 699 c 128,-1,13
 127 768 127 768 127 921 c 0,14,15
 127 1223 127 1223 483 1267 c 1,16,-1
 483 1362 l 1,17,-1
 566 1362 l 1,18,-1
 566 1267 l 1,19,20
 727 1254 727 1254 820 1169.5 c 128,-1,21
 913 1085 913 1085 915 937 c 1,22,-1
 795 937 l 1,23,24
 791 1033 791 1033 732 1097.5 c 128,-1,25
 673 1162 673 1162 566 1164 c 1,26,-1
 566 699 l 1,27,28
 800 636 800 636 877.5 568.5 c 128,-1,29
 955 501 955 501 955 348 c 0,30,31
 955 -3 955 -3 566 -31 c 1,0,-1
483 1164 m 1,32,33
 249 1132 249 1132 249 937 c 0,34,35
 249 768 249 768 483 707 c 1,36,-1
 483 1164 l 1,32,33
566 567 m 1,37,-1
 566 70 l 1,38,39
 829 100 829 100 830 326 c 0,40,41
 830 510 830 510 566 567 c 1,37,-1
EndSplineSet
EndChar

StartChar: percent
Encoding: 6 37 6
Width: 1485
GlyphClass: 2
Flags: MW
LayerCount: 2
Back
Fore
SplineSet
1397.5 56.5 m 128,-1,1
 1312 -30 1312 -30 1190 -30 c 128,-1,2
 1068 -30 1068 -30 984 56 c 128,-1,3
 900 142 900 142 899 264 c 0,4,5
 899 386 899 386 984.5 472 c 128,-1,6
 1070 558 1070 558 1193 558 c 128,-1,7
 1316 558 1316 558 1399 473 c 128,-1,8
 1482 388 1482 388 1483 263 c 0,9,0
 1483 143 1483 143 1397.5 56.5 c 128,-1,1
505 -30 m 1,10,-1
 413 -30 l 1,11,-1
 1105 1251 l 1,12,-1
 1196 1251 l 1,13,-1
 505 -30 l 1,10,-1
623.5 705.5 m 128,-1,15
 538 620 538 620 416 620 c 128,-1,16
 294 620 294 620 209.5 704.5 c 128,-1,17
 125 789 125 789 125 913 c 128,-1,18
 125 1037 125 1037 209.5 1121.5 c 128,-1,19
 294 1206 294 1206 418 1206 c 0,20,21
 540 1206 540 1206 624.5 1120.5 c 128,-1,22
 709 1035 709 1035 709 913 c 128,-1,14
 709 791 709 791 623.5 705.5 c 128,-1,15
1192 458 m 0,23,24
 1110 458 1110 458 1055 402.5 c 128,-1,25
 1000 347 1000 347 1000 266 c 128,-1,26
 1000 185 1000 185 1055 129.5 c 128,-1,27
 1110 74 1110 74 1190 74 c 128,-1,28
 1270 74 1270 74 1327 129.5 c 128,-1,29
 1384 185 1384 185 1384 265 c 128,-1,30
 1384 345 1384 345 1328 401.5 c 128,-1,31
 1272 458 1272 458 1192 458 c 0,23,24
418 1107 m 0,32,33
 336 1107 336 1107 281 1050 c 128,-1,34
 226 993 226 993 226 913 c 128,-1,35
 226 833 226 833 281 778 c 128,-1,36
 336 723 336 723 418 723 c 0,37,38
 498 723 498 723 553 778 c 128,-1,39
 608 833 608 833 608 913 c 128,-1,40
 608 993 608 993 553 1050 c 128,-1,41
 498 1107 498 1107 418 1107 c 0,32,33
EndSplineSet
EndChar

StartChar: ampersand
Encoding: 7 38 7
Width: 1107
GlyphClass: 2
Flags: MW
LayerCount: 2
Back
Fore
SplineSet
947 2 m 1,0,-1
 832 147 l 1,1,2
 640 -38 640 -38 466 -38 c 128,-1,3
 292 -38 292 -38 194 54 c 0,4,5
 96 148 96 148 96 292 c 128,-1,6
 96 436 96 436 169 515 c 128,-1,7
 242 594 242 594 394 682 c 1,8,9
 242 872 242 872 242 984 c 128,-1,10
 242 1096 242 1096 329 1171.5 c 128,-1,11
 416 1247 416 1247 539 1247 c 128,-1,12
 662 1247 662 1247 740.5 1173.5 c 128,-1,13
 819 1100 819 1100 819 987 c 128,-1,14
 819 874 819 874 755.5 806 c 128,-1,15
 692 738 692 738 566 670 c 1,16,-1
 824 356 l 1,17,18
 886 466 886 466 888 576 c 1,19,-1
 1011 576 l 1,20,21
 1006 417 1006 417 903 260 c 1,22,-1
 1112 2 l 1,23,-1
 947 2 l 1,0,-1
534 1144 m 0,24,25
 368 1144 368 1144 368 980 c 0,26,27
 368 902 368 902 453 803 c 2,28,-1
 502 747 l 1,29,30
 701 872 701 872 701 982 c 0,31,32
 701 1054 701 1054 653 1099 c 128,-1,33
 605 1144 605 1144 534 1144 c 0,24,25
458 609 m 1,34,35
 225 461 225 461 225 318 c 0,36,37
 225 218 225 218 297.5 147.5 c 128,-1,38
 370 77 370 77 473 77 c 0,39,40
 617 77 617 77 758 236 c 1,41,-1
 458 609 l 1,34,35
EndSplineSet
EndChar

StartChar: quotesingle
Encoding: 8 39 8
Width: 577
GlyphClass: 2
Flags: MW
LayerCount: 2
Back
Fore
SplineSet
425 952 m 2,0,-1
 401 832 l 1,1,-1
 347 832 l 1,2,-1
 322 952 l 2,3,4
 301 1053 301 1053 301 1067 c 2,5,-1
 301 1262 l 1,6,-1
 448 1262 l 1,7,-1
 448 1067 l 1,8,9
 443 1039 443 1039 425 952 c 2,0,-1
EndSplineSet
EndChar

StartChar: parenleft
Encoding: 9 40 9
Width: 500
GlyphClass: 2
Flags: MW
LayerCount: 2
Back
Fore
SplineSet
425 -343 m 1,0,1
 127 33 127 33 127 484 c 128,-1,2
 127 935 127 935 425 1311 c 1,3,-1
 500 1311 l 1,4,5
 254 922 254 922 254 484 c 128,-1,6
 254 46 254 46 500 -343 c 1,7,-1
 425 -343 l 1,0,1
EndSplineSet
EndChar

StartChar: parenright
Encoding: 10 41 10
Width: 714
GlyphClass: 2
Flags: MW
LayerCount: 2
Back
Fore
SplineSet
215 -343 m 1,0,-1
 138 -343 l 1,1,2
 384 46 384 46 384 484 c 128,-1,3
 384 922 384 922 138 1311 c 1,4,-1
 215 1311 l 1,5,6
 512 935 512 935 512 484 c 128,-1,7
 512 33 512 33 215 -343 c 1,0,-1
EndSplineSet
EndChar

StartChar: asterisk
Encoding: 11 42 11
Width: 655
GlyphClass: 2
Flags: MW
LayerCount: 2
Back
Fore
SplineSet
445 925 m 1,0,-1
 578 757 l 1,1,-1
 504 703 l 1,2,-1
 386 881 l 1,3,-1
 268 703 l 1,4,-1
 196 755 l 1,5,-1
 325 925 l 1,6,-1
 123 982 l 1,7,-1
 150 1067 l 1,8,-1
 349 994 l 1,9,-1
 339 1205 l 1,10,-1
 433 1205 l 1,11,-1
 423 994 l 1,12,-1
 622 1067 l 1,13,-1
 649 982 l 1,14,-1
 445 925 l 1,0,-1
EndSplineSet
EndChar

StartChar: plus
Encoding: 12 43 12
Width: 955
GlyphClass: 2
Flags: MW
LayerCount: 2
Back
Fore
SplineSet
592 373 m 1,0,-1
 592 0 l 1,1,-1
 488 0 l 1,2,-1
 488 373 l 1,3,-1
 115 373 l 1,4,-1
 115 477 l 1,5,-1
 488 477 l 1,6,-1
 488 850 l 1,7,-1
 592 850 l 1,8,-1
 592 477 l 1,9,-1
 965 477 l 1,10,-1
 965 373 l 1,11,-1
 592 373 l 1,0,-1
EndSplineSet
EndChar

StartChar: comma
Encoding: 13 44 13
Width: 385
GlyphClass: 2
Flags: MW
LayerCount: 2
Back
Fore
SplineSet
127 -263 m 1,0,-1
 127 -216 l 1,1,2
 212 -209 212 -209 235 -143 c 0,3,4
 244 -117 244 -117 244 0 c 1,5,-1
 127 0 l 1,6,-1
 127 164 l 1,7,-1
 310 164 l 1,8,-1
 310 -40 l 2,9,10
 310 -256 310 -256 127 -263 c 1,0,-1
EndSplineSet
EndChar

StartChar: hyphen
Encoding: 14 45 14
Width: 555
GlyphClass: 2
Flags: MW
LayerCount: 2
Back
Fore
SplineSet
109 368 m 1,0,-1
 109 494 l 1,1,-1
 527 494 l 1,2,-1
 527 368 l 1,3,-1
 109 368 l 1,0,-1
EndSplineSet
EndChar

StartChar: period
Encoding: 15 46 15
Width: 432
GlyphClass: 2
Flags: MW
LayerCount: 2
Back
Fore
SplineSet
127 0 m 1,0,-1
 127 166 l 1,1,-1
 308 166 l 1,2,-1
 308 0 l 1,3,-1
 127 0 l 1,0,-1
EndSplineSet
EndChar

StartChar: slash
Encoding: 16 47 16
Width: 572
GlyphClass: 2
Flags: MW
LayerCount: 2
Back
Fore
SplineSet
211 -30 m 1,0,-1
 74 -30 l 1,1,-1
 501 1286 l 1,2,-1
 638 1286 l 1,3,-1
 211 -30 l 1,0,-1
EndSplineSet
EndChar

StartChar: zero
Encoding: 17 48 17
Width: 1046
GlyphClass: 2
Flags: MW
LayerCount: 2
Back
Fore
SplineSet
623 -22 m 128,-1,1
 200 -22 200 -22 200 622 c 0,2,3
 200 1303 200 1303 623 1303 c 128,-1,4
 1046 1303 1046 1303 1046 636 c 0,5,0
 1046 -22 1046 -22 623 -22 c 128,-1,1
902 640 m 0,6,7
 902 1188 902 1188 623 1188 c 128,-1,8
 344 1188 344 1188 344 640 c 0,9,10
 344 93 344 93 618 93 c 0,11,12
 902 93 902 93 902 640 c 0,6,7
EndSplineSet
EndChar

StartChar: one
Encoding: 18 49 18
Width: 646
GlyphClass: 2
Flags: MW
LayerCount: 2
Back
Fore
SplineSet
501 0 m 1,0,-1
 501 920 l 1,1,-1
 200 920 l 1,2,-1
 200 1014 l 1,3,4
 392 1033 392 1033 447.5 1088.5 c 128,-1,5
 503 1144 503 1144 504 1280 c 1,6,-1
 646 1280 l 1,7,-1
 646 0 l 1,8,-1
 501 0 l 1,0,-1
EndSplineSet
EndChar

StartChar: two
Encoding: 19 50 19
Width: 1054
GlyphClass: 2
Flags: MW
LayerCount: 2
Back
Fore
SplineSet
431 296 m 128,-1,1
 374 238 374 238 367 125 c 1,2,-1
 1054 125 l 1,3,-1
 1054 0 l 1,4,-1
 202 0 l 1,5,6
 210 217 210 217 288 327.5 c 128,-1,7
 366 438 366 438 563 550 c 2,8,-1
 736 648 l 2,9,10
 887 734 887 734 887 924 c 0,11,12
 887 1040 887 1040 812.5 1114 c 128,-1,13
 738 1188 738 1188 622 1188 c 0,14,15
 372 1188 372 1188 345 868 c 1,16,-1
 200 868 l 1,17,18
 217 1303 217 1303 626 1303 c 0,19,20
 807 1303 807 1303 924 1202.5 c 128,-1,21
 1041 1102 1041 1102 1041 902 c 0,22,23
 1041 692 1041 692 870 587 c 2,24,-1
 704 486 l 2,25,0
 488 354 488 354 431 296 c 128,-1,1
EndSplineSet
EndChar

StartChar: three
Encoding: 20 51 20
Width: 1069
GlyphClass: 2
Flags: MW
LayerCount: 2
Back
Fore
SplineSet
628 -22 m 0,0,1
 240 -22 240 -22 200 373 c 1,2,-1
 345 373 l 1,3,4
 367 93 367 93 634 93 c 0,5,6
 922 93 922 93 922 368 c 0,7,8
 922 577 922 577 738 606 c 0,9,10
 719 609 719 609 556 615 c 1,11,-1
 559 736 l 1,12,13
 692 739 692 739 735 749 c 0,14,15
 884 785 884 785 884 954 c 0,16,17
 884 1188 884 1188 635 1188 c 128,-1,18
 386 1188 386 1188 371 908 c 1,19,-1
 229 908 l 1,20,21
 242 1303 242 1303 634 1303 c 0,22,23
 815 1303 815 1303 922.5 1216 c 128,-1,24
 1030 1129 1030 1129 1030 959 c 0,25,26
 1030 761 1030 761 820 679 c 1,27,28
 955 635 955 635 1012 560 c 128,-1,29
 1069 485 1069 485 1069 371 c 0,30,31
 1069 185 1069 185 946.5 81.5 c 128,-1,32
 824 -22 824 -22 628 -22 c 0,0,1
EndSplineSet
EndChar

StartChar: four
Encoding: 21 52 21
Width: 1098
GlyphClass: 2
Flags: MW
LayerCount: 2
Back
Fore
SplineSet
903 293 m 1,0,-1
 903 0 l 1,1,-1
 758 0 l 1,2,-1
 758 293 l 1,3,-1
 200 293 l 1,4,-1
 200 450 l 1,5,-1
 798 1280 l 1,6,-1
 903 1280 l 1,7,-1
 903 418 l 1,8,-1
 1098 418 l 1,9,-1
 1098 293 l 1,10,-1
 903 293 l 1,0,-1
758 1051 m 1,11,-1
 310 418 l 1,12,-1
 758 418 l 1,13,-1
 758 1051 l 1,11,-1
EndSplineSet
EndChar

StartChar: five
Encoding: 22 53 22
Width: 1073
GlyphClass: 2
Flags: MW
LayerCount: 2
Back
Fore
SplineSet
627 -23 m 0,0,1
 277 -23 277 -23 200 309 c 1,2,-1
 342 309 l 1,3,4
 406 93 406 93 625 92 c 0,5,6
 770 92 770 92 848 181 c 128,-1,7
 926 270 926 270 926 411 c 0,8,9
 926 571 926 571 848 655.5 c 128,-1,10
 770 740 770 740 625 740 c 0,11,12
 481 740 481 740 374 620 c 1,13,-1
 242 620 l 1,14,-1
 339 1280 l 1,15,-1
 1003 1280 l 1,16,-1
 1003 1155 l 1,17,-1
 451 1155 l 1,18,-1
 393 766 l 1,19,20
 515 855 515 855 651 855 c 0,21,22
 845 854 845 854 959 745 c 128,-1,23
 1073 636 1073 636 1073 436 c 128,-1,24
 1073 236 1073 236 951 106.5 c 128,-1,25
 829 -23 829 -23 627 -23 c 0,0,1
EndSplineSet
EndChar

StartChar: six
Encoding: 23 54 23
Width: 1062
GlyphClass: 2
Flags: MW
LayerCount: 2
Back
Fore
SplineSet
637 -22 m 0,0,1
 200 -22 200 -22 200 604 c 0,2,3
 200 1302 200 1302 668 1302 c 0,4,5
 974 1302 974 1302 1035 988 c 1,6,-1
 891 988 l 1,7,8
 842 1187 842 1187 655 1187 c 0,9,10
 346 1187 346 1187 346 640 c 1,11,12
 471 806 471 806 657 806 c 0,13,14
 844 806 844 806 953 696 c 128,-1,15
 1062 586 1062 586 1062 402 c 128,-1,16
 1062 218 1062 218 944.5 98 c 128,-1,17
 827 -22 827 -22 637 -22 c 0,0,1
847.5 608.5 m 128,-1,19
 779 691 779 691 647 691 c 128,-1,20
 515 691 515 691 435.5 611 c 128,-1,21
 356 531 356 531 356 401 c 0,22,23
 356 274 356 274 433 183.5 c 128,-1,24
 510 93 510 93 636 93 c 128,-1,25
 762 93 762 93 839 179.5 c 128,-1,26
 916 266 916 266 916 396 c 128,-1,18
 916 526 916 526 847.5 608.5 c 128,-1,19
EndSplineSet
EndChar

StartChar: seven
Encoding: 24 55 24
Width: 1066
GlyphClass: 2
Flags: MW
LayerCount: 2
Back
Fore
SplineSet
527 0 m 1,0,-1
 376 0 l 1,1,2
 433 424 433 424 927 1155 c 1,3,-1
 200 1155 l 1,4,-1
 200 1280 l 1,5,-1
 1066 1280 l 1,6,-1
 1066 1160 l 1,7,8
 633 594 633 594 527 0 c 1,0,-1
EndSplineSet
EndChar

StartChar: eight
Encoding: 25 56 25
Width: 1072
GlyphClass: 2
Flags: MW
LayerCount: 2
Back
Fore
SplineSet
947 83.5 m 128,-1,1
 822 -22 822 -22 635 -22 c 0,2,3
 447 -22 447 -22 323.5 84 c 128,-1,4
 200 190 200 190 200 370 c 0,5,6
 200 581 200 581 442 690 c 1,7,8
 339 754 339 754 294 812.5 c 128,-1,9
 249 871 249 871 249 964 c 0,10,11
 249 1124 249 1124 359.5 1213 c 128,-1,12
 470 1302 470 1302 637 1302 c 0,13,14
 800 1302 800 1302 911.5 1214.5 c 128,-1,15
 1023 1127 1023 1127 1023 964 c 0,16,17
 1023 872 1023 872 978.5 811.5 c 128,-1,18
 934 751 934 751 829 690 c 1,19,20
 1072 581 1072 581 1072 368 c 0,21,0
 1072 189 1072 189 947 83.5 c 128,-1,1
637 1187 m 128,-1,23
 530 1187 530 1187 462 1130 c 128,-1,24
 394 1073 394 1073 394 967 c 128,-1,25
 394 861 394 861 463 803 c 128,-1,26
 532 745 532 745 636 745 c 128,-1,27
 740 745 740 745 809 802 c 128,-1,28
 878 859 878 859 878 961 c 0,29,30
 878 1071 878 1071 811 1129 c 128,-1,22
 744 1187 744 1187 637 1187 c 128,-1,23
637 630 m 0,31,32
 510 630 510 630 428 560 c 128,-1,33
 346 490 346 490 346 366 c 128,-1,34
 346 242 346 242 426.5 167.5 c 128,-1,35
 507 93 507 93 634 93 c 128,-1,36
 761 93 761 93 844 166.5 c 128,-1,37
 927 240 927 240 927 364 c 128,-1,38
 927 488 927 488 846.5 559 c 128,-1,39
 766 630 766 630 637 630 c 0,31,32
EndSplineSet
EndChar

StartChar: nine
Encoding: 26 57 26
Width: 1049
GlyphClass: 2
Flags: MW
LayerCount: 2
Back
Fore
SplineSet
1049 675 m 0,0,1
 1049 -22 1049 -22 592 -22 c 0,2,3
 287 -22 287 -22 231 292 c 1,4,-1
 374 292 l 1,5,6
 421 93 421 93 604 93 c 0,7,8
 913 93 913 93 913 632 c 1,9,10
 764 472 764 472 590 472 c 128,-1,11
 416 472 416 472 308 587 c 128,-1,12
 200 702 200 702 200 884 c 128,-1,13
 200 1066 200 1066 318 1184 c 128,-1,14
 436 1302 436 1302 622 1302 c 0,15,16
 1049 1302 1049 1302 1049 675 c 0,0,1
904 877 m 0,17,18
 904 1010 904 1010 827.5 1098.5 c 128,-1,19
 751 1187 751 1187 623 1187 c 128,-1,20
 495 1187 495 1187 420 1101 c 128,-1,21
 345 1015 345 1015 345 882 c 128,-1,22
 345 749 345 749 416 668.5 c 128,-1,23
 487 588 487 588 615 588 c 128,-1,24
 743 588 743 588 823.5 670 c 128,-1,25
 904 752 904 752 904 877 c 0,17,18
EndSplineSet
EndChar

StartChar: colon
Encoding: 27 58 27
Width: 373
GlyphClass: 2
Flags: MW
LayerCount: 2
Back
Fore
SplineSet
147 0 m 1,0,-1
 147 166 l 1,1,-1
 328 166 l 1,2,-1
 328 0 l 1,3,-1
 147 0 l 1,0,-1
147 709 m 1,4,-1
 147 875 l 1,5,-1
 328 875 l 1,6,-1
 328 709 l 1,7,-1
 147 709 l 1,4,-1
EndSplineSet
EndChar

StartChar: semicolon
Encoding: 28 59 28
Width: 425
GlyphClass: 2
Flags: MW
LayerCount: 2
Back
Fore
SplineSet
163 709 m 1,0,-1
 163 875 l 1,1,-1
 344 875 l 1,2,-1
 344 709 l 1,3,-1
 163 709 l 1,0,-1
162 -263 m 1,4,-1
 162 -216 l 1,5,6
 245 -209 245 -209 270 -143 c 0,7,8
 279 -111 279 -111 279 0 c 1,9,-1
 162 0 l 1,10,-1
 162 164 l 1,11,-1
 345 164 l 1,12,-1
 345 -40 l 2,13,14
 345 -256 345 -256 162 -263 c 1,4,-1
EndSplineSet
EndChar

StartChar: less
Encoding: 29 60 29
Width: 944
GlyphClass: 2
Flags: MW
LayerCount: 2
Back
Fore
SplineSet
86 412 m 1,0,-1
 86 522 l 1,1,-1
 947 886 l 1,2,-1
 947 768 l 1,3,-1
 217 468 l 1,4,-1
 947 166 l 1,5,-1
 947 48 l 1,6,-1
 86 412 l 1,0,-1
EndSplineSet
EndChar

StartChar: equal
Encoding: 30 61 30
Width: 973
GlyphClass: 2
Flags: MW
LayerCount: 2
Back
Fore
SplineSet
115 572 m 1,0,-1
 115 677 l 1,1,-1
 965 677 l 1,2,-1
 965 572 l 1,3,-1
 115 572 l 1,0,-1
115 253 m 1,4,-1
 115 361 l 1,5,-1
 965 361 l 1,6,-1
 965 253 l 1,7,-1
 115 253 l 1,4,-1
EndSplineSet
EndChar

StartChar: greater
Encoding: 31 62 31
Width: 969
GlyphClass: 2
Flags: MW
LayerCount: 2
Back
Fore
SplineSet
115 48 m 1,0,-1
 115 166 l 1,1,-1
 842 463 l 1,2,-1
 115 768 l 1,3,-1
 115 886 l 1,4,-1
 971 522 l 1,5,-1
 971 412 l 1,6,-1
 115 48 l 1,0,-1
EndSplineSet
EndChar

StartChar: question
Encoding: 32 63 32
Width: 939
GlyphClass: 2
Flags: MW
LayerCount: 2
Back
Fore
SplineSet
601 585 m 2,0,1
 547 533 547 533 547 454 c 2,2,-1
 547 374 l 1,3,-1
 407 374 l 1,4,-1
 407 460 l 2,5,6
 407 569 407 569 521 679 c 2,7,-1
 643 797 l 2,8,9
 732 883 732 883 732 988 c 0,10,11
 732 1092 732 1092 663 1147 c 128,-1,12
 594 1202 594 1202 488 1202 c 0,13,14
 247 1202 247 1202 242 925 c 1,15,-1
 113 925 l 1,16,17
 118 1320 118 1320 498 1320 c 0,18,19
 662 1320 662 1320 766.5 1234 c 128,-1,20
 871 1148 871 1148 871 998 c 128,-1,21
 871 848 871 848 779 758 c 2,22,-1
 601 585 l 2,0,1
407 18 m 1,23,-1
 407 180 l 1,24,-1
 547 180 l 1,25,-1
 547 18 l 1,26,-1
 407 18 l 1,23,-1
EndSplineSet
EndChar

StartChar: at
Encoding: 33 64 33
Width: 1734
GlyphClass: 2
Flags: MW
LayerCount: 2
Back
Fore
SplineSet
1738 690 m 0,0,1
 1738 473 1738 473 1598 308.5 c 128,-1,2
 1458 144 1458 144 1264 144 c 0,3,4
 1102 144 1102 144 1076 294 c 1,5,6
 948 151 948 151 820 151 c 128,-1,7
 692 151 692 151 614.5 244.5 c 128,-1,8
 537 338 537 338 537 468 c 0,9,10
 537 650 537 650 669.5 800 c 128,-1,11
 802 950 802 950 985 950 c 0,12,13
 1128 950 1128 950 1203 775 c 1,14,-1
 1248 913 l 1,15,-1
 1372 913 l 1,16,-1
 1218 430 l 2,17,18
 1196 361 1196 361 1196 327.5 c 128,-1,19
 1196 294 1196 294 1226.5 269.5 c 128,-1,20
 1257 245 1257 245 1297 245 c 0,21,22
 1414 245 1414 245 1510 375 c 128,-1,23
 1606 505 1606 505 1606 667 c 0,24,25
 1606 901 1606 901 1414.5 1063 c 128,-1,26
 1223 1225 1223 1225 995 1225 c 0,27,28
 682 1225 682 1225 470 1015 c 0,29,30
 258 806 258 806 258 534 c 128,-1,31
 258 262 258 262 450.5 82.5 c 128,-1,32
 643 -97 643 -97 936 -97 c 0,33,34
 1076 -97 1076 -97 1272 -43 c 1,35,-1
 1314 -142 l 1,36,37
 1122 -212 1122 -212 928 -212 c 0,38,39
 611 -212 611 -212 369 -14 c 128,-1,40
 127 184 127 184 127 491 c 0,41,42
 127 842 127 842 382.5 1091 c 128,-1,43
 638 1340 638 1340 992 1340 c 0,44,45
 1282 1340 1282 1340 1510 1154 c 128,-1,46
 1738 968 1738 968 1738 690 c 0,0,1
972 859 m 0,47,48
 852 859 852 859 763.5 735 c 128,-1,49
 675 611 675 611 675 466 c 0,50,51
 675 381 675 381 726.5 313 c 128,-1,52
 778 245 778 245 861 245 c 0,53,54
 990 245 990 245 1071 398.5 c 128,-1,55
 1152 552 1152 552 1152 688 c 0,56,57
 1152 763 1152 763 1100 811 c 128,-1,58
 1048 859 1048 859 972 859 c 0,47,48
EndSplineSet
EndChar

StartChar: braceleft
Encoding: 34 123 34
Width: 526
GlyphClass: 2
Flags: MW
LayerCount: 2
Back
Fore
SplineSet
451 -371 m 2,0,1
 262 -371 262 -371 262 -148 c 2,2,-1
 262 150 l 2,3,4
 262 375 262 375 117 403 c 1,5,-1
 117 509 l 1,6,7
 262 541 262 541 262 764 c 2,8,-1
 262 1062 l 2,9,10
 262 1283 262 1283 451 1283 c 2,11,-1
 525 1283 l 1,12,-1
 525 1189 l 1,13,14
 443 1189 443 1189 411.5 1164.5 c 128,-1,15
 380 1140 380 1140 380 1060 c 2,16,-1
 380 737 l 2,17,18
 380 525 380 525 211 457 c 1,19,20
 380 383 380 383 380 176 c 2,21,-1
 380 -145 l 2,22,23
 380 -229 380 -229 413 -252 c 128,-1,24
 446 -275 446 -275 525 -277 c 1,25,-1
 525 -371 l 1,26,-1
 451 -371 l 2,0,1
EndSplineSet
EndChar

StartChar: bar
Encoding: 35 124 35
Width: 335
GlyphClass: 2
Flags: MW
LayerCount: 2
Back
Fore
SplineSet
147 -371 m 1,0,-1
 147 1280 l 1,1,-1
 251 1280 l 1,2,-1
 251 -371 l 1,3,-1
 147 -371 l 1,0,-1
EndSplineSet
EndChar

StartChar: braceright
Encoding: 36 125 36
Width: 504
GlyphClass: 2
Flags: MW
LayerCount: 2
Back
Fore
SplineSet
328 150 m 2,0,-1
 328 -148 l 2,1,2
 328 -371 328 -371 136 -371 c 2,3,-1
 59 -371 l 1,4,-1
 59 -277 l 1,5,6
 143 -275 143 -275 175 -252 c 128,-1,7
 207 -229 207 -229 207 -145 c 2,8,-1
 207 176 l 2,9,10
 207 383 207 383 377 455 c 1,11,12
 207 530 207 530 207 737 c 2,13,-1
 207 1060 l 2,14,15
 207 1140 207 1140 174 1164.5 c 128,-1,16
 141 1189 141 1189 59 1189 c 1,17,-1
 59 1283 l 1,18,-1
 136 1283 l 2,19,20
 328 1283 328 1283 328 1062 c 2,21,-1
 328 764 l 2,22,23
 328 542 328 542 467 509 c 1,24,-1
 467 403 l 1,25,26
 328 371 328 371 328 150 c 2,0,-1
EndSplineSet
EndChar

StartChar: asciitilde
Encoding: 37 126 37
Width: 910
GlyphClass: 2
Flags: MW
LayerCount: 2
Back
Fore
SplineSet
882 933 m 2,0,1
 882 704 882 704 707 704 c 0,2,3
 623 704 623 704 540 763 c 2,4,-1
 395 866 l 2,5,6
 348 899 348 899 304 899 c 0,7,8
 209 899 209 899 196 751 c 1,9,-1
 123 751 l 1,10,11
 139 1002 139 1002 306 1002 c 0,12,13
 355 1002 355 1002 397 975 c 2,14,-1
 609 839 l 2,15,16
 659 807 659 807 705 807 c 0,17,18
 805 807 805 807 808 950 c 1,19,-1
 882 950 l 1,20,-1
 882 933 l 2,0,1
EndSplineSet
EndChar

StartChar: anuswara
Encoding: 39 3330 39
Width: 824
VWidth: 0
GlyphClass: 2
Flags: MW
LayerCount: 2
Back
Fore
SplineSet
424.5078125 670.03515625 m 0,0,1
 523.201171875 671.862304688 523.201171875 671.862304688 606.908203125 620.029296875 c 0,2,3
 692.748046875 566.876953125 692.748046875 566.876953125 734.7890625 475.119140625 c 128,-1,4
 776.859375 383.296875 776.859375 383.296875 760.98046875 283.5859375 c 128,-1,5
 745.088867188 183.8046875 745.088867188 183.8046875 676.513671875 109.646484375 c 128,-1,6
 607.888671875 35.435546875 607.888671875 35.435546875 509.630859375 11.87890625 c 0,7,8
 404.135742188 -13.4130859375 404.135742188 -13.4130859375 304.087890625 28.322265625 c 128,-1,9
 203.893554688 70.1171875 203.893554688 70.1171875 147.798828125 162.98046875 c 0,10,11
 89.0175595275 260.290931336 89.0175595275 260.290931336 100.783203125 356.291015625 c 0,12,13
 132 611 132 611 380.232421875 666.251953125 c 0,14,15
 395.869098426 669.504437943 395.869098426 669.504437943 424.5078125 670.03515625 c 0,0,1
435.453125 529.89453125 m 0,16,17
 418.068359375 530.415039062 418.068359375 530.415039062 401.4453125 527.8671875 c 0,18,19
 338.889648438 518.278320312 338.889648438 518.278320312 293.068359375 472.552734375 c 1,20,21
 289.030273438 462.4921875 289.030273438 462.4921875 282.140625 454.125 c 0,22,23
 244.461914062 407.130859375 244.461914062 407.130859375 240.4765625 347.02734375 c 128,-1,24
 236.491210938 286.923828125 236.491210938 286.923828125 267.634765625 235.3671875 c 0,25,26
 300.051757812 181.698242188 300.051757812 181.698242188 357.986328125 157.53125 c 128,-1,27
 415.896484375 133.375 415.896484375 133.375 476.9921875 148.021484375 c 0,28,29
 533.94140625 161.673828125 533.94140625 161.673828125 573.7265625 204.697265625 c 128,-1,30
 613.501953125 247.7109375 613.501953125 247.7109375 622.72265625 305.60546875 c 128,-1,31
 631.94140625 363.487304688 631.94140625 363.487304688 607.51171875 416.8046875 c 128,-1,32
 583.0859375 470.11328125 583.0859375 470.11328125 533.205078125 501 c 0,33,34
 489.137695312 528.287109375 489.137695312 528.287109375 435.453125 529.89453125 c 0,16,17
EndSplineSet
EndChar

StartChar: ml_a
Encoding: 41 3333 41
Width: 2531
GlyphClass: 2
Flags: MW
LayerCount: 2
Back
Fore
SplineSet
869.387695312 969.1875 m 1,0,1
 1085.484375 1052.27539062 1085.484375 1052.27539062 1291.05273438 933.69140625 c 0,2,3
 1406.64746094 867.008789062 1406.64746094 867.008789062 1474.91503906 733.875 c 1,4,5
 1538.64257812 853.412109375 1538.64257812 853.412109375 1645.65625 919.151367188 c 128,-1,6
 1752.67089844 984.890625 1752.67089844 984.890625 1866.26855469 991.140625 c 0,7,8
 2094.77636719 1003.71289062 2094.77636719 1003.71289062 2252.49804688 847.288085938 c 128,-1,9
 2410.21875 690.86328125 2410.21875 690.86328125 2428.81542969 467.759765625 c 0,10,11
 2443.5859375 290.573242188 2443.5859375 290.573242188 2361.86816406 158.8984375 c 0,12,13
 2315.49511719 84.17578125 2315.49511719 84.17578125 2242.31738281 36.40625 c 128,-1,14
 2169.13867188 -11.36328125 2169.13867188 -11.36328125 2092.62695312 -16.17578125 c 0,15,16
 1944.84765625 -25.4716796875 1944.84765625 -25.4716796875 1843.82421875 67.1728515625 c 128,-1,17
 1742.80078125 159.81640625 1742.80078125 159.81640625 1735.37402344 302.291992188 c 128,-1,18
 1727.94726562 444.768554688 1727.94726562 444.768554688 1831.83886719 550.7734375 c 128,-1,19
 1935.73242188 656.779296875 1935.73242188 656.779296875 2084.08496094 652.0390625 c 0,20,21
 2175.97949219 649.102539062 2175.97949219 649.102539062 2254.41503906 599.384765625 c 1,22,23
 2186.17480469 763.959960938 2186.17480469 763.959960938 2026.78222656 827.508789062 c 128,-1,24
 1867.38867188 891.056640625 1867.38867188 891.056640625 1723.64160156 802.751953125 c 0,25,26
 1556.609375 700.142578125 1556.609375 700.142578125 1544.23925781 447.21875 c 0,27,28
 1546.15722656 408.06640625 1546.15722656 408.06640625 1546.26269531 338.701171875 c 2,29,-1
 1546.69433594 55.7734375 l 2,30,31
 1546.37792969 15.72265625 1546.37792969 15.72265625 1511.62109375 -4.3818359375 c 0,32,33
 1495.546875 -13.6796875 1495.546875 -13.6796875 1471.94824219 -13.6796875 c 128,-1,34
 1448.34960938 -13.6796875 1448.34960938 -13.6796875 1427.84277344 6.3720703125 c 128,-1,35
 1407.3359375 26.4248046875 1407.3359375 26.4248046875 1406.70019531 54.7578125 c 2,36,-1
 1403.12207031 330.47265625 l 2,37,38
 1402.17382812 403.53125 1402.17382812 403.53125 1403.97753906 446.123046875 c 1,39,40
 1401.35449219 494.66015625 1401.35449219 494.66015625 1390.01953125 561.245117188 c 128,-1,41
 1378.68457031 627.829101562 1378.68457031 627.829101562 1332.7265625 701.184570312 c 128,-1,42
 1286.76757812 774.540039062 1286.76757812 774.540039062 1213.37792969 816.875976562 c 128,-1,43
 1139.98828125 859.211914062 1139.98828125 859.211914062 1055.63183594 861.953125 c 1,44,45
 1153.95996094 760.391601562 1153.95996094 760.391601562 1145.79394531 630.095703125 c 0,46,47
 1139.81933594 534.754882812 1139.81933594 534.754882812 1075.86816406 463.4609375 c 1,48,49
 1137.87890625 413.665039062 1137.87890625 413.665039062 1159.4921875 342.798828125 c 0,50,51
 1205.22070312 192.860351562 1205.22070312 192.860351562 1098.42480469 81.107421875 c 0,52,53
 1049.95605469 30.388671875 1049.95605469 30.388671875 982.1484375 8.6572265625 c 0,54,55
 847.858398438 -34.3818359375 847.858398438 -34.3818359375 730.008789062 32.625 c 128,-1,56
 612.158203125 99.6318359375 612.158203125 99.6318359375 562.100585938 215.9921875 c 128,-1,57
 512.043945312 332.3515625 512.043945312 332.3515625 518.233398438 449.900390625 c 0,58,59
 531.129882812 694.81640625 531.129882812 694.81640625 686.778320312 850.169921875 c 1,60,61
 523.559570312 844.888671875 523.559570312 844.888671875 404.055664062 756.65625 c 0,62,63
 335.84765625 706.295898438 335.84765625 706.295898438 292.138671875 631.572265625 c 128,-1,64
 248.430664062 556.84765625 248.430664062 556.84765625 242.8046875 487.267578125 c 0,65,66
 231.938476562 352.8671875 231.938476562 352.8671875 302.594726562 250.646484375 c 128,-1,67
 373.25390625 148.423828125 373.25390625 148.423828125 492.661132812 114.021484375 c 0,68,69
 514.026367188 108.201171875 514.026367188 108.201171875 529.147460938 88.41015625 c 128,-1,70
 544.267578125 68.619140625 544.267578125 68.619140625 544.267578125 43.056640625 c 128,-1,71
 544.267578125 17.4931640625 544.267578125 17.4931640625 523.755859375 -3.01953125 c 128,-1,72
 503.244140625 -23.53125 503.244140625 -23.53125 483.55078125 -23.53125 c 128,-1,73
 463.857421875 -23.53125 463.857421875 -23.53125 453.903320312 -20.505859375 c 0,74,75
 286.4921875 27.7265625 286.4921875 27.7265625 187.430664062 171.041015625 c 128,-1,76
 88.3671875 314.360351562 88.3671875 314.360351562 101.547851562 477.373046875 c 128,-1,77
 114.727539062 640.385742188 114.727539062 640.385742188 221.952148438 776.153320312 c 128,-1,78
 329.17578125 911.920898438 329.17578125 911.920898438 514.96875 964.139648438 c 128,-1,79
 700.762695312 1016.35839844 700.762695312 1016.35839844 869.387695312 969.1875 c 1,0,1
876.520507812 818.126953125 m 1,80,81
 750.4921875 750.756835938 750.4921875 750.756835938 693.532226562 610.817382812 c 0,82,83
 662.944335938 535.66796875 662.944335938 535.66796875 658.256835938 446.65234375 c 128,-1,84
 653.5703125 357.637695312 653.5703125 357.637695312 687.8828125 277.875976562 c 128,-1,85
 722.196289062 198.114257812 722.196289062 198.114257812 793.546875 157.544921875 c 128,-1,86
 864.8984375 116.975585938 864.8984375 116.975585938 938.8984375 141.28125 c 128,-1,87
 1012.89746094 165.586914062 1012.89746094 165.586914062 1028.66015625 233.928710938 c 128,-1,88
 1044.42382812 302.270507812 1044.42382812 302.270507812 994.967773438 348.53515625 c 0,89,90
 968.14453125 373.62890625 968.14453125 373.62890625 931.965820312 378.890625 c 1,91,92
 843.5703125 358.7890625 843.5703125 358.7890625 809.918945312 394.233398438 c 0,93,94
 790.469726562 414.717773438 790.469726562 414.717773438 790.469726562 439.231445312 c 128,-1,95
 790.469726562 463.744140625 790.469726562 463.744140625 805.040039062 483.376953125 c 0,96,97
 832.634765625 520.560546875 832.634765625 520.560546875 916.069335938 520.10546875 c 1,98,99
 942.012695312 529.297851562 942.012695312 529.297851562 972.30078125 556.319335938 c 128,-1,100
 1002.58886719 583.33984375 1002.58886719 583.33984375 1005.640625 632.04296875 c 0,101,102
 1011.61621094 727.397460938 1011.61621094 727.397460938 925.807617188 790.07421875 c 0,103,104
 904.01953125 805.989257812 904.01953125 805.989257812 876.520507812 818.126953125 c 1,80,81
2269.90136719 289.64453125 m 0,105,106
 2269.95800781 290.452148438 2269.95800781 290.452148438 2272.31933594 310.801757812 c 128,-1,107
 2274.68066406 331.151367188 2274.68066406 331.151367188 2262.12011719 372.083984375 c 0,108,109
 2236.68066406 454.989257812 2236.68066406 454.989257812 2157.12109375 492.99609375 c 128,-1,110
 2077.56054688 531.001953125 2077.56054688 531.001953125 1997.88476562 496.731445312 c 128,-1,111
 1918.20800781 462.4609375 1918.20800781 462.4609375 1888.63378906 384.271484375 c 128,-1,112
 1859.05859375 306.083007812 1859.05859375 306.083007812 1893.19433594 232.961914062 c 128,-1,113
 1927.32910156 159.840820312 1927.32910156 159.840820312 2007.4453125 131.206054688 c 128,-1,114
 2087.56054688 102.571289062 2087.56054688 102.571289062 2163.09472656 151.87890625 c 128,-1,115
 2238.62792969 201.1875 2238.62792969 201.1875 2269.90136719 289.64453125 c 0,105,106
EndSplineSet
EndChar

StartChar: ml_aa
Encoding: 42 3334 42
Width: 2712
GlyphClass: 2
Flags: MW
LayerCount: 2
Back
Fore
SplineSet
868.723632812 974.287109375 m 5,0,1
 1084.82324219 1057.37304688 1084.82324219 1057.37304688 1290.40234375 938.783203125 c 4,2,3
 1406.01074219 872.092773438 1406.01074219 872.092773438 1474.28417969 738.904296875 c 5,4,5
 1538.0078125 858.38671875 1538.0078125 858.38671875 1644.98632812 924.118164062 c 132,-1,6
 1751.96484375 989.849609375 1751.96484375 989.849609375 1865.5859375 996.229492188 c 4,7,8
 2094.35546875 1009.07617188 2094.35546875 1009.07617188 2259.04785156 845.970703125 c 4,9,10
 2379.40332031 726.7734375 2379.40332031 726.7734375 2416.45410156 552.794921875 c 5,11,12
 2554.81152344 442.477539062 2554.81152344 442.477539062 2597.11230469 272.958984375 c 4,13,14
 2623.68164062 166.483398438 2623.68164062 166.483398438 2604.13964844 56.88671875 c 132,-1,15
 2584.59765625 -52.7099609375 2584.59765625 -52.7099609375 2522.86425781 -143.439453125 c 132,-1,16
 2461.12988281 -234.169921875 2461.12988281 -234.169921875 2366.359375 -292.579101562 c 4,17,18
 2204.68457031 -392.221679688 2204.68457031 -392.221679688 2037.28515625 -366.771484375 c 132,-1,19
 1869.88476562 -341.3203125 1869.88476562 -341.3203125 1757.44824219 -244.546875 c 4,20,21
 1732.32324219 -223.557617188 1732.32324219 -223.557617188 1732.32324219 -192.698242188 c 132,-1,22
 1732.32324219 -161.837890625 1732.32324219 -161.837890625 1752.83496094 -141.325195312 c 132,-1,23
 1773.34765625 -120.813476562 1773.34765625 -120.813476562 1801.12207031 -120.813476562 c 132,-1,24
 1828.89648438 -120.813476562 1828.89648438 -120.813476562 1848.77441406 -138.4375 c 4,25,26
 1908.38574219 -189.744140625 1908.38574219 -189.744140625 1987.43457031 -213.3046875 c 4,27,28
 2120.78222656 -253.047851562 2120.78222656 -253.047851562 2233.91699219 -203.00390625 c 132,-1,29
 2347.05175781 -152.959960938 2347.05175781 -152.959960938 2399.20605469 -76.30859375 c 4,30,31
 2502.20214844 75.0634765625 2502.20214844 75.0634765625 2461.27832031 239.0625 c 4,32,33
 2449.09863281 287.873046875 2449.09863281 287.873046875 2422.65722656 333.740234375 c 5,34,35
 2390.55371094 141.01171875 2390.55371094 141.01171875 2247.69921875 46.9052734375 c 132,-1,36
 2104.84472656 -47.2001953125 2104.84472656 -47.2001953125 1962.89941406 1.4033203125 c 132,-1,37
 1820.95507812 50.0068359375 1820.95507812 50.0068359375 1763.54589844 176.779296875 c 4,38,39
 1735.9609375 237.69140625 1735.9609375 237.69140625 1734.60351562 324.4921875 c 132,-1,40
 1733.24511719 411.29296875 1733.24511719 411.29296875 1794.61425781 498.846679688 c 132,-1,41
 1855.98339844 586.400390625 1855.98339844 586.400390625 1951.12890625 627.225585938 c 4,42,43
 2086.83691406 685.456054688 2086.83691406 685.456054688 2235.04785156 645.302734375 c 5,44,45
 2164.43945312 777.991210938 2164.43945312 777.991210938 2015.64453125 837.056640625 c 132,-1,46
 1866.84960938 896.122070312 1866.84960938 896.122070312 1723.02832031 807.75390625 c 4,47,48
 1555.94824219 705.09375 1555.94824219 705.09375 1543.57519531 452.275390625 c 4,49,50
 1545.49316406 413.095703125 1545.49316406 413.095703125 1545.59863281 343.80078125 c 6,51,-1
 1546.02832031 60.873046875 l 6,52,53
 1545.79882812 32.12109375 1545.79882812 32.12109375 1525.28710938 11.7724609375 c 132,-1,54
 1504.77636719 -8.576171875 1504.77636719 -8.576171875 1476.23046875 -8.576171875 c 132,-1,55
 1447.68457031 -8.576171875 1447.68457031 -8.576171875 1427.17773438 11.474609375 c 132,-1,56
 1406.67089844 31.525390625 1406.67089844 31.525390625 1406.03417969 59.857421875 c 6,57,-1
 1402.45605469 335.572265625 l 6,58,59
 1401.50878906 408.627929688 1401.50878906 408.627929688 1403.31347656 451.189453125 c 5,60,61
 1400.68847656 499.770507812 1400.68847656 499.770507812 1389.35449219 566.34765625 c 132,-1,62
 1378.02050781 632.924804688 1378.02050781 632.924804688 1332.06054688 706.282226562 c 132,-1,63
 1286.1015625 779.639648438 1286.1015625 779.639648438 1212.71191406 821.975585938 c 132,-1,64
 1139.32324219 864.311523438 1139.32324219 864.311523438 1054.96777344 867.052734375 c 5,65,66
 1153.29394531 765.493164062 1153.29394531 765.493164062 1145.12792969 635.1953125 c 4,67,68
 1139.15234375 539.854492188 1139.15234375 539.854492188 1075.20214844 468.560546875 c 5,69,70
 1137.20898438 418.77734375 1137.20898438 418.77734375 1158.82324219 347.904296875 c 4,71,72
 1204.55371094 197.959960938 1204.55371094 197.959960938 1097.75878906 86.20703125 c 4,73,74
 1049.29101562 35.48828125 1049.29101562 35.48828125 981.483398438 13.7568359375 c 4,75,76
 847.192382812 -29.2822265625 847.192382812 -29.2822265625 729.341796875 37.724609375 c 132,-1,77
 611.491210938 104.731445312 611.491210938 104.731445312 561.435546875 221.08984375 c 132,-1,78
 511.37890625 337.447265625 511.37890625 337.447265625 517.568359375 454.999023438 c 4,79,80
 530.462890625 699.87890625 530.462890625 699.87890625 686.112304688 855.26953125 c 5,81,82
 451.895507812 847.690429688 451.895507812 847.690429688 329.17578125 691.272460938 c 132,-1,83
 206.455078125 534.854492188 206.455078125 534.854492188 252.3828125 363.629882812 c 4,84,85
 284.543945312 243.729492188 284.543945312 243.729492188 385.344726562 171.26953125 c 4,86,87
 435.078125 135.51953125 435.078125 135.51953125 474.21875 124.41015625 c 4,88,89
 543.6015625 104.716796875 543.6015625 104.716796875 543.6015625 51.5751953125 c 4,90,91
 543.6015625 22.5927734375 543.6015625 22.5927734375 523.088867188 2.080078125 c 132,-1,92
 502.577148438 -18.431640625 502.577148438 -18.431640625 482.883789062 -18.431640625 c 132,-1,93
 463.190429688 -18.431640625 463.190429688 -18.431640625 453.237304688 -15.40625 c 4,94,95
 285.825195312 32.826171875 285.825195312 32.826171875 186.764648438 176.140625 c 132,-1,96
 87.7021484375 319.45703125 87.7021484375 319.45703125 101.743164062 493.111328125 c 4,97,98
 110.87890625 606.103515625 110.87890625 606.103515625 169.270507812 706.0703125 c 132,-1,99
 227.662109375 806.037109375 227.662109375 806.037109375 318.024414062 872.75390625 c 4,100,101
 498.092773438 1005.70214844 498.092773438 1005.70214844 735.647460938 994.84765625 c 4,102,103
 806.857421875 991.59375 806.857421875 991.59375 868.723632812 974.287109375 c 5,0,1
875.856445312 823.2265625 m 5,104,105
 725.11328125 742.640625 725.11328125 742.640625 678.616210938 576.848632812 c 132,-1,106
 632.119140625 411.055664062 632.119140625 411.055664062 685.805664062 286.259765625 c 4,107,108
 721.532226562 203.211914062 721.532226562 203.211914062 792.881835938 162.643554688 c 132,-1,109
 864.232421875 122.07421875 864.232421875 122.07421875 938.232421875 146.380859375 c 132,-1,110
 1012.23339844 170.686523438 1012.23339844 170.686523438 1027.99609375 239.02734375 c 132,-1,111
 1043.75878906 307.368164062 1043.75878906 307.368164062 994.301757812 353.634765625 c 4,112,113
 967.477539062 378.728515625 967.477539062 378.728515625 931.301757812 383.990234375 c 5,114,115
 842.907226562 363.885742188 842.907226562 363.885742188 809.252929688 399.333984375 c 4,116,117
 789.805664062 419.818359375 789.805664062 419.818359375 789.805664062 444.331054688 c 132,-1,118
 789.805664062 468.84375 789.805664062 468.84375 804.375 488.4765625 c 4,119,120
 831.970703125 525.66015625 831.970703125 525.66015625 915.405273438 525.205078125 c 5,121,122
 941.344726562 534.396484375 941.344726562 534.396484375 971.634765625 561.418945312 c 132,-1,123
 1001.92382812 588.44140625 1001.92382812 588.44140625 1004.97558594 637.142578125 c 4,124,125
 1010.95117188 732.49609375 1010.95117188 732.49609375 925.141601562 795.173828125 c 4,126,127
 903.349609375 811.090820312 903.349609375 811.090820312 875.856445312 823.2265625 c 5,104,105
2287.52050781 472.322265625 m 5,128,129
 2144.54882812 557.876953125 2144.54882812 557.876953125 2009.65332031 499.994140625 c 4,130,131
 1947.77734375 473.444335938 1947.77734375 473.444335938 1910.85742188 420.772460938 c 132,-1,132
 1873.9375 368.100585938 1873.9375 368.100585938 1874.70410156 319.069335938 c 4,133,134
 1876.1328125 227.783203125 1876.1328125 227.783203125 1934.47949219 174.814453125 c 132,-1,135
 1992.765625 121.900390625 1992.765625 121.900390625 2057.39648438 126.833007812 c 4,136,137
 2177.29003906 135.982421875 2177.29003906 135.982421875 2239.42871094 235.701171875 c 132,-1,138
 2301.56738281 335.420898438 2301.56738281 335.420898438 2287.52050781 472.322265625 c 5,128,129
EndSplineSet
EndChar

StartChar: ml_i
Encoding: 43 3335 43
Width: 1974
GlyphClass: 2
Flags: MW
LayerCount: 2
Back
Fore
SplineSet
959.237304688 242.884765625 m 132,-1,1
 959.252929688 271.025390625 959.252929688 271.025390625 958.3359375 391.075195312 c 132,-1,2
 957.419921875 511.125976562 957.419921875 511.125976562 957.251953125 571.337890625 c 132,-1,3
 957.083984375 631.549804688 957.083984375 631.549804688 922.66015625 699.275390625 c 132,-1,4
 888.236328125 767.000976562 888.236328125 767.000976562 827.754882812 799.923828125 c 4,5,6
 827.254882812 800.196289062 827.254882812 800.196289062 826.875976562 800.41015625 c 4,7,8
 719.555664062 859.487304688 719.555664062 859.487304688 588.073242188 841.8984375 c 132,-1,9
 456.591796875 824.30859375 456.591796875 824.30859375 365.297851562 741.513671875 c 5,10,11
 489.877929688 771.08203125 489.877929688 771.08203125 591.23828125 710.697265625 c 132,-1,12
 692.599609375 650.3125 692.599609375 650.3125 733.830078125 542.131835938 c 132,-1,13
 775.061523438 433.951171875 775.061523438 433.951171875 730.340820312 326.203125 c 4,14,15
 707.346679688 261.760742188 707.346679688 261.760742188 657.1484375 214.51953125 c 132,-1,16
 606.94921875 167.279296875 606.94921875 167.279296875 546.05859375 146.157226562 c 132,-1,17
 485.166992188 125.036132812 485.166992188 125.036132812 416.456054688 131.073242188 c 132,-1,18
 347.74609375 137.110351562 347.74609375 137.110351562 284.280273438 175.2734375 c 132,-1,19
 220.815429688 213.436523438 220.815429688 213.436523438 178.14453125 279.26953125 c 4,20,21
 93.58984375 409.720703125 93.58984375 409.720703125 120.265625 572.540039062 c 4,22,23
 132.4765625 646.844726562 132.4765625 646.844726562 168.186523438 711.0234375 c 5,24,25
 216.506835938 806.651367188 216.506835938 806.651367188 302.466796875 873.504882812 c 4,26,27
 473.5859375 1006.58789062 473.5859375 1006.58789062 695.521484375 984.84375 c 132,-1,28
 917.45703125 963.099609375 917.45703125 963.099609375 1024.00488281 804.064453125 c 5,29,30
 1069.34082031 876.478515625 1069.34082031 876.478515625 1151.59082031 932.3125 c 132,-1,31
 1233.84179688 988.146484375 1233.84179688 988.146484375 1353.65527344 991.038085938 c 4,32,33
 1594.3359375 996.846679688 1594.3359375 996.846679688 1750.21972656 816.03515625 c 4,34,35
 1822.41015625 732.260742188 1822.41015625 732.260742188 1851.1171875 627.279296875 c 5,36,37
 1903.59570312 472.795898438 1903.59570312 472.795898438 1839.359375 301.248046875 c 4,38,39
 1810.85546875 225.125976562 1810.85546875 225.125976562 1754.6796875 160.28515625 c 132,-1,40
 1698.50488281 95.4453125 1698.50488281 95.4453125 1634.45214844 60.95703125 c 132,-1,41
 1570.39941406 26.46875 1570.39941406 26.46875 1509.72949219 8.6455078125 c 132,-1,42
 1449.06054688 -9.1787109375 1449.06054688 -9.1787109375 1394.21484375 -14.4384765625 c 132,-1,43
 1339.36914062 -19.6982421875 1339.36914062 -19.6982421875 1279.62597656 -21.5595703125 c 132,-1,44
 1219.88378906 -23.421875 1219.88378906 -23.421875 1168.47851562 -21.0068359375 c 132,-1,45
 1117.07324219 -18.5908203125 1117.07324219 -18.5908203125 1089.77148438 -19.83984375 c 132,-1,46
 1062.47070312 -21.0888671875 1062.47070312 -21.0888671875 1045.86035156 -21.2333984375 c 132,-1,47
 1029.25097656 -21.37890625 1029.25097656 -21.37890625 789.166015625 -22.1455078125 c 132,-1,48
 549.08203125 -22.9130859375 549.08203125 -22.9130859375 449.8359375 -26.2763671875 c 4,49,50
 261.788085938 -32.6494140625 261.788085938 -32.6494140625 242.333984375 -122.53515625 c 4,51,52
 237.916992188 -156.983398438 237.916992188 -156.983398438 263.038085938 -178.9375 c 4,53,54
 309.614257812 -219.642578125 309.614257812 -219.642578125 362.155273438 -223.106445312 c 4,55,56
 460.0546875 -229.560546875 460.0546875 -229.560546875 597.142578125 -228.521484375 c 132,-1,57
 734.229492188 -227.482421875 734.229492188 -227.482421875 828.068359375 -228.322265625 c 6,58,-1
 1803.80078125 -228.759765625 l 6,59,60
 1804.26367188 -228.752929688 1804.26367188 -228.752929688 1819.00292969 -228.752929688 c 132,-1,61
 1833.7421875 -228.752929688 1833.7421875 -228.752929688 1854.25390625 -249.265625 c 132,-1,62
 1874.76660156 -269.77734375 1874.76660156 -269.77734375 1874.76660156 -298.760742188 c 132,-1,63
 1874.76660156 -327.743164062 1874.76660156 -327.743164062 1854.25390625 -348.255859375 c 132,-1,64
 1833.7421875 -368.767578125 1833.7421875 -368.767578125 1804.75976562 -368.767578125 c 4,65,66
 1804.30175781 -368.767578125 1804.30175781 -368.767578125 1803.73925781 -368.759765625 c 6,67,-1
 828.006835938 -368.322265625 l 6,68,69
 827.610351562 -368.322265625 827.610351562 -368.322265625 784.223632812 -367.766601562 c 132,-1,70
 740.836914062 -367.211914062 740.836914062 -367.211914062 611.395507812 -369.189453125 c 132,-1,71
 481.955078125 -371.166015625 481.955078125 -371.166015625 367.498046875 -363.649414062 c 4,72,73
 206.866210938 -353.100585938 206.866210938 -353.100585938 134.65625 -239.942382812 c 4,74,75
 89.9951171875 -169.955078125 89.9951171875 -169.955078125 102.888671875 -105.4140625 c 4,76,77
 126.418945312 12.3779296875 126.418945312 12.3779296875 236.245117188 68.9453125 c 4,78,79
 318.594726562 111.360351562 318.594726562 111.360351562 432.71875 114.227539062 c 132,-1,80
 546.84375 117.095703125 546.84375 117.095703125 789.076171875 117.870117188 c 132,-1,81
 1031.30761719 118.64453125 1031.30761719 118.64453125 1140.375 119.365234375 c 132,-1,82
 1249.44238281 120.0859375 1249.44238281 120.0859375 1356.26464844 123.4453125 c 132,-1,83
 1463.08691406 126.803710938 1463.08691406 126.803710938 1556.50097656 178.798828125 c 4,84,85
 1557.27929688 179.231445312 1557.27929688 179.231445312 1557.98144531 179.599609375 c 4,86,87
 1663.04394531 234.813476562 1663.04394531 234.813476562 1708.47558594 356.712890625 c 132,-1,88
 1753.90625 478.611328125 1753.90625 478.611328125 1717.70605469 584.837890625 c 4,89,90
 1717.19921875 586.431640625 1717.19921875 586.431640625 1716.77636719 588.01953125 c 4,91,92
 1695.07714844 669.379882812 1695.07714844 669.379882812 1632.77050781 734.435546875 c 132,-1,93
 1570.46289062 799.491210938 1570.46289062 799.491210938 1485.99902344 830.326171875 c 132,-1,94
 1401.53417969 861.161132812 1401.53417969 861.161132812 1319.05175781 846.5 c 4,95,96
 1317.74511719 846.267578125 1317.74511719 846.267578125 1316.37988281 846.078125 c 4,97,98
 1234.50976562 834.76953125 1234.50976562 834.76953125 1172.98144531 767.275390625 c 132,-1,99
 1111.45214844 699.78125 1111.45214844 699.78125 1103.12011719 614.99609375 c 4,100,101
 1099.21289062 570.295898438 1099.21289062 570.295898438 1099.36132812 406.159179688 c 132,-1,102
 1099.51074219 242.022460938 1099.51074219 242.022460938 1099.23925781 215.029296875 c 6,103,-1
 1099.23925781 213.447265625 l 6,104,105
 1098.44824219 173.883789062 1098.44824219 173.883789062 1063.86914062 154.0234375 c 4,106,107
 1047.87695312 144.838867188 1047.87695312 144.838867188 1024.22363281 144.838867188 c 132,-1,108
 1000.5703125 144.838867188 1000.5703125 144.838867188 980.059570312 165.131835938 c 132,-1,109
 959.547851562 185.42578125 959.547851562 185.42578125 959.384765625 200.084960938 c 132,-1,0
 959.221679688 214.744140625 959.221679688 214.744140625 959.237304688 242.884765625 c 132,-1,1
468.438476562 606.09765625 m 4,110,111
 388.041015625 623.844726562 388.041015625 623.844726562 324.662109375 564.31640625 c 132,-1,112
 261.283203125 504.7890625 261.283203125 504.7890625 262.073242188 438.2421875 c 4,113,114
 262.088867188 437.51171875 262.088867188 437.51171875 262.088867188 436.436523438 c 132,-1,115
 262.088867188 435.361328125 262.088867188 435.361328125 262.034179688 433.978515625 c 4,116,117
 284.224609375 337.96484375 284.224609375 337.96484375 360.622070312 294.21875 c 4,118,119
 362.034179688 293.409179688 362.034179688 293.409179688 376.95703125 283.916015625 c 132,-1,120
 391.879882812 274.423828125 391.879882812 274.423828125 428.799804688 272.323242188 c 132,-1,121
 465.719726562 270.223632812 465.719726562 270.223632812 499.130859375 281.841796875 c 4,122,123
 575.981445312 308.565429688 575.981445312 308.565429688 598.883789062 374.21875 c 4,124,125
 599.65234375 376.426757812 599.65234375 376.426757812 607.708984375 394.120117188 c 132,-1,126
 615.765625 411.813476562 615.765625 411.813476562 610.013671875 449.46484375 c 132,-1,127
 604.262695312 487.1171875 604.262695312 487.1171875 586.676757812 519.725585938 c 4,128,129
 546.772460938 593.720703125 546.772460938 593.720703125 472.717773438 605.291015625 c 4,130,131
 470.564453125 605.626953125 470.564453125 605.626953125 468.438476562 606.09765625 c 4,110,111
EndSplineSet
EndChar

StartChar: ml_u
Encoding: 45 3337 45
Width: 1511
GlyphClass: 2
Flags: MW
LayerCount: 2
Back
Fore
SplineSet
114.663085938 505.293945312 m 0,0,1
 91.4189453125 732.481445312 91.4189453125 732.481445312 328.856445312 901.588867188 c 0,2,3
 450.79296875 988.434570312 450.79296875 988.434570312 689.264648438 993.102539062 c 128,-1,4
 927.736328125 997.771484375 927.736328125 997.771484375 1071.12695312 915.006835938 c 0,5,6
 1333.52441406 763.549804688 1333.52441406 763.549804688 1395.55371094 521.952148438 c 128,-1,7
 1457.58300781 280.35546875 1457.58300781 280.35546875 1277.68847656 109.893554688 c 0,8,9
 1195.84082031 32.3369140625 1195.84082031 32.3369140625 1099.19824219 7.51953125 c 128,-1,10
 1002.55664062 -17.296875 1002.55664062 -17.296875 867.874023438 -19.9794921875 c 2,11,-1
 525.413085938 -26.8017578125 l 2,12,13
 240.807617188 -32.4716796875 240.807617188 -32.4716796875 248.528320312 -151.801757812 c 0,14,15
 255.137695312 -254.002929688 255.137695312 -254.002929688 493.352539062 -254.172851562 c 2,16,-1
 1325.45019531 -254.772460938 l 2,17,18
 1325.96777344 -254.766601562 1325.96777344 -254.766601562 1335.68066406 -254.766601562 c 128,-1,19
 1345.39453125 -254.766601562 1345.39453125 -254.766601562 1370.89453125 -269.584960938 c 128,-1,20
 1396.39453125 -284.403320312 1396.39453125 -284.403320312 1396.39453125 -319.080078125 c 128,-1,21
 1396.39453125 -353.755859375 1396.39453125 -353.755859375 1375.8828125 -374.268554688 c 128,-1,22
 1355.37109375 -394.780273438 1355.37109375 -394.780273438 1340.58886719 -394.780273438 c 128,-1,23
 1325.80761719 -394.780273438 1325.80761719 -394.780273438 1325.34863281 -394.772460938 c 2,24,-1
 493.250976562 -394.172851562 l 2,25,26
 256.142578125 -394.000976562 256.142578125 -394.000976562 149.46484375 -274.0078125 c 128,-1,27
 42.787109375 -154.015625 42.787109375 -154.015625 166.174804688 0.0498046875 c 0,28,29
 228.874023438 78.3388671875 228.874023438 78.3388671875 326.271484375 94.767578125 c 128,-1,30
 423.66796875 111.197265625 423.66796875 111.197265625 522.624023438 113.168945312 c 2,31,-1
 865.084960938 119.991210938 l 2,32,33
 1089.52246094 124.459960938 1089.52246094 124.459960938 1164.15722656 195.181640625 c 0,34,35
 1301.49707031 325.322265625 1301.49707031 325.322265625 1257.02929688 498.521484375 c 128,-1,36
 1212.56152344 671.720703125 1212.56152344 671.720703125 1052.02832031 764.379882812 c 128,-1,37
 891.49609375 857.040039062 891.49609375 857.040039062 724.0390625 853.759765625 c 128,-1,38
 556.58203125 850.479492188 556.58203125 850.479492188 458.245117188 809.204101562 c 1,39,40
 540.663085938 795.711914062 540.663085938 795.711914062 612.44140625 735.268554688 c 128,-1,41
 684.220703125 674.825195312 684.220703125 674.825195312 702.198242188 589.47265625 c 0,42,43
 736.54296875 426.411132812 736.54296875 426.411132812 637.938476562 313.403320312 c 128,-1,44
 539.334960938 200.395507812 539.334960938 200.395507812 408.361328125 214.024414062 c 128,-1,45
 277.387695312 227.653320312 277.387695312 227.653320312 201.734375 310.671875 c 128,-1,46
 126.081054688 393.690429688 126.081054688 393.690429688 114.663085938 505.293945312 c 0,0,1
514.278320312 634.905273438 m 0,47,48
 416.958984375 716.854492188 416.958984375 716.854492188 313.920898438 642.231445312 c 0,49,50
 269.438476562 610.017578125 269.438476562 610.017578125 253.77734375 544.307617188 c 128,-1,51
 238.116210938 478.596679688 238.116210938 478.596679688 291.524414062 419.989257812 c 128,-1,52
 344.932617188 361.380859375 344.932617188 361.380859375 413.26171875 354.270507812 c 128,-1,53
 481.590820312 347.16015625 481.590820312 347.16015625 533.376953125 406.510742188 c 128,-1,54
 585.163085938 465.861328125 585.163085938 465.861328125 571.163085938 532.327148438 c 128,-1,55
 557.163085938 598.79296875 557.163085938 598.79296875 514.278320312 634.905273438 c 0,47,48
EndSplineSet
EndChar

StartChar: ml_r
Encoding: 47 3339 47
Width: 1680
GlyphClass: 2
Flags: MW
LayerCount: 2
Back
Fore
SplineSet
393.779296875 189.97265625 m 5,0,1
 265.294921875 258.830078125 265.294921875 258.830078125 184.965820312 373.908203125 c 132,-1,2
 104.635742188 488.986328125 104.635742188 488.986328125 100.19921875 631.779296875 c 132,-1,3
 95.76171875 774.571289062 95.76171875 774.571289062 190.225585938 888.85546875 c 132,-1,4
 284.688476562 1003.13964844 284.688476562 1003.13964844 435.853515625 989.685546875 c 4,5,6
 528.356445312 981.446289062 528.356445312 981.446289062 596.545898438 918.475585938 c 132,-1,7
 664.735351562 855.504882812 664.735351562 855.504882812 680.953125 764.49609375 c 132,-1,8
 697.171875 673.486328125 697.171875 673.486328125 655.928710938 591.16796875 c 132,-1,9
 614.685546875 508.849609375 614.685546875 508.849609375 536.905273438 468.997070312 c 4,10,11
 418.00390625 408.07421875 418.00390625 408.07421875 298.412109375 456.478515625 c 5,12,13
 298.984375 455.618164062 298.984375 455.618164062 300.538085938 453.163085938 c 4,14,15
 351.088867188 373.334960938 351.088867188 373.334960938 454.38671875 316.369140625 c 4,16,17
 618.044921875 226.116210938 618.044921875 226.116210938 874.90234375 238.471679688 c 4,18,19
 1212.64160156 254.716796875 1212.64160156 254.716796875 1360.33398438 435.521484375 c 5,20,21
 1359.20117188 435.232421875 1359.20117188 435.232421875 1356.36425781 434.436523438 c 4,22,23
 1266.75 409.301757812 1266.75 409.301757812 1176.57226562 449.912109375 c 132,-1,24
 1086.39453125 490.522460938 1086.39453125 490.522460938 1042.81640625 569.220703125 c 132,-1,25
 999.23828125 647.919921875 999.23828125 647.919921875 1005.79394531 732.834960938 c 132,-1,26
 1012.34863281 817.750976562 1012.34863281 817.750976562 1065.51367188 884.868164062 c 132,-1,27
 1118.67871094 951.985351562 1118.67871094 951.985351562 1200.96679688 977.249023438 c 132,-1,28
 1283.25585938 1002.51367188 1283.25585938 1002.51367188 1365.92773438 975.551757812 c 132,-1,29
 1448.60058594 948.58984375 1448.60058594 948.58984375 1501.84082031 879.783203125 c 132,-1,30
 1555.08105469 810.975585938 1555.08105469 810.975585938 1572.00585938 724.994140625 c 4,31,32
 1599.18457031 586.92578125 1599.18457031 586.92578125 1539.08886719 459.3828125 c 4,33,34
 1457.5078125 286.2421875 1457.5078125 286.2421875 1274.80078125 192.4765625 c 5,35,36
 1379.50878906 154.079101562 1379.50878906 154.079101562 1448.23242188 82.228515625 c 4,37,38
 1541.24316406 -15.0146484375 1541.24316406 -15.0146484375 1545.4921875 -140.258789062 c 132,-1,39
 1549.74121094 -265.50390625 1549.74121094 -265.50390625 1468.421875 -360.202148438 c 4,40,41
 1326.22558594 -525.791992188 1326.22558594 -525.791992188 1051.66992188 -538.474609375 c 4,42,43
 988.885742188 -541.374023438 988.885742188 -541.374023438 924.7578125 -540.868164062 c 132,-1,44
 860.630859375 -540.362304688 860.630859375 -540.362304688 848.986328125 -540.3515625 c 132,-1,45
 837.340820312 -540.33984375 837.340820312 -540.33984375 782.64453125 -540.67578125 c 132,-1,46
 727.948242188 -541.012695312 727.948242188 -541.012695312 707.90625 -540.666992188 c 4,47,48
 364.209960938 -534.750976562 364.209960938 -534.750976562 220.494140625 -357.921875 c 4,49,50
 131.135742188 -247.974609375 131.135742188 -247.974609375 141.58984375 -122.30859375 c 132,-1,51
 152.043945312 3.357421875 152.043945312 3.357421875 245.755859375 95.416015625 c 4,52,53
 306.544921875 155.1328125 306.544921875 155.1328125 393.779296875 189.97265625 c 5,0,1
501.802734375 815.404296875 m 4,54,55
 436.219726562 875.966796875 436.219726562 875.966796875 351.2734375 837.3671875 c 4,56,57
 296.711914062 812.575195312 296.711914062 812.575195312 266.841796875 754.26953125 c 4,58,59
 266.587890625 752.900390625 266.587890625 752.900390625 261.486328125 731.991210938 c 132,-1,60
 256.384765625 711.081054688 256.384765625 711.081054688 269.939453125 671.66796875 c 132,-1,61
 283.494140625 632.255859375 283.494140625 632.255859375 316.1953125 606.42578125 c 132,-1,62
 348.899414062 580.594726562 348.899414062 580.594726562 390.376953125 576.537109375 c 132,-1,63
 431.854492188 572.479492188 431.854492188 572.479492188 470.953125 592.513671875 c 132,-1,64
 510.051757812 612.547851562 510.051757812 612.547851562 530.615234375 653.58984375 c 132,-1,65
 551.192382812 694.659179688 551.192382812 694.659179688 543.181640625 739.61328125 c 132,-1,66
 535.166015625 784.59375 535.166015625 784.59375 501.802734375 815.404296875 c 4,54,55
1394.63476562 789.560546875 m 4,67,68
 1331.67480469 870.927734375 1331.67480469 870.927734375 1241.66992188 843.296875 c 4,69,70
 1201.38769531 830.928710938 1201.38769531 830.928710938 1175.00390625 797.62109375 c 132,-1,71
 1148.64257812 764.341796875 1148.64257812 764.341796875 1145.34765625 721.654296875 c 132,-1,72
 1142.05566406 679.006835938 1142.05566406 679.006835938 1164.18945312 639.033203125 c 132,-1,73
 1186.32324219 599.060546875 1186.32324219 599.060546875 1230.31054688 579.251953125 c 132,-1,74
 1274.30078125 559.442382812 1274.30078125 559.442382812 1321.39257812 569.916015625 c 132,-1,75
 1368.48828125 580.389648438 1368.48828125 580.389648438 1399.38085938 616.331054688 c 132,-1,76
 1430.27441406 652.2734375 1430.27441406 652.2734375 1434.375 699.134765625 c 5,77,78
 1423.70703125 751.986328125 1423.70703125 751.986328125 1394.63476562 789.560546875 c 4,67,68
772.486328125 95.62109375 m 132,-1,80
 723.280273438 96.3359375 723.280273438 96.3359375 641.788085938 96.1201171875 c 132,-1,81
 560.294921875 95.9033203125 560.294921875 95.9033203125 478.163085938 71.3466796875 c 132,-1,82
 396.030273438 46.7900390625 396.030273438 46.7900390625 341.639648438 -6.642578125 c 132,-1,83
 287.248046875 -60.0751953125 287.248046875 -60.0751953125 281.286132812 -131.744140625 c 132,-1,84
 275.323242188 -203.413085938 275.323242188 -203.413085938 327.045898438 -267.051757812 c 4,85,86
 435.974609375 -401.079101562 435.974609375 -401.079101562 729.658203125 -400.54296875 c 4,87,88
 851.35546875 -400.3203125 851.35546875 -400.3203125 883.809570312 -400.451171875 c 132,-1,89
 916.264648438 -400.581054688 916.264648438 -400.581054688 929.76953125 -400.596679688 c 4,90,91
 1248.86621094 -400.98046875 1248.86621094 -400.98046875 1347.79589844 -285.776367188 c 4,92,93
 1407.96875 -215.703125 1407.96875 -215.703125 1405.55078125 -144.434570312 c 132,-1,94
 1403.13378906 -73.166015625 1403.13378906 -73.166015625 1349.28125 -16.86328125 c 4,95,96
 1255.59082031 81.091796875 1255.59082031 81.091796875 1069.33105469 91.36328125 c 4,97,98
 997.840820312 95.3056640625 997.840820312 95.3056640625 928.638671875 95.0029296875 c 132,-1,99
 859.4375 94.701171875 859.4375 94.701171875 840.564453125 94.8037109375 c 132,-1,79
 821.69140625 94.90625 821.69140625 94.90625 772.486328125 95.62109375 c 132,-1,80
EndSplineSet
EndChar

StartChar: ml_l
Encoding: 48 3340 48
Width: 1909
GlyphClass: 2
Flags: MW
LayerCount: 2
Back
Fore
SplineSet
898 71 m 1,0,1
 879 202 879 202 896 499 c 1,2,3
 895 517 895 517 878 577 c 0,4,5
 813 809 813 809 674 869 c 0,6,7
 588 905 588 905 491 857 c 0,8,9
 340 782 340 782 257 559 c 1,10,11
 371 631 371 631 472 599 c 0,12,13
 594 561 594 561 622 431 c 0,14,15
 635 369 635 369 623 295 c 0,16,17
 586 80 586 80 458 28 c 1,18,19
 344 -13 344 -13 243 73.5 c 128,-1,20
 142 160 142 160 113 300.5 c 128,-1,21
 84 441 84 441 116 546 c 0,22,23
 180 754 180 754 304.5 878.5 c 128,-1,24
 429 1003 429 1003 580 1014 c 128,-1,25
 731 1025 731 1025 854 897 c 0,26,27
 918 831 918 831 966 720 c 1,28,29
 1034 859 1034 859 1147 937 c 0,30,31
 1298 1042 1298 1042 1463 1006.5 c 128,-1,32
 1628 971 1628 971 1724.5 831.5 c 128,-1,33
 1821 692 1821 692 1809.5 510 c 128,-1,34
 1798 328 1798 328 1760 217 c 128,-1,35
 1722 106 1722 106 1646 51 c 0,36,37
 1596 14 1596 14 1536.5 13 c 128,-1,38
 1477 12 1477 12 1424 46 c 0,39,40
 1336 101 1336 101 1303 205 c 128,-1,41
 1270 309 1270 309 1302 388 c 0,42,43
 1363 537 1363 537 1460 583.5 c 128,-1,44
 1557 630 1557 630 1663 592 c 0,45,46
 1676 588 1676 588 1678 587 c 1,47,48
 1668 685 1668 685 1609 769.5 c 128,-1,49
 1550 854 1550 854 1438 878.5 c 128,-1,50
 1326 903 1326 903 1214 825 c 0,51,52
 1080 732 1080 732 1027 498 c 1,53,54
 1048 150 1048 150 1035 64 c 1,55,56
 1050 38 1050 38 1020 14 c 0,57,58
 1008 5 1008 5 987 -1 c 0,59,60
 905 -26 905 -26 897 41 c 1,61,-1
 898 71 l 1,0,1
1674 445 m 1,62,63
 1670 447 1670 447 1659 454 c 0,64,65
 1584 499 1584 499 1511 464 c 0,66,67
 1464 442 1464 442 1428 353 c 0,68,69
 1408 304 1408 304 1427 244.5 c 128,-1,70
 1446 185 1446 185 1482.5 162.5 c 128,-1,71
 1519 140 1519 140 1534 140.5 c 128,-1,72
 1549 141 1549 141 1577 161 c 128,-1,73
 1605 181 1605 181 1633.5 254 c 128,-1,74
 1662 327 1662 327 1674 445 c 1,62,63
231 437 m 1,75,76
 228 386 228 386 238 337 c 0,77,78
 260 230 260 230 318.5 180 c 128,-1,79
 377 130 377 130 409 149 c 1,80,81
 470 174 470 174 493.5 311.5 c 128,-1,82
 517 449 517 449 433 475 c 0,83,84
 382 491 382 491 309 437 c 0,85,86
 271 408 271 408 231 437 c 1,75,76
EndSplineSet
EndChar

StartChar: ml_e
Encoding: 49 3342 49
Width: 2420
GlyphClass: 2
Flags: MW
LayerCount: 2
Back
Fore
SplineSet
983 136 m 5,0,1
 967 464 967 464 1139 714 c 4,2,3
 1230 847 1230 847 1383.5 929 c 132,-1,4
 1537 1011 1537 1011 1709 1000 c 4,5,6
 1831 992 1831 992 1941.5 935.5 c 132,-1,7
 2052 879 2052 879 2133 788 c 4,8,9
 2294 607 2294 607 2316 371.5 c 132,-1,10
 2338 136 2338 136 2252 -63 c 132,-1,11
 2166 -262 2166 -262 1995 -395 c 4,12,13
 1976 -410 1976 -410 1954 -410.5 c 132,-1,14
 1932 -411 1932 -411 1916 -401 c 4,15,16
 1881 -381 1881 -381 1881 -343.5 c 132,-1,17
 1881 -306 1881 -306 1909 -285 c 4,18,19
 2052 -174 2052 -174 2123.5 -7.5 c 132,-1,20
 2195 159 2195 159 2177 353.5 c 132,-1,21
 2159 548 2159 548 2026 697.5 c 132,-1,22
 1893 847 1893 847 1680 861 c 4,23,24
 1568 868 1568 868 1447 803.5 c 132,-1,25
 1326 739 1326 739 1251 630 c 4,26,27
 1106 420 1106 420 1123 135 c 5,28,-1
 1664 130 l 5,29,-1
 1668 631 l 5,30,-1
 1668 632 l 6,31,32
 1668 661 1668 661 1688.5 681 c 132,-1,33
 1709 701 1709 701 1738 701.5 c 132,-1,34
 1767 702 1767 702 1787.5 681.5 c 132,-1,35
 1808 661 1808 661 1808 646 c 132,-1,36
 1808 631 1808 631 1808 630 c 6,37,-1
 1804 58 l 6,38,39
 1804 45 1804 45 1799 33 c 5,40,41
 1797 -49 1797 -49 1769 -126 c 4,42,43
 1723 -258 1723 -258 1614 -342 c 132,-1,44
 1505 -426 1505 -426 1366 -412 c 4,45,46
 1278 -403 1278 -403 1206 -353 c 4,47,48
 1044 -242 1044 -242 999 -4 c 5,49,-1
 578 -0 l 6,50,51
 549 0 549 0 528.5 20.5 c 132,-1,52
 508 41 508 41 508 65 c 4,53,54
 508 116 508 116 547 132 c 4,55,56
 624 166 624 166 660 238 c 132,-1,57
 696 310 696 310 677.5 388.5 c 132,-1,58
 659 467 659 467 594 515 c 132,-1,59
 529 563 529 563 449.5 558.5 c 132,-1,60
 370 554 370 554 312 500.5 c 132,-1,61
 254 447 254 447 242.5 368.5 c 132,-1,62
 231 290 231 290 272 222.5 c 132,-1,63
 313 155 313 155 388 128 c 4,64,65
 435 112 435 112 435 54 c 4,66,67
 435 33 435 33 414.5 12.5 c 132,-1,68
 394 -8 394 -8 373 -8 c 132,-1,69
 352 -8 352 -8 340 -4 c 4,70,71
 219 39 219 39 152.5 149.5 c 132,-1,72
 86 260 86 260 104 388 c 132,-1,73
 122 516 122 516 217 603.5 c 132,-1,74
 312 691 312 691 442 698.5 c 132,-1,75
 572 706 572 706 677.5 627.5 c 132,-1,76
 783 549 783 549 816.5 409 c 132,-1,77
 850 269 850 269 764 138 c 5,78,-1
 983 136 l 5,0,1
1142 -6 m 5,79,80
 1179 -166 1179 -166 1272.5 -230 c 132,-1,81
 1366 -294 1366 -294 1461 -264 c 4,82,83
 1586 -225 1586 -225 1637 -80 c 4,84,85
 1649 -46 1649 -46 1654 -10 c 5,86,-1
 1142 -6 l 5,79,80
EndSplineSet
EndChar

StartChar: ml_ee
Encoding: 50 3343 50
Width: 2444
GlyphClass: 2
Flags: MW
LayerCount: 2
Back
Fore
SplineSet
975.9921875 139.80859375 m 5,0,1
 963.881835938 470.701171875 963.881835938 470.701171875 1149.80859375 723.698242188 c 4,2,3
 1246.39941406 855.134765625 1246.39941406 855.134765625 1400.25683594 936.084960938 c 132,-1,4
 1554.11425781 1017.03613281 1554.11425781 1017.03613281 1736.45019531 1011.89746094 c 132,-1,5
 1918.78613281 1006.75878906 1918.78613281 1006.75878906 2057.44140625 896.63671875 c 4,6,7
 2130.98242188 838.229492188 2130.98242188 838.229492188 2176.74023438 755.897460938 c 4,8,9
 2249.26367188 625.407226562 2249.26367188 625.407226562 2226.76074219 500.416015625 c 132,-1,10
 2204.25878906 375.424804688 2204.25878906 375.424804688 2136.5078125 305.7421875 c 4,11,12
 2135.67773438 304.888671875 2135.67773438 304.888671875 2139.13183594 302.904296875 c 132,-1,13
 2142.58691406 300.918945312 2142.58691406 300.918945312 2147.6484375 298.181640625 c 4,14,15
 2265.85839844 234.247070312 2265.85839844 234.247070312 2316.8359375 109.8984375 c 4,16,17
 2351.17871094 26.77734375 2351.17871094 26.77734375 2343.16308594 -64.5830078125 c 132,-1,18
 2335.14648438 -155.943359375 2335.14648438 -155.943359375 2292.06054688 -222.897460938 c 4,19,20
 2208.64648438 -352.51953125 2208.64648438 -352.51953125 2069.72460938 -388.337890625 c 132,-1,21
 1930.80273438 -424.15625 1930.80273438 -424.15625 1804.51171875 -356.08984375 c 4,22,23
 1766.84570312 -336.469726562 1766.84570312 -336.469726562 1766.84570312 -288.30078125 c 4,24,25
 1766.84570312 -265.018554688 1766.84570312 -265.018554688 1787.35742188 -244.505859375 c 132,-1,26
 1807.87011719 -223.994140625 1807.87011719 -223.994140625 1831.45703125 -223.994140625 c 132,-1,27
 1855.04492188 -223.994140625 1855.04492188 -223.994140625 1870.93359375 -232.849609375 c 4,28,29
 1948.95117188 -274.897460938 1948.95117188 -274.897460938 2034.77148438 -252.771484375 c 132,-1,30
 2120.59375 -230.64453125 2120.59375 -230.64453125 2168.5546875 -156.115234375 c 4,31,32
 2233.36914062 -55.39453125 2233.36914062 -55.39453125 2181.66503906 70.599609375 c 4,33,34
 2155.28417969 134.88671875 2155.28417969 134.88671875 2087.55175781 171.520507812 c 132,-1,35
 2019.81933594 208.154296875 2019.81933594 208.154296875 1971.86328125 203.071289062 c 132,-1,36
 1923.90820312 197.98828125 1923.90820312 197.98828125 1902.875 197.98828125 c 132,-1,37
 1881.84082031 197.98828125 1881.84082031 197.98828125 1861.328125 218.5 c 132,-1,38
 1840.81640625 239.012695312 1840.81640625 239.012695312 1840.81640625 265.450195312 c 132,-1,39
 1840.81640625 291.888671875 1840.81640625 291.888671875 1857.41503906 312.0234375 c 132,-1,40
 1874.01464844 332.159179688 1874.01464844 332.159179688 1893.06640625 335.84765625 c 132,-1,41
 1912.11816406 339.536132812 1912.11816406 339.536132812 1927.80273438 341.236328125 c 4,42,43
 1991.77441406 354.620117188 1991.77441406 354.620117188 2027.58105469 393.991210938 c 4,44,45
 2128.25 504.6796875 2128.25 504.6796875 2070.90820312 651.344726562 c 4,46,47
 2039.2578125 732.296875 2039.2578125 732.296875 1970.37109375 787.0078125 c 4,48,49
 1868.23046875 868.129882812 1868.23046875 868.129882812 1727.53808594 872.094726562 c 132,-1,50
 1586.84472656 876.059570312 1586.84472656 876.059570312 1463.48046875 811.15234375 c 132,-1,51
 1340.1171875 746.245117188 1340.1171875 746.245117188 1260.453125 637.842773438 c 4,52,53
 1104.15625 425.162109375 1104.15625 425.162109375 1116.12304688 139.482421875 c 5,54,-1
 1656.1796875 138.224609375 l 5,55,-1
 1660.31054688 640.38671875 l 5,56,-1
 1660.30957031 640.801757812 l 6,57,58
 1660.30957031 680.896484375 1660.30957031 680.896484375 1700.89746094 704.759765625 c 132,-1,59
 1741.484375 728.624023438 1741.484375 728.624023438 1779.8125 690.296875 c 4,60,61
 1800.32421875 669.784179688 1800.32421875 669.784179688 1800.32421875 654.8984375 c 132,-1,62
 1800.32421875 640.012695312 1800.32421875 640.012695312 1800.30664062 639.234375 c 6,63,-1
 1795.6015625 67.486328125 l 6,64,65
 1795.48632812 54.4521484375 1795.48632812 54.4521484375 1790.68945312 42.3359375 c 5,66,67
 1788.3828125 -39.9619140625 1788.3828125 -39.9619140625 1761.0234375 -117.31640625 c 4,68,69
 1714.59570312 -248.583007812 1714.59570312 -248.583007812 1605.63085938 -332.51171875 c 132,-1,70
 1496.66503906 -416.439453125 1496.66503906 -416.439453125 1358.79492188 -403.083984375 c 4,71,72
 1270.66699219 -394.545898438 1270.66699219 -394.545898438 1197.37597656 -344.909179688 c 4,73,74
 1034.41113281 -234.540039062 1034.41113281 -234.540039062 990.98828125 -0.228515625 c 5,75,-1
 570.220703125 0.751953125 l 6,76,77
 541.321289062 0.8349609375 541.321289062 0.8349609375 520.869140625 21.34765625 c 132,-1,78
 500.416992188 41.859375 500.416992188 41.859375 500.416992188 66.2294921875 c 132,-1,79
 500.416992188 90.6005859375 500.416992188 90.6005859375 513.5078125 109.72265625 c 132,-1,80
 526.598632812 128.844726562 526.598632812 128.844726562 554.306640625 139.5859375 c 132,-1,81
 582.015625 150.327148438 582.015625 150.327148438 612.94140625 177.881835938 c 132,-1,82
 643.866210938 205.436523438 643.866210938 205.436523438 662.318359375 240.46875 c 4,83,84
 701.3828125 314.633789062 701.3828125 314.633789062 682.146484375 396.216796875 c 132,-1,85
 662.91015625 477.801757812 662.91015625 477.801757812 594.830078125 526.701171875 c 132,-1,86
 526.749023438 575.6015625 526.749023438 575.6015625 446.350585938 568.065429688 c 132,-1,87
 365.952148438 560.529296875 365.952148438 560.529296875 309.712890625 506.9375 c 132,-1,88
 253.474609375 453.345703125 253.474609375 453.345703125 242.5078125 376.439453125 c 132,-1,89
 231.541015625 299.53125 231.541015625 299.53125 270.55859375 232.357421875 c 132,-1,90
 309.577148438 165.182617188 309.577148438 165.182617188 381.8125 136.603515625 c 4,91,92
 427 119.469726562 427 119.469726562 427 63.212890625 c 4,93,94
 427 42.1611328125 427 42.1611328125 406.48828125 21.6484375 c 132,-1,95
 385.975585938 1.13671875 385.975585938 1.13671875 364.552734375 1.13671875 c 132,-1,96
 343.129882812 1.13671875 343.129882812 1.13671875 330.30859375 6.421875 c 4,97,98
 212.91015625 52.869140625 212.91015625 52.869140625 149.498046875 162.041015625 c 132,-1,99
 86.087890625 271.2109375 86.087890625 271.2109375 103.91015625 396.201171875 c 132,-1,100
 121.732421875 521.188476562 121.732421875 521.188476562 213.130859375 608.287109375 c 132,-1,101
 304.528320312 695.384765625 304.528320312 695.384765625 435.1953125 707.6328125 c 132,-1,102
 565.862304688 719.881835938 565.862304688 719.881835938 676.50390625 640.41015625 c 132,-1,103
 787.147460938 560.936523438 787.147460938 560.936523438 821.143554688 416.751953125 c 132,-1,104
 855.139648438 272.567382812 855.139648438 272.567382812 765.080078125 140.298828125 c 5,105,-1
 975.9921875 139.80859375 l 5,0,1
1134.15234375 -0.560546875 m 5,106,107
 1170.42480469 -157.569335938 1170.42480469 -157.569335938 1264.01757812 -220.958007812 c 132,-1,108
 1357.61132812 -284.345703125 1357.61132812 -284.345703125 1452.72753906 -254.677734375 c 4,109,110
 1577.734375 -215.685546875 1577.734375 -215.685546875 1629.03710938 -70.634765625 c 4,111,112
 1640.84179688 -37.2607421875 1640.84179688 -37.2607421875 1646.33398438 -1.75390625 c 5,113,-1
 1134.15234375 -0.560546875 l 5,106,107
EndSplineSet
EndChar

StartChar: ml_n
Encoding: 52 3346 52
Width: 1358
GlyphClass: 2
Flags: MW
LayerCount: 2
Back
Fore
SplineSet
473 966 m 4,0,1
 754 1082 754 1082 1034 955 c 4,2,3
 1203 878 1203 878 1246 734 c 4,4,5
 1271 659 1271 659 1246.5 584 c 132,-1,6
 1222 509 1222 509 1160 461 c 5,7,8
 1264 376 1264 376 1256 250 c 4,9,10
 1250 152 1250 152 1177 86 c 4,11,12
 1069 -18 1069 -18 916 3 c 4,13,14
 846 12 846 12 798.5 40.5 c 132,-1,15
 751 69 751 69 751 98.5 c 132,-1,16
 751 128 751 128 765.5 153.5 c 132,-1,17
 780 179 780 179 810.5 179 c 132,-1,18
 841 179 841 179 858 169 c 4,19,20
 908 138 908 138 974 143 c 132,-1,21
 1040 148 1040 148 1081 187 c 4,22,23
 1082 188 1082 188 1083 189 c 4,24,25
 1111 214 1111 214 1114 258.5 c 132,-1,26
 1117 303 1117 303 1093 331 c 4,27,28
 1092 332 1092 332 1091 333 c 4,29,30
 1050 385 1050 385 934 394 c 4,31,32
 910 394 910 394 886.5 396 c 132,-1,33
 863 398 863 398 844.5 418.5 c 132,-1,34
 826 439 826 439 826 466.5 c 132,-1,35
 826 494 826 494 846.5 514.5 c 132,-1,36
 867 535 867 535 894 535 c 132,-1,37
 921 535 921 535 964.5 535 c 132,-1,38
 1008 535 1008 535 1030 546.5 c 132,-1,39
 1052 558 1052 558 1054 559 c 4,40,41
 1089 576 1089 576 1107 615.5 c 132,-1,42
 1125 655 1125 655 1113 691 c 4,43,44
 1113 692 1113 692 1113 693 c 4,45,46
 1080 804 1080 804 902 854 c 4,47,48
 901 854 901 854 901 855 c 4,49,50
 698 912 698 912 517 831 c 4,51,52
 424 790 424 790 359 720 c 4,53,54
 359 719 359 719 358 719 c 4,55,56
 267 624 267 624 247 487 c 5,57,58
 342 570 342 570 461 556 c 132,-1,59
 580 542 580 542 652 452 c 4,60,61
 688 407 688 407 704 348 c 4,62,63
 735 236 735 236 672 131 c 132,-1,64
 609 26 609 26 496.5 4 c 132,-1,65
 384 -18 384 -18 291 39 c 132,-1,66
 198 96 198 96 154 193 c 4,67,68
 79 350 79 350 109 520.5 c 132,-1,69
 139 691 139 691 257 815 c 4,70,71
 347 914 347 914 473 966 c 4,0,1
1116 433 m 5,72,-1
 1115 433 l 5,73,-1
 1116 433 l 5,72,-1
567 314 m 4,74,75
 557 356 557 356 504.5 394.5 c 132,-1,76
 452 433 452 433 390 410 c 4,77,78
 388 409 388 409 386 409 c 4,79,80
 334 393 334 393 307 334.5 c 132,-1,81
 280 276 280 276 302 226 c 4,82,83
 305 219 305 219 306 211 c 4,84,85
 336 173 336 173 378.5 153 c 132,-1,86
 421 133 421 133 461 142 c 4,87,88
 463 142 463 142 464 142 c 4,89,90
 516 151 516 151 549.5 205 c 132,-1,91
 583 259 583 259 568 310 c 4,92,93
 567 312 567 312 567 314 c 4,74,75
EndSplineSet
EndChar

StartChar: k1
Encoding: 55 3349 55
Width: 1924
GlyphClass: 2
Flags: MW
LayerCount: 2
Back
Fore
SplineSet
796.102539062 946.40625 m 0,0,1
 970.868164062 1039.59472656 970.868164062 1039.59472656 1147.31738281 949.748046875 c 0,2,3
 1226.49609375 909.430664062 1226.49609375 909.430664062 1291.99804688 829.170898438 c 128,-1,4
 1357.5 748.911132812 1357.5 748.911132812 1386.21191406 627.74609375 c 1,5,6
 1619.88671875 609.548828125 1619.88671875 609.548828125 1738.18847656 481.107421875 c 0,7,8
 1815.94335938 396.6875 1815.94335938 396.6875 1823.19921875 304.959960938 c 128,-1,9
 1830.45507812 213.231445312 1830.45507812 213.231445312 1796.81542969 143.29296875 c 128,-1,10
 1763.17480469 73.3515625 1763.17480469 73.3515625 1698.90917969 29.8359375 c 128,-1,11
 1634.64453125 -13.6796875 1634.64453125 -13.6796875 1557.21191406 -18.94921875 c 128,-1,12
 1479.78027344 -24.21875 1479.78027344 -24.21875 1410.21191406 10.189453125 c 0,13,14
 1370.38476562 29.21875 1370.38476562 29.21875 1370.38476562 78.7119140625 c 0,15,16
 1370.38476562 102.33984375 1370.38476562 102.33984375 1390.89648438 122.852539062 c 128,-1,17
 1411.40917969 143.364257812 1411.40917969 143.364257812 1434.3359375 143.364257812 c 128,-1,18
 1457.26367188 143.364257812 1457.26367188 143.364257812 1482.61914062 130.6953125 c 128,-1,19
 1507.97460938 118.025390625 1507.97460938 118.025390625 1547.70605469 120.728515625 c 128,-1,20
 1587.44042969 123.43359375 1587.44042969 123.43359375 1620.41308594 145.759765625 c 0,21,22
 1691.54589844 193.926757812 1691.54589844 193.926757812 1684.77050781 279.564453125 c 0,23,24
 1680.19335938 337.424804688 1680.19335938 337.424804688 1636.62011719 384.733398438 c 0,25,26
 1560.72851562 467.129882812 1560.72851562 467.129882812 1403.07128906 484.873046875 c 1,27,28
 1404.32714844 294.5078125 1404.32714844 294.5078125 1304.31738281 156.966796875 c 0,29,30
 1243.39746094 73.1875 1243.39746094 73.1875 1152.65527344 24.8974609375 c 128,-1,31
 1061.91210938 -23.392578125 1061.91210938 -23.392578125 961.34765625 -19.71875 c 0,32,33
 787.533203125 -13.369140625 787.533203125 -13.369140625 667.782226562 126.609375 c 1,34,35
 604.865234375 23.03125 604.865234375 23.03125 488.161132812 -10.4951171875 c 0,36,37
 419.103515625 -30.3330078125 419.103515625 -30.3330078125 348.762695312 -18.0234375 c 0,38,39
 195.711914062 8.76171875 195.711914062 8.76171875 129.0234375 145.764648438 c 0,40,41
 89.7119140625 226.524414062 89.7119140625 226.524414062 103.646484375 320.338867188 c 128,-1,42
 117.58203125 414.153320312 117.58203125 414.153320312 188.8359375 484.646484375 c 0,43,44
 318.477539062 612.904296875 318.477539062 612.904296875 563.625976562 626.0078125 c 1,45,46
 591.677734375 745.594726562 591.677734375 745.594726562 655.283203125 825.415039062 c 128,-1,47
 718.889648438 905.235351562 718.889648438 905.235351562 796.102539062 946.40625 c 0,0,1
709.780273438 628.765625 m 1,48,-1
 1219.35449219 631.447265625 l 2,49,50
 1222.83886719 631.465820312 1222.83886719 631.465820312 1229.61914062 631.494140625 c 128,-1,51
 1236.39941406 631.5234375 1236.39941406 631.5234375 1239.57324219 631.5390625 c 1,52,53
 1194.26171875 768.73828125 1194.26171875 768.73828125 1083.31152344 825.234375 c 128,-1,54
 972.362304688 881.731445312 972.362304688 881.731445312 863.09765625 823.469726562 c 128,-1,55
 753.833007812 765.208007812 753.833007812 765.208007812 709.780273438 628.765625 c 1,48,-1
1261.37011719 491.53125 m 0,56,57
 1244.51464844 491.578125 1244.51464844 491.578125 1220.09277344 491.44921875 c 2,58,-1
 694.434570312 488.68359375 l 2,59,60
 693.111328125 488.676757812 693.111328125 488.676757812 690.610351562 488.654296875 c 128,-1,61
 688.109375 488.631835938 688.109375 488.631835938 686.932617188 488.625 c 0,62,63
 684.254882812 346.909179688 684.254882812 346.909179688 751.778320312 246.873046875 c 0,64,65
 834.021484375 125.026367188 834.021484375 125.026367188 964.465820312 120.259765625 c 0,66,67
 1029.38476562 117.888671875 1029.38476562 117.888671875 1089.26464844 149.75390625 c 128,-1,68
 1149.14453125 181.619140625 1149.14453125 181.619140625 1191.08691406 239.30078125 c 0,69,70
 1266.03808594 342.379882812 1266.03808594 342.379882812 1263.03613281 491.513671875 c 1,71,-1
 1261.37011719 491.53125 l 0,56,57
546.874023438 484.154296875 m 1,72,73
 373.631835938 470.534179688 373.631835938 470.534179688 294.13671875 391.888671875 c 0,74,75
 249.2421875 347.473632812 249.2421875 347.473632812 240.709960938 289.795898438 c 128,-1,76
 232.177734375 232.118164062 232.177734375 232.118164062 270.505859375 181.60546875 c 128,-1,77
 308.833007812 131.092773438 308.833007812 131.092773438 359.435546875 122.237304688 c 0,78,79
 489.458984375 99.4814453125 489.458984375 99.4814453125 548.495117188 200.696289062 c 0,80,81
 576.328125 248.4140625 576.328125 248.4140625 572.83203125 299.794921875 c 0,82,83
 572.79296875 300.491210938 572.79296875 300.491210938 572.766601562 301.197265625 c 0,84,85
 545.991210938 387.609375 545.991210938 387.609375 546.874023438 484.154296875 c 1,72,73
EndSplineSet
EndChar

StartChar: k2
Encoding: 56 3350 56
Width: 1761
GlyphClass: 2
Flags: MW
LayerCount: 2
Back
Fore
SplineSet
1541.96386719 1008.93847656 m 128,-1,1
 1562.42578125 1029.45019531 1562.42578125 1029.45019531 1591.45703125 1029.48535156 c 128,-1,2
 1620.48828125 1029.52050781 1620.48828125 1029.52050781 1641.00097656 1009.00878906 c 128,-1,3
 1661.51269531 988.49609375 1661.51269531 988.49609375 1661.51269531 973.547851562 c 128,-1,4
 1661.51269531 958.598632812 1661.51269531 958.598632812 1661.48730469 957.637695312 c 2,5,-1
 1650.01464844 50.5068359375 l 2,6,7
 1649.65039062 21.892578125 1649.65039062 21.892578125 1629.13964844 1.6416015625 c 128,-1,8
 1608.62890625 -18.609375 1608.62890625 -18.609375 1580.01269531 -18.609375 c 0,9,-1
 908.534179688 -16.4013671875 l 2,10,11
 879.668945312 -16.2841796875 879.668945312 -16.2841796875 859.240234375 4.2275390625 c 128,-1,12
 838.811523438 24.7392578125 838.811523438 24.7392578125 838.811523438 50.05078125 c 128,-1,13
 838.811523438 75.361328125 838.811523438 75.361328125 853.59765625 95.05859375 c 128,-1,14
 868.383789062 114.754882812 868.383789062 114.754882812 908.16015625 126.29296875 c 128,-1,15
 947.936523438 137.831054688 947.936523438 137.831054688 999.025390625 175.022460938 c 128,-1,16
 1050.11425781 212.213867188 1050.11425781 212.213867188 1084.31738281 262.813476562 c 0,17,18
 1156.15234375 369.083984375 1156.15234375 369.083984375 1142.87011719 501.669921875 c 128,-1,19
 1129.58789062 634.255859375 1129.58789062 634.255859375 1026.41601562 731.038085938 c 128,-1,20
 923.245117188 827.8203125 923.245117188 827.8203125 768.4765625 844.55859375 c 128,-1,21
 613.708984375 861.296875 613.708984375 861.296875 473.860351562 770.536132812 c 128,-1,22
 334.012695312 679.775390625 334.012695312 679.775390625 272.790039062 523.206054688 c 1,23,24
 376.7109375 586.122070312 376.7109375 586.122070312 498.10546875 558.3046875 c 128,-1,25
 619.5 530.487304688 619.5 530.487304688 685.184570312 420.927734375 c 0,26,27
 716.71875 368.331054688 716.71875 368.331054688 726.990234375 294.021484375 c 128,-1,28
 737.260742188 219.712890625 737.260742188 219.712890625 698.778320312 139.424804688 c 128,-1,29
 660.295898438 59.1376953125 660.295898438 59.1376953125 594.041992188 22.2509765625 c 0,30,31
 468.068359375 -47.88671875 468.068359375 -47.88671875 349.21484375 -6.5849609375 c 128,-1,32
 230.361328125 34.7158203125 230.361328125 34.7158203125 167.327148438 135.424804688 c 0,33,34
 48.4912109375 325.288085938 48.4912109375 325.288085938 139.407226562 566.627929688 c 0,35,36
 216.067382812 770.129882812 216.067382812 770.129882812 397.662109375 887.984375 c 128,-1,37
 579.256835938 1005.83886719 579.256835938 1005.83886719 782.0625 983.905273438 c 128,-1,38
 984.868164062 961.971679688 984.868164062 961.971679688 1124.26367188 831.208984375 c 128,-1,39
 1263.65917969 700.447265625 1263.65917969 700.447265625 1282.67089844 510.676757812 c 0,40,41
 1305.12304688 286.561523438 1305.12304688 286.561523438 1150.83691406 122.801757812 c 1,42,-1
 1510.90527344 121.618164062 l 1,43,-1
 1521.50097656 959.409179688 l 1,44,-1
 1521.50097656 959.513671875 l 2,45,0
 1521.50097656 988.426757812 1521.50097656 988.426757812 1541.96386719 1008.93847656 c 128,-1,1
521.954101562 396.133789062 m 0,46,47
 444.709960938 452.213867188 444.709960938 452.213867188 359.547851562 410.874023438 c 0,48,49
 318.6953125 391.04296875 318.6953125 391.04296875 288.521484375 345.768554688 c 128,-1,50
 258.34765625 300.495117188 258.34765625 300.495117188 271.409179688 235.090820312 c 1,51,52
 311.959960938 154.881835938 311.959960938 154.881835938 384.1640625 130.359375 c 128,-1,53
 456.368164062 105.8359375 456.368164062 105.8359375 504.830078125 132.817382812 c 0,54,55
 600.573242188 186.123046875 600.573242188 186.123046875 586.403320312 288.633789062 c 0,56,57
 577.076171875 356.112304688 577.076171875 356.112304688 521.954101562 396.133789062 c 0,46,47
EndSplineSet
EndChar

StartChar: k3
Encoding: 57 3351 57
Width: 1860
GlyphClass: 2
Flags: MW
LayerCount: 2
Back
Fore
SplineSet
1246.33984375 980.38671875 m 0,0,1
 1356.10058594 1006.34863281 1356.10058594 1006.34863281 1462.66308594 969.036132812 c 128,-1,2
 1569.22558594 931.723632812 1569.22558594 931.723632812 1641.66894531 849.08984375 c 128,-1,3
 1714.11328125 766.456054688 1714.11328125 766.456054688 1742.1875 661.493164062 c 128,-1,4
 1770.26171875 556.529296875 1770.26171875 556.529296875 1755.546875 454.99609375 c 0,5,6
 1725.89746094 250.404296875 1725.89746094 250.404296875 1572.265625 112.684570312 c 128,-1,7
 1418.6328125 -25.0361328125 1418.6328125 -25.0361328125 1222.23242188 -25.0361328125 c 0,8,9
 1193.25 -25.0361328125 1193.25 -25.0361328125 1172.73730469 -4.5234375 c 128,-1,10
 1152.22558594 15.98828125 1152.22558594 15.98828125 1152.22558594 44.6689453125 c 128,-1,11
 1152.22558594 73.3505859375 1152.22558594 73.3505859375 1172.30566406 93.857421875 c 128,-1,12
 1192.38574219 114.365234375 1192.38574219 114.365234375 1242.34472656 115.909179688 c 128,-1,13
 1292.3046875 117.454101562 1292.3046875 117.454101562 1360.88085938 145.068359375 c 128,-1,14
 1429.45605469 172.682617188 1429.45605469 172.682617188 1482.76367188 220.46875 c 0,15,16
 1594.62988281 320.749023438 1594.62988281 320.749023438 1616.53125 480.581054688 c 128,-1,17
 1638.43164062 640.412109375 1638.43164062 640.412109375 1533.55957031 760.03515625 c 128,-1,18
 1428.6875 879.659179688 1428.6875 879.659179688 1260.28417969 839.823242188 c 128,-1,19
 1091.88085938 799.986328125 1091.88085938 799.986328125 984.706054688 469.932617188 c 0,20,21
 931.171875 305.071289062 931.171875 305.071289062 898.25390625 239.025390625 c 0,22,23
 817.266601562 76.533203125 817.266601562 76.533203125 695.6796875 17.50390625 c 128,-1,24
 574.092773438 -41.5244140625 574.092773438 -41.5244140625 451.504882812 -17.4111328125 c 128,-1,25
 328.91796875 6.7021484375 328.91796875 6.7021484375 241.850585938 91.6650390625 c 128,-1,26
 154.783203125 176.626953125 154.783203125 176.626953125 121.359375 290.307617188 c 128,-1,27
 87.935546875 403.98828125 87.935546875 403.98828125 106.814453125 522.142578125 c 0,28,29
 135.227539062 699.9609375 135.227539062 699.9609375 262.609375 827.248046875 c 128,-1,30
 389.9921875 954.533203125 389.9921875 954.533203125 567.833984375 982.810546875 c 0,31,32
 573.762695312 983.837890625 573.762695312 983.837890625 591.264648438 983.837890625 c 128,-1,33
 608.767578125 983.837890625 608.767578125 983.837890625 629.279296875 963.326171875 c 128,-1,34
 649.791992188 942.813476562 649.791992188 942.813476562 649.791992188 915.778320312 c 128,-1,35
 649.791992188 888.743164062 649.791992188 888.743164062 632.219726562 868.442382812 c 128,-1,36
 614.647460938 848.142578125 614.647460938 848.142578125 589.818359375 844.546875 c 0,37,38
 456.825195312 823.400390625 456.825195312 823.400390625 361.56640625 728.21484375 c 128,-1,39
 266.30859375 633.028320312 266.30859375 633.028320312 245.060546875 500.052734375 c 0,40,41
 231.172851562 413.1328125 231.172851562 413.1328125 254.971679688 332.189453125 c 128,-1,42
 278.770507812 251.247070312 278.770507812 251.247070312 337.809570312 193.634765625 c 128,-1,43
 396.849609375 136.022460938 396.849609375 136.022460938 475.982421875 120.456054688 c 128,-1,44
 555.115234375 104.889648438 555.115234375 104.889648438 634.17578125 143.272460938 c 0,45,46
 735.159179688 192.298828125 735.159179688 192.298828125 802.72265625 369.502929688 c 0,47,48
 816.193359375 404.833007812 816.193359375 404.833007812 836.575195312 467.172851562 c 128,-1,49
 856.958007812 529.512695312 856.958007812 529.512695312 862.501953125 545.626953125 c 0,50,51
 991.334960938 920.063476562 991.334960938 920.063476562 1246.33984375 980.38671875 c 0,0,1
EndSplineSet
EndChar

StartChar: k4
Encoding: 58 3352 58
Width: 2469
GlyphClass: 2
Flags: MW
LayerCount: 2
Back
Fore
SplineSet
1132.29492188 854.580078125 m 4,0,1
 1264.20214844 1005.68847656 1264.20214844 1005.68847656 1487.15820312 995.66015625 c 132,-1,2
 1710.11425781 985.6328125 1710.11425781 985.6328125 1826.38476562 838.94140625 c 4,3,4
 1885.09570312 764.8671875 1885.09570312 764.8671875 1901.84667969 683.779296875 c 132,-1,5
 1918.59765625 602.69140625 1918.59765625 602.69140625 1916.69335938 491.603515625 c 6,6,-1
 1913.57226562 309.48828125 l 6,7,8
 1912.79101562 264.205078125 1912.79101562 264.205078125 1870.80859375 246.2421875 c 4,9,10
 1858.05078125 240.782226562 1858.05078125 240.782226562 1844.04101562 240.689453125 c 6,11,-1
 1165.15039062 236.23828125 l 5,12,-1
 1164.91210938 125.72265625 l 5,13,-1
 2228.3046875 125.72265625 l 5,14,-1
 2229.1171875 919.955078125 l 6,15,16
 2228.73339844 949.240234375 2228.73339844 949.240234375 2249.31835938 970.07421875 c 132,-1,17
 2269.90234375 990.908203125 2269.90234375 990.908203125 2299.18945312 990.877929688 c 132,-1,18
 2328.4765625 990.84765625 2328.4765625 990.84765625 2349.01855469 969.97265625 c 132,-1,19
 2369.55957031 949.096679688 2369.55957031 949.096679688 2369.1171875 919.8125 c 6,20,-1
 2368.23242188 55.65234375 l 6,21,22
 2368.20019531 26.6787109375 2368.20019531 26.6787109375 2347.70214844 6.2021484375 c 132,-1,23
 2327.20507812 -14.2744140625 2327.20507812 -14.2744140625 2298.23242188 -14.27734375 c 6,24,-1
 1094.76171875 -14.27734375 l 6,25,26
 1065.72363281 -14.2744140625 1065.72363281 -14.2744140625 1045.21289062 6.2802734375 c 132,-1,27
 1024.70214844 26.8349609375 1024.70214844 26.8349609375 1024.76171875 55.873046875 c 6,28,-1
 1025.1484375 235.3203125 l 5,29,-1
 560.451171875 231.802734375 l 6,30,31
 534.755859375 231.649414062 534.755859375 231.649414062 507.036132812 254.8828125 c 132,-1,32
 479.31640625 278.1171875 479.31640625 278.1171875 491.465820312 317.236328125 c 132,-1,33
 503.614257812 356.356445312 503.614257812 356.356445312 539.876953125 368.901367188 c 4,34,35
 620.163085938 396.67578125 620.163085938 396.67578125 661.498046875 474.173828125 c 132,-1,36
 702.83984375 551.686523438 702.83984375 551.686523438 680.421875 636.62890625 c 132,-1,37
 658.002929688 721.571289062 658.002929688 721.571289062 583.794921875 768.5859375 c 132,-1,38
 509.583984375 815.6015625 509.583984375 815.6015625 430.17578125 800.881835938 c 132,-1,39
 350.766601562 786.162109375 350.766601562 786.162109375 300.466796875 732.3359375 c 132,-1,40
 250.166015625 678.509765625 250.166015625 678.509765625 241.66796875 605.328125 c 132,-1,41
 233.169921875 532.149414062 233.169921875 532.149414062 269.798828125 468.2265625 c 132,-1,42
 306.426757812 404.305664062 306.426757812 404.305664062 373.859375 374.634765625 c 4,43,44
 400.828125 363.217773438 400.828125 363.217773438 411.634765625 335.998046875 c 132,-1,45
 422.440429688 308.778320312 422.440429688 308.778320312 410.646484375 281.97265625 c 132,-1,46
 398.8515625 255.166992188 398.8515625 255.166992188 371.482421875 244.743164062 c 132,-1,47
 344.114257812 234.3203125 344.114257812 234.3203125 317.4765625 246.490234375 c 4,48,49
 207.865234375 294.71875 207.865234375 294.71875 148.328125 398.62109375 c 132,-1,50
 88.7880859375 502.528320312 88.7880859375 502.528320312 102.6015625 621.478515625 c 132,-1,51
 116.415039062 740.428710938 116.415039062 740.428710938 198.1796875 827.923828125 c 132,-1,52
 279.9453125 915.419921875 279.9453125 915.419921875 409.020507812 939.346679688 c 132,-1,53
 538.095703125 963.2734375 538.095703125 963.2734375 658.720703125 886.849609375 c 132,-1,54
 779.34765625 810.423828125 779.34765625 810.423828125 818.901367188 660.557617188 c 132,-1,55
 858.454101562 510.690429688 858.454101562 510.690429688 763.498046875 373.138671875 c 5,56,-1
 1025.44921875 375.326171875 l 5,57,-1
 1025.6953125 489.85546875 l 5,58,59
 1024.01269531 599.698242188 1024.01269531 599.698242188 1045.17089844 689.356445312 c 132,-1,60
 1066.33007812 779.014648438 1066.33007812 779.014648438 1132.29492188 854.580078125 c 4,0,1
1716.66796875 751.978515625 m 4,61,62
 1640.05566406 848.638671875 1640.05566406 848.638671875 1482.68066406 855.717773438 c 132,-1,63
 1325.30566406 862.796875 1325.30566406 862.796875 1237.76171875 762.51171875 c 4,64,65
 1194.61816406 713.08984375 1194.61816406 713.08984375 1180.265625 652.268554688 c 132,-1,66
 1165.91210938 591.447265625 1165.91210938 591.447265625 1165.69335938 489.5546875 c 6,67,-1
 1165.44921875 376.244140625 l 5,68,-1
 1774.76367188 380.23828125 l 5,69,-1
 1776.71484375 494.00390625 l 6,70,71
 1778.35449219 589.561523438 1778.35449219 589.561523438 1766.53710938 646.765625 c 132,-1,72
 1754.71972656 703.969726562 1754.71972656 703.969726562 1716.66796875 751.978515625 c 4,61,62
EndSplineSet
EndChar

StartChar: ng
Encoding: 59 3353 59
Width: 1734
GlyphClass: 2
Flags: MW
AnchorPoint: "dotreph" 833.882 1195.02 basechar 0
LayerCount: 2
Back
Fore
SplineSet
248 640 m 1,0,1
 323 665 323 665 383 638 c 0,2,3
 571 558 571 558 564 290 c 0,4,5
 564 287 564 287 564 284 c 0,6,7
 543 101 543 101 452 22 c 0,8,9
 407 -17 407 -17 352 -19.5 c 128,-1,10
 297 -22 297 -22 245 18 c 0,11,12
 103 126 103 126 100 512 c 0,13,14
 100 520 100 520 105 560 c 0,15,16
 144 888 144 888 288 1001 c 0,17,18
 351 1051 351 1051 427.5 1053 c 128,-1,19
 504 1055 504 1055 575 1011 c 1,20,21
 737 914 737 914 833 655 c 1,22,23
 932 894 932 894 1108 991 c 0,24,25
 1252 1070 1252 1070 1379 1011 c 0,26,27
 1521 944 1521 944 1528 723 c 0,28,29
 1530 668 1530 668 1500.5 610.5 c 128,-1,30
 1471 553 1471 553 1430 517 c 1,31,32
 1506 489 1506 489 1555 440 c 0,33,34
 1654 342 1654 342 1630 222 c 128,-1,35
 1606 102 1606 102 1495 40 c 0,36,37
 1339 -47 1339 -47 1117 29 c 0,38,39
 1092 38 1092 38 1080 62 c 128,-1,40
 1068 86 1068 86 1076.5 111 c 128,-1,41
 1085 136 1085 136 1109.5 148 c 128,-1,42
 1134 160 1134 160 1149 155 c 0,43,44
 1326 95 1326 95 1432 154 c 0,45,46
 1491 187 1491 187 1502 243 c 128,-1,47
 1513 299 1513 299 1467 345 c 0,48,49
 1383 428 1383 428 1182 419 c 0,50,51
 1158 418 1158 418 1137.5 435.5 c 128,-1,52
 1117 453 1117 453 1115 479 c 128,-1,53
 1113 505 1113 505 1130.5 526 c 128,-1,54
 1148 547 1148 547 1176 549 c 0,55,56
 1281 558 1281 558 1336.5 607.5 c 128,-1,57
 1392 657 1392 657 1398 722 c 1,58,59
 1393 860 1393 860 1318 896 c 0,60,61
 1257 925 1257 925 1171 877 c 0,62,63
 1059 816 1059 816 988 679 c 128,-1,64
 917 542 917 542 896 388 c 1,65,66
 914 230 914 230 896 63 c 0,67,68
 893 37 893 37 871.5 20 c 128,-1,69
 850 3 850 3 825.5 6 c 128,-1,70
 801 9 801 9 785 26.5 c 128,-1,71
 769 44 769 44 766 63 c 0,72,73
 746 237 746 237 765 388 c 1,74,75
 744 545 744 545 675.5 692.5 c 128,-1,76
 607 840 607 840 508 900 c 1,77,78
 462 926 462 926 431.5 925.5 c 128,-1,79
 401 925 401 925 369 899 c 0,80,81
 286 835 286 835 248 640 c 1,0,1
231 483 m 1,82,83
 236 297 236 297 269 217.5 c 128,-1,84
 302 138 302 138 322 122.5 c 128,-1,85
 342 107 342 107 347 107 c 128,-1,86
 352 107 352 107 367 120 c 0,87,88
 419 165 419 165 435 296 c 1,89,90
 438 474 438 474 341 515 c 0,91,92
 299 533 299 533 255 496 c 0,93,94
 245 487 245 487 231 483 c 1,82,83
EndSplineSet
EndChar

StartChar: ch1
Encoding: 60 3354 60
Width: 1853
GlyphClass: 2
Flags: MW
LayerCount: 2
Back
Fore
SplineSet
1622.56445312 953.30859375 m 0,0,1
 1642.87304688 988.5625 1642.87304688 988.5625 1677.59765625 988.5625 c 128,-1,2
 1712.32226562 988.5625 1712.32226562 988.5625 1732.83398438 968.05078125 c 128,-1,3
 1753.34570312 947.538085938 1753.34570312 947.538085938 1753.34570312 932.787109375 c 128,-1,4
 1753.34570312 918.036132812 1753.34570312 918.036132812 1753.33886719 917.552734375 c 2,5,-1
 1753.17871094 59.623046875 l 2,6,7
 1753.16699219 13.6181640625 1753.16699219 13.6181640625 1710.48144531 -4.7607421875 c 0,8,9
 1697.5546875 -10.3271484375 1697.5546875 -10.3271484375 1683.36230469 -10.365234375 c 2,10,-1
 719.327148438 -12.892578125 l 1,11,12
 684.051757812 -15.861328125 684.051757812 -15.861328125 648.985351562 -13.078125 c 1,13,-1
 171.163085938 -14.330078125 l 2,14,15
 170.524414062 -14.33984375 170.524414062 -14.33984375 155.774414062 -14.33984375 c 128,-1,16
 141.024414062 -14.33984375 141.024414062 -14.33984375 120.51171875 6.171875 c 128,-1,17
 100 26.6845703125 100 26.6845703125 100 55.6669921875 c 128,-1,18
 100 84.650390625 100 84.650390625 120.51171875 105.162109375 c 128,-1,19
 141.024414062 125.674804688 141.024414062 125.674804688 170.006835938 125.674804688 c 0,20,-1
 643.411132812 126.908203125 l 2,21,22
 646.115234375 127.1171875 646.115234375 127.1171875 648.821289062 127.1171875 c 128,-1,23
 651.35546875 127.1171875 651.35546875 127.1171875 653.866210938 126.935546875 c 2,24,-1
 710.416992188 127.083984375 l 1,25,26
 872.546875 143.134765625 872.546875 143.134765625 945.94921875 286.6015625 c 0,27,28
 1000.33886719 392.908203125 1000.33886719 392.908203125 966.266601562 502.905273438 c 128,-1,29
 932.1953125 612.903320312 932.1953125 612.903320312 834.01953125 661.134765625 c 128,-1,30
 735.844726562 709.366210938 735.844726562 709.366210938 638.044921875 666.194335938 c 128,-1,31
 540.245117188 623.022460938 540.245117188 623.022460938 510.35546875 520.826171875 c 0,32,33
 495.665039062 470.599609375 495.665039062 470.599609375 499.822265625 443.486328125 c 128,-1,34
 503.978515625 416.373046875 503.978515625 416.373046875 503.978515625 399.0078125 c 128,-1,35
 503.978515625 381.641601562 503.978515625 381.641601562 483.466796875 361.12890625 c 128,-1,36
 462.954101562 340.6171875 462.954101562 340.6171875 435.836914062 340.6171875 c 128,-1,37
 408.719726562 340.6171875 408.719726562 340.6171875 388.401367188 358.319335938 c 128,-1,38
 368.083007812 376.022460938 368.083007812 376.022460938 364.624023438 401.03515625 c 0,39,40
 338.809570312 570.998046875 338.809570312 570.998046875 452.143554688 700.265625 c 0,41,42
 505.772460938 761.43359375 505.772460938 761.43359375 580.897460938 794.59765625 c 128,-1,43
 656.0234375 827.760742188 656.0234375 827.760742188 737.993164062 826.157226562 c 128,-1,44
 819.962890625 824.553710938 819.962890625 824.553710938 894.989257812 787.733398438 c 128,-1,45
 970.014648438 750.913085938 970.014648438 750.913085938 1022.64550781 688.08203125 c 0,46,47
 1130.68847656 559.098632812 1130.68847656 559.098632812 1118.44042969 399.015625 c 128,-1,48
 1106.19238281 238.931640625 1106.19238281 238.931640625 1005.38183594 127.857421875 c 1,49,-1
 1613.19238281 129.451171875 l 1,50,-1
 1613.33886719 917.578125 l 2,51,52
 1613.33203125 918.049804688 1613.33203125 918.049804688 1613.33203125 927.666015625 c 128,-1,53
 1613.33203125 937.282226562 1613.33203125 937.282226562 1622.56445312 953.30859375 c 0,0,1
EndSplineSet
EndChar

StartChar: ch2
Encoding: 61 3355 61
Width: 2721
GlyphClass: 2
Flags: MW
LayerCount: 2
Back
Fore
SplineSet
1952.04492188 1001.46679688 m 0,0,1
 1973 1002 1973 1002 2030 999 c 128,-1,3
 2087 996 2087 996 2173.5 971.5 c 128,-1,5
 2260 947 2260 947 2341 898.5 c 128,-1,7
 2422 850 2422 850 2471 794.5 c 128,-1,9
 2520 739 2520 739 2548.28125 689.576171875 c 1,10,11
 2685 490 2685 490 2584.859375 258.178710938 c 0,12,13
 2543 162 2543 162 2472.60839844 96.59375 c 0,14,15
 2402 32 2402 32 2312.5 1.5 c 128,-1,17
 2223 -29 2223 -29 2127.58886719 -20.998046875 c 128,-1,18
 2032 -13 2032 -13 1949 32.5 c 128,-1,20
 1866 78 1866 78 1808 154 c 128,-1,22
 1750 230 1750 230 1727.06445312 321.5703125 c 128,-1,23
 1704 413 1704 413 1720 507.5 c 128,-1,25
 1736 602 1736 602 1787.6015625 680.681640625 c 0,26,27
 1862 795 1862 795 1993.3203125 852.646484375 c 0,28,29
 2001 856 2001 856 2009.53320312 859.10546875 c 1,30,31
 1996 860 1996 860 1987.69726562 860.646484375 c 0,32,33
 1839 868 1839 868 1733 822 c 128,-1,35
 1627 776 1627 776 1563 709.5 c 128,-1,37
 1499 643 1499 643 1475.5 568 c 128,-1,39
 1452 493 1452 493 1458.40625 421.567382812 c 128,-1,40
 1465 350 1465 350 1496.9375 289.056640625 c 128,-1,41
 1529 228 1529 228 1584.5 182 c 128,-1,43
 1640 136 1640 136 1683 123 c 128,-1,45
 1726 110 1726 110 1740.5 90.5 c 128,-1,47
 1755 71 1755 71 1755 53 c 128,-1,49
 1755 35 1755 35 1749.5 22 c 128,-1,51
 1744 9 1744 9 1736 1 c 128,-1,53
 1728 -7 1728 -7 1715.24686822 -13.8581513692 c 128,-1,55
 1702.49373643 -20.7163027384 1702.49373643 -20.7163027384 1685.05664062 -20.75 c 2,56,-1
 171.123046875 -23.67578125 l 2,57,58
 156 -24 156 -24 148.5 -24 c 128,-1,60
 141 -24 141 -24 120.5 -3.5 c 128,-1,62
 100 17 100 17 100 46 c 128,-1,64
 100 75 100 75 120.51171875 95.8173828125 c 0,65,66
 141.27819184 116.274041505 141.27819184 116.274041505 170.006835938 116.329101562 c 2,67,-1
 700.654296875 117.34765625 l 1,68,69
 800 125 800 125 873.255859375 186.880859375 c 0,70,71
 917 224 917 224 945 278 c 128,-1,73
 973 332 973 332 978.918945312 400.004882812 c 128,-1,74
 985 468 985 468 951.5 536.5 c 128,-1,76
 918 605 918 605 857 640.5 c 128,-1,78
 796 676 796 676 729 674 c 128,-1,80
 662 672 662 672 606.5 635 c 128,-1,82
 551 598 551 598 522.5 536.5 c 128,-1,84
 494 475 494 475 503.30078125 410.857421875 c 0,85,86
 504 406 504 406 504 389 c 128,-1,88
 504 372 504 372 483.5 351.5 c 128,-1,90
 463 331 463 331 435.5 331 c 128,-1,92
 408 331 408 331 387.5 349.5 c 128,-1,94
 367 368 367 368 364.375 393.546875 c 0,95,96
 351 499 351 499 395.5 596 c 128,-1,98
 440 693 440 693 529 752 c 128,-1,100
 618 811 618 811 724.5 814 c 128,-1,102
 831 817 831 817 928.184570312 761.208007812 c 0,103,104
 1025 705 1025 705 1076 600 c 128,-1,106
 1127 495 1127 495 1116 362 c 128,-1,108
 1105 229 1105 229 1003.18359375 117.931640625 c 1,109,-1
 1447.74414062 118.791015625 l 1,110,111
 1403 167 1403 167 1365.5 238.5 c 128,-1,113
 1328 310 1328 310 1319 408.5 c 128,-1,115
 1310 507 1310 507 1342.50878906 612.084960938 c 128,-1,116
 1375 717 1375 717 1460.5 805 c 128,-1,118
 1546 893 1546 893 1665.5 945 c 128,-1,120
 1785 997 1785 997 1952.04492188 1001.46679688 c 0,0,1
2232.79882812 742.46875 m 0,121,122
 2202.71972656 748.442382812 2202.71972656 748.442382812 2184.80078125 748.418945312 c 128,-1,123
 2166.8828125 748.396484375 2166.8828125 748.396484375 2134.45507812 747.465820312 c 128,-1,124
 2102.02832031 746.53515625 2102.02832031 746.53515625 2047.6875 723.634765625 c 0,125,126
 1958.02148438 685.848632812 1958.02148438 685.848632812 1904.9296875 604.298828125 c 0,127,128
 1869.89160156 550.477539062 1869.89160156 550.477539062 1858.67480469 484.04296875 c 128,-1,129
 1847.45800781 417.607421875 1847.45800781 417.607421875 1862.92578125 355.35546875 c 128,-1,130
 1878.40136719 293.12109375 1878.40136719 293.12109375 1919.46582031 239.752929688 c 128,-1,131
 1960.53027344 186.384765625 1960.53027344 186.384765625 2016.66601562 155.591796875 c 128,-1,132
 2072.81152344 124.79296875 2072.81152344 124.79296875 2139.828125 118.923828125 c 128,-1,133
 2206.84375 113.055664062 2206.84375 113.055664062 2257.14941406 130.17578125 c 128,-1,134
 2307.45507812 147.296875 2307.45507812 147.296875 2343.42285156 172.458984375 c 128,-1,135
 2379.38964844 197.62109375 2379.38964844 197.62109375 2407.37988281 231.422851562 c 128,-1,136
 2435.37011719 265.223632812 2435.37011719 265.223632812 2452.14648438 304.0078125 c 0,137,138
 2492.79492188 397.979492188 2492.79492188 397.979492188 2471.30273438 503.912109375 c 0,139,140
 2459.7734375 560.739257812 2459.7734375 560.739257812 2429.2421875 615.267578125 c 0,141,142
 2413.91796875 636.890625 2413.91796875 636.890625 2396.66796875 654.33203125 c 0,143,144
 2328.2421875 723.515625 2328.2421875 723.515625 2232.79882812 742.46875 c 0,121,122
EndSplineSet
EndChar

StartChar: ch3
Encoding: 62 3356 62
Width: 1528
GlyphClass: 2
Flags: MW
LayerCount: 2
Back
Fore
SplineSet
209.087890625 927.236328125 m 0,0,1
 340.674804688 1044.4296875 340.674804688 1044.4296875 521.723632812 1020.59277344 c 128,-1,2
 702.771484375 996.756835938 702.771484375 996.756835938 787.536132812 877.72265625 c 1,3,4
 864.3125 976.7890625 864.3125 976.7890625 987.133789062 1005.93164062 c 0,5,6
 1073.18261719 1026.34960938 1073.18261719 1026.34960938 1171.96582031 1001.19921875 c 128,-1,7
 1270.74902344 976.048828125 1270.74902344 976.048828125 1344.4375 885.8984375 c 128,-1,8
 1418.125 795.748046875 1418.125 795.748046875 1420.32128906 694.723632812 c 0,9,10
 1424.04882812 523.272460938 1424.04882812 523.272460938 1302.79003906 404.244140625 c 1,11,12
 1359.42578125 374.563476562 1359.42578125 374.563476562 1399.19726562 313.133789062 c 128,-1,13
 1438.96777344 251.703125 1438.96777344 251.703125 1425.02148438 167.252929688 c 128,-1,14
 1411.07519531 82.8017578125 1411.07519531 82.8017578125 1344.36230469 29.5439453125 c 128,-1,15
 1277.65039062 -23.7138671875 1277.65039062 -23.7138671875 1192.64355469 -19.04296875 c 128,-1,16
 1107.63769531 -14.37109375 1107.63769531 -14.37109375 1058.19824219 34.412109375 c 0,17,18
 966.116210938 125.271484375 966.116210938 125.271484375 982.495117188 237.912109375 c 1,19,20
 941.337890625 217.391601562 941.337890625 217.391601562 862.764648438 173.73828125 c 128,-1,21
 784.192382812 130.084960938 784.192382812 130.084960938 747.698242188 111.15234375 c 0,22,23
 419.250976562 -59.240234375 419.250976562 -59.240234375 239.583007812 27.576171875 c 0,24,25
 181.946289062 55.42578125 181.946289062 55.42578125 145.348632812 109.108398438 c 128,-1,26
 108.750976562 162.790039062 108.750976562 162.790039062 113.513671875 227.125976562 c 128,-1,27
 118.276367188 291.4609375 118.276367188 291.4609375 157.087890625 337.596679688 c 0,28,29
 244.534179688 441.545898438 244.534179688 441.545898438 410.55078125 434.225585938 c 0,30,31
 525.536132812 429.155273438 525.536132812 429.155273438 722.4609375 404.521484375 c 128,-1,32
 919.385742188 379.887695312 919.385742188 379.887695312 1045.78808594 416.232421875 c 0,33,34
 1047.38964844 416.733398438 1047.38964844 416.733398438 1055.12402344 418.98828125 c 0,35,36
 1202.3203125 464.555664062 1202.3203125 464.555664062 1257.38769531 575.732421875 c 0,37,38
 1281.80273438 625.026367188 1281.80273438 625.026367188 1280.50488281 684.758789062 c 128,-1,39
 1279.20605469 744.491210938 1279.20605469 744.491210938 1235.36816406 798.122070312 c 128,-1,40
 1191.53027344 851.752929688 1191.53027344 851.752929688 1132.59570312 866.7578125 c 0,41,42
 1012.92871094 897.224609375 1012.92871094 897.224609375 936.610351562 830.928710938 c 128,-1,43
 860.291992188 764.6328125 860.291992188 764.6328125 852.791992188 672.48828125 c 0,44,45
 854.032226562 652.139648438 854.032226562 652.139648438 854.725585938 630.744140625 c 2,46,-1
 858.530273438 513.283203125 l 2,47,48
 858.547851562 512.49609375 858.547851562 512.49609375 858.547851562 497.60546875 c 128,-1,49
 858.547851562 482.71484375 858.547851562 482.71484375 838.036132812 462.202148438 c 128,-1,50
 817.524414062 441.690429688 817.524414062 441.690429688 789.279296875 441.690429688 c 128,-1,51
 761.034179688 441.690429688 761.034179688 441.690429688 740.55078125 461.130859375 c 128,-1,52
 720.06640625 480.5703125 720.06640625 480.5703125 718.629882812 508.0390625 c 2,53,-1
 713.715820312 623.509765625 l 1,54,55
 711.409179688 647.307617188 711.409179688 647.307617188 710.674804688 675.924804688 c 0,56,57
 707.419921875 802.779296875 707.419921875 802.779296875 605.149414062 854.44140625 c 0,58,59
 543.310546875 885.678710938 543.310546875 885.678710938 461.194335938 882.240234375 c 1,60,61
 529.426757812 842.283203125 529.426757812 842.283203125 564.776367188 760.950195312 c 128,-1,62
 600.126953125 679.618164062 600.126953125 679.618164062 570.56640625 601.234375 c 128,-1,63
 541.005859375 522.849609375 541.005859375 522.849609375 485.637695312 480.959960938 c 128,-1,64
 430.270507812 439.0703125 430.270507812 439.0703125 363.236328125 435.043945312 c 128,-1,65
 296.203125 431.017578125 296.203125 431.017578125 239.247070312 460.901367188 c 128,-1,66
 182.291015625 490.78515625 182.291015625 490.78515625 147.60546875 542.586914062 c 0,67,68
 75.908203125 649.663085938 75.908203125 649.663085938 112.192382812 772.966796875 c 0,69,70
 136.9453125 862.985351562 136.9453125 862.985351562 209.087890625 927.236328125 c 0,0,1
377.612304688 767.818359375 m 128,-1,72
 339.224609375 783.607421875 339.224609375 783.607421875 300.676757812 768.19140625 c 128,-1,73
 262.133789062 752.775390625 262.133789062 752.775390625 245.219726562 714.8671875 c 0,74,75
 244.067382812 712.231445312 244.067382812 712.231445312 241.211914062 685.454101562 c 128,-1,76
 238.357421875 658.676757812 238.357421875 658.676757812 258.59375 628.455078125 c 0,77,78
 296.860351562 571.307617188 296.860351562 571.307617188 354.565429688 574.774414062 c 128,-1,79
 412.270507812 578.241210938 412.270507812 578.241210938 434.448242188 637.048828125 c 0,80,81
 449.095703125 675.889648438 449.095703125 675.889648438 432.549804688 713.9609375 c 128,-1,71
 416.00390625 752.030273438 416.00390625 752.030273438 377.612304688 767.818359375 c 128,-1,72
1189.73144531 294.4765625 m 1,82,83
 1181.64550781 287.903320312 1181.64550781 287.903320312 1170.87695312 283.420898438 c 128,-1,84
 1160.109375 278.938476562 1160.109375 278.938476562 1149.42578125 269.119140625 c 0,85,86
 1108.76269531 231.744140625 1108.76269531 231.744140625 1125.52441406 177.83984375 c 128,-1,87
 1142.28613281 123.934570312 1142.28613281 123.934570312 1200.14941406 120.755859375 c 0,88,89
 1232.02832031 119.00390625 1232.02832031 119.00390625 1256.87988281 138.84375 c 128,-1,90
 1281.70898438 158.6640625 1281.70898438 158.6640625 1286.86425781 189.88671875 c 128,-1,91
 1292.01464844 221.075195312 1292.01464844 221.075195312 1270.68066406 254.03125 c 128,-1,92
 1249.34570312 286.986328125 1249.34570312 286.986328125 1189.73144531 294.4765625 c 1,82,83
595.340820312 277.364257812 m 128,-1,94
 487.581054688 290.693359375 487.581054688 290.693359375 397.42578125 294.666992188 c 128,-1,95
 307.270507812 298.641601562 307.270507812 298.641601562 273.66015625 258.688476562 c 128,-1,96
 240.05078125 218.736328125 240.05078125 218.736328125 258.298828125 191.96875 c 128,-1,97
 276.546875 165.202148438 276.546875 165.202148438 311.60546875 148.26171875 c 128,-1,98
 346.6640625 131.3203125 346.6640625 131.3203125 447.0234375 145.926757812 c 128,-1,99
 547.3828125 160.533203125 547.3828125 160.533203125 731.471679688 261.26171875 c 1,100,93
 703.1015625 264.036132812 703.1015625 264.036132812 595.340820312 277.364257812 c 128,-1,94
EndSplineSet
EndChar

StartChar: ch4
Encoding: 63 3357 63
Width: 3078
GlyphClass: 2
Flags: MW
AnchorPoint: "dotreph" 1414.88 1195.02 basechar 0
LayerCount: 2
Back
Fore
SplineSet
2103 932 m 1,0,1
 2102 756 2102 756 2116 457 c 1,2,3
 2133 411 2133 411 2156 369 c 1,4,5
 2281 165 2281 165 2442 143 c 0,6,7
 2565 126 2565 126 2675 214.5 c 128,-1,8
 2785 303 2785 303 2831.5 450.5 c 128,-1,9
 2878 598 2878 598 2807 737 c 0,10,11
 2753 843 2753 843 2633 918 c 0,12,13
 2610 932 2610 932 2604.5 958.5 c 128,-1,14
 2599 985 2599 985 2613 1007.5 c 128,-1,15
 2627 1030 2627 1030 2653.5 1036 c 128,-1,16
 2680 1042 2680 1042 2702 1028 c 0,17,18
 2852 934 2852 934 2923 796 c 0,19,20
 3018 609 3018 609 2952 399 c 0,21,22
 2898 226 2898 226 2750.5 107.5 c 128,-1,23
 2603 -11 2603 -11 2424 14 c 0,24,25
 2202 45 2202 45 2044 303 c 0,26,27
 2042 306 2042 306 2041 309 c 1,28,29
 1963 145 1963 145 1817.5 64.5 c 128,-1,30
 1672 -16 1672 -16 1534 16.5 c 128,-1,31
 1396 49 1396 49 1346 176 c 0,32,33
 1278 348 1278 348 1421 602 c 1,34,35
 1457 700 1457 700 1445.5 754.5 c 128,-1,36
 1434 809 1434 809 1396 842 c 0,37,38
 1325 902 1325 902 1188.5 891 c 128,-1,39
 1052 880 1052 880 928 801 c 1,40,41
 1027 654 1027 654 1035 446 c 0,42,43
 1046 151 1046 151 927 48 c 0,44,45
 881 8 881 8 822 3.5 c 128,-1,46
 763 -1 763 -1 709 29 c 1,47,48
 612 80 612 80 559.5 205 c 128,-1,49
 507 330 507 330 542 473 c 0,50,51
 592 676 592 676 740 818 c 1,52,53
 677 869 677 869 596 888 c 0,54,55
 474 917 474 917 371 859 c 128,-1,56
 268 801 268 801 239 671 c 0,57,58
 191 449 191 449 383 120 c 0,59,60
 396 97 396 97 389.5 71 c 128,-1,61
 383 45 383 45 360 31.5 c 128,-1,62
 337 18 337 18 310.5 25 c 128,-1,63
 284 32 284 32 271 55 c 0,64,65
 54 427 54 427 112 698 c 0,66,67
 153 886 153 886 303.5 970.5 c 128,-1,68
 454 1055 454 1055 626 1014 c 0,69,70
 751 985 751 985 843 900 c 1,71,72
 1000 1006 1000 1006 1184.5 1021.5 c 128,-1,73
 1369 1037 1369 1037 1480 941 c 0,74,75
 1549 881 1549 881 1570.5 783 c 128,-1,76
 1592 685 1592 685 1541 552 c 0,77,78
 1539 547 1539 547 1537 543 c 0,79,80
 1422 340 1422 340 1467 224 c 0,81,82
 1492 160 1492 160 1572.5 141 c 128,-1,83
 1653 122 1653 122 1752 177 c 0,84,85
 1896 257 1896 257 1952 439 c 1,86,87
 1972 768 1972 768 1973 935 c 1,88,89
 1975 961 1975 961 1994 979 c 128,-1,90
 2013 997 2013 997 2044 997 c 128,-1,91
 2075 997 2075 997 2093 966 c 1,92,-1
 2103 932 l 1,0,1
826 720 m 1,93,94
 709 606 709 606 668 442 c 0,95,96
 643 341 643 341 679 257 c 128,-1,97
 715 173 715 173 770 143 c 1,98,99
 798 129 798 129 811.5 130.5 c 128,-1,100
 825 132 825 132 849 152.5 c 128,-1,101
 873 173 873 173 891.5 246.5 c 128,-1,102
 910 320 910 320 904.5 463 c 128,-1,103
 899 606 899 606 826 720 c 1,93,94
EndSplineSet
EndChar

StartChar: nj
Encoding: 64 3358 64
Width: 2651
GlyphClass: 2
Flags: MW
LayerCount: 2
Back
Fore
SplineSet
1073 736 m 5,0,1
 1187 959 1187 959 1458 1005 c 4,2,3
 1589 1027 1589 1027 1736 968 c 5,4,5
 1880 1022 1880 1022 2049.5 1002 c 132,-1,6
 2219 982 2219 982 2361 863.5 c 132,-1,7
 2503 745 2503 745 2540 568.5 c 132,-1,8
 2577 392 2577 392 2499 234.5 c 132,-1,9
 2421 77 2421 77 2263 1 c 4,10,11
 2249 -6 2249 -6 2227 -6 c 132,-1,12
 2205 -6 2205 -6 2185.5 13.5 c 132,-1,13
 2166 33 2166 33 2166 55 c 4,14,15
 2166 103 2166 103 2213.5 125.5 c 132,-1,16
 2261 148 2261 148 2306.5 193 c 132,-1,17
 2352 238 2352 238 2380 294 c 4,18,19
 2438 411 2438 411 2410 542 c 132,-1,20
 2382 673 2382 673 2273 764 c 4,21,22
 2111 899 2111 899 1894 870 c 5,23,24
 2069 716 2069 716 2090 481 c 4,25,26
 2106 298 2106 298 2013 162 c 4,27,28
 1962 87 1962 87 1884 42 c 132,-1,29
 1806 -3 1806 -3 1713.5 -3.5 c 132,-1,30
 1621 -4 1621 -4 1539 45 c 132,-1,31
 1457 94 1457 94 1408.5 173 c 132,-1,32
 1360 252 1360 252 1346.5 344 c 132,-1,33
 1333 436 1333 436 1352 530 c 132,-1,34
 1371 624 1371 624 1427.5 715.5 c 132,-1,35
 1484 807 1484 807 1567 873 c 5,36,37
 1425 887 1425 887 1302 804.5 c 132,-1,38
 1179 722 1179 722 1149 544 c 4,39,40
 1139 484 1139 484 1139 367 c 6,41,-1
 1140 62 l 5,42,-1
 1140 62 l 6,43,44
 1140 35 1140 35 1120 15.5 c 132,-1,45
 1100 -4 1100 -4 1073 -4 c 132,-1,46
 1046 -4 1046 -4 1026.5 15 c 132,-1,47
 1007 34 1007 34 1006 61 c 6,48,-1
 1005 363 l 6,49,50
 1004 496 1004 496 988 578.5 c 132,-1,51
 972 661 972 661 919.5 734 c 132,-1,52
 867 807 867 807 785 844.5 c 132,-1,53
 703 882 703 882 624 873 c 4,54,55
 475 857 475 857 384 762 c 132,-1,56
 293 667 293 667 256 545 c 5,57,58
 354 614 354 614 475.5 595.5 c 132,-1,59
 597 577 597 577 674.5 470 c 132,-1,60
 752 363 752 363 719 229 c 4,61,62
 702 160 702 160 655.5 105.5 c 132,-1,63
 609 51 609 51 542.5 24.5 c 132,-1,64
 476 -2 476 -2 395.5 6 c 132,-1,65
 315 14 315 14 244.5 71 c 132,-1,66
 174 128 174 128 137 211 c 4,67,68
 75 351 75 351 115.5 534 c 132,-1,69
 156 717 156 717 285 851 c 132,-1,70
 414 985 414 985 598 1004 c 4,71,72
 725 1017 725 1017 840 966 c 4,73,74
 995 896 995 896 1073 736 c 5,0,1
1733 821 m 5,75,76
 1620 765 1620 765 1549 658 c 4,77,78
 1456 517 1456 517 1477.5 370.5 c 132,-1,79
 1499 224 1499 224 1605.5 160 c 132,-1,80
 1712 96 1712 96 1820 159 c 4,81,82
 1869 187 1869 187 1903 237 c 4,83,84
 1969 333 1969 333 1958 462 c 132,-1,85
 1947 591 1947 591 1882.5 682.5 c 132,-1,86
 1818 774 1818 774 1733 821 c 5,75,76
515 441.5 m 132,-1,88
 455 478 455 478 387 461 c 132,-1,89
 319 444 319 444 284 383 c 132,-1,90
 249 322 249 322 268 255 c 4,91,92
 270 249 270 249 270 243 c 4,93,94
 324 147 324 147 412.5 138 c 132,-1,95
 501 129 501 129 559 197 c 4,96,97
 579 220 579 220 589 260 c 132,-1,98
 599 300 599 300 591 335 c 4,99,87
 575 405 575 405 515 441.5 c 132,-1,88
EndSplineSet
EndChar

StartChar: t1
Encoding: 65 3359 65
Width: 1180
GlyphClass: 2
Flags: MW
LayerCount: 2
Back
Fore
SplineSet
130.719726562 837.025390625 m 1,0,1
 206.028320312 967.735351562 206.028320312 967.735351562 421.44140625 1009.70410156 c 128,-1,2
 636.854492188 1051.67382812 636.854492188 1051.67382812 842.689453125 979.424804688 c 0,3,4
 961.899414062 937.58203125 961.899414062 937.58203125 1055.95996094 854.51171875 c 0,5,6
 1080.34375 833.561523438 1080.34375 833.561523438 1080.34375 802.995117188 c 128,-1,7
 1080.34375 772.4296875 1080.34375 772.4296875 1059.83203125 751.916992188 c 128,-1,8
 1039.3203125 731.405273438 1039.3203125 731.405273438 1011.31152344 731.405273438 c 128,-1,9
 983.301757812 731.405273438 983.301757812 731.405273438 963.284179688 749.576171875 c 0,10,11
 866.116210938 835.390625 866.116210938 835.390625 730.33203125 866.2578125 c 128,-1,12
 594.546875 897.124023438 594.546875 897.124023438 447.4375 870.1796875 c 128,-1,13
 300.327148438 843.234375 300.327148438 843.234375 251.559570312 766.197265625 c 0,14,15
 217.45703125 705.640625 217.45703125 705.640625 273.006835938 639.0234375 c 0,16,17
 299.377929688 607.3984375 299.377929688 607.3984375 316.58203125 601.38671875 c 128,-1,18
 333.78515625 595.375976562 333.78515625 595.375976562 357.092773438 585.8828125 c 128,-1,19
 380.400390625 576.388671875 380.400390625 576.388671875 439.453125 572.99609375 c 128,-1,20
 498.504882812 569.602539062 498.504882812 569.602539062 532.12109375 573.318359375 c 128,-1,21
 565.737304688 577.034179688 565.737304688 577.034179688 655.1796875 584.927734375 c 128,-1,22
 744.622070312 592.8203125 744.622070312 592.8203125 830.515625 577.400390625 c 128,-1,23
 916.409179688 561.979492188 916.409179688 561.979492188 983.788085938 507.983398438 c 128,-1,24
 1051.16601562 453.986328125 1051.16601562 453.986328125 1071.65917969 365.1484375 c 128,-1,25
 1092.15332031 276.310546875 1092.15332031 276.310546875 1043.97558594 194.46875 c 128,-1,26
 995.797851562 112.627929688 995.797851562 112.627929688 911.551757812 72.314453125 c 0,27,28
 718.010742188 -24.294921875 718.010742188 -24.294921875 506.079101562 4.3310546875 c 128,-1,29
 294.147460938 32.95703125 294.147460938 32.95703125 129.790039062 167.232421875 c 0,30,31
 103.2890625 188.252929688 103.2890625 188.252929688 103.2890625 219.658203125 c 128,-1,32
 103.2890625 251.0625 103.2890625 251.0625 123.80078125 271.575195312 c 128,-1,33
 144.313476562 292.086914062 144.313476562 292.086914062 171.5703125 292.086914062 c 128,-1,34
 198.828125 292.086914062 198.828125 292.086914062 218.364257812 275.650390625 c 0,35,36
 350.012695312 168.096679688 350.012695312 168.096679688 524.653320312 144.568359375 c 128,-1,37
 699.29296875 121.040039062 699.29296875 121.040039062 848.438476562 197.24609375 c 0,38,39
 849.772460938 197.956054688 849.772460938 197.956054688 851.122070312 198.6015625 c 0,40,41
 892.754882812 218.5234375 892.754882812 218.5234375 917.71875 258.885742188 c 128,-1,42
 942.682617188 299.249023438 942.682617188 299.249023438 933.483398438 336.392578125 c 0,43,44
 933.193359375 337.56640625 933.193359375 337.56640625 930.5546875 350.0625 c 128,-1,45
 927.916992188 362.55859375 927.916992188 362.55859375 909.674804688 383.595703125 c 0,46,47
 866.657351939 433.204065187 866.657351939 433.204065187 763.573242188 444.045898438 c 0,48,49
 717.177912244 448.930583878 717.177912244 448.930583878 553.845303778 435.596639595 c 128,-1,50
 390.512695312 422.262695312 390.512695312 422.262695312 285.920898438 463.802734375 c 1,51,52
 176.924804688 501.883789062 176.924804688 501.883789062 124.69140625 613.828125 c 128,-1,53
 72.4580078125 725.772460938 72.4580078125 725.772460938 130.719726562 837.025390625 c 1,0,1
EndSplineSet
EndChar

StartChar: t2
Encoding: 66 3360 66
Width: 1246
GlyphClass: 2
Flags: MW
AnchorPoint: "dotreph" 584.385 1170.02 basechar 0
LayerCount: 2
Back
Fore
SplineSet
646.084960938 1043.65332031 m 128,-1,1
 721.427734375 1043.84082031 721.427734375 1043.84082031 815.229492188 1006.35546875 c 128,-1,2
 909.03125 968.870117188 909.03125 968.870117188 982.603515625 899.731445312 c 128,-1,3
 1056.17480469 830.59375 1056.17480469 830.59375 1097.04003906 740.536132812 c 0,4,5
 1168.28808594 592.99609375 1168.28808594 592.99609375 1136.23632812 423.388671875 c 128,-1,6
 1104.18457031 253.780273438 1104.18457031 253.780273438 984.337890625 142.12109375 c 0,7,8
 874.163085938 35.1669921875 874.163085938 35.1669921875 716.63671875 6.2431640625 c 128,-1,9
 559.109375 -22.6806640625 559.109375 -22.6806640625 423.015625 35.4248046875 c 128,-1,10
 286.921875 93.5302734375 286.921875 93.5302734375 200.081054688 213.619140625 c 128,-1,11
 113.240234375 333.708007812 113.240234375 333.708007812 102.595703125 475.75390625 c 1,12,13
 87.986328125 557.245117188 87.986328125 557.245117188 155.618164062 752.8359375 c 0,14,15
 196.439453125 870.893554688 196.439453125 870.893554688 329.782226562 956.069335938 c 0,16,17
 418.051757812 1012.45214844 418.051757812 1012.45214844 494.397460938 1027.95898438 c 128,-1,0
 570.743164062 1043.46679688 570.743164062 1043.46679688 646.084960938 1043.65332031 c 128,-1,1
834.53125 838.559570312 m 128,-1,19
 733.83984375 905.138671875 733.83984375 905.138671875 630.790039062 903.63671875 c 128,-1,20
 527.739257812 902.134765625 527.739257812 902.134765625 444.873046875 858.616210938 c 128,-1,21
 362.0078125 815.09765625 362.0078125 815.09765625 310.569335938 740.780273438 c 0,22,23
 254.291015625 664.783203125 254.291015625 664.783203125 243.412109375 566.80859375 c 128,-1,24
 232.533203125 468.833984375 232.533203125 468.833984375 268.404296875 377.002929688 c 128,-1,25
 304.276367188 285.171875 304.276367188 285.171875 378.419921875 226.43359375 c 0,26,27
 464.697265625 153.572265625 464.697265625 153.572265625 580.819335938 140.283203125 c 128,-1,28
 696.940429688 126.993164062 696.940429688 126.993164062 796.859375 180.010742188 c 0,29,30
 860.80078125 210.201171875 860.80078125 210.201171875 908.920898438 265.799804688 c 128,-1,31
 957.041015625 321.3984375 957.041015625 321.3984375 981.26171875 387.129882812 c 0,32,33
 1034.68359375 532.109375 1034.68359375 532.109375 977.260742188 664.671875 c 1,34,18
 935.221679688 771.98046875 935.221679688 771.98046875 834.53125 838.559570312 c 128,-1,19
EndSplineSet
EndChar

StartChar: t4
Encoding: 68 3362 68
Width: 2843
GlyphClass: 2
Flags: MW
LayerCount: 2
Back
Fore
SplineSet
2188.23144531 979.704101562 m 4,0,1
 2364.17675781 1030.57910156 2364.17675781 1030.57910156 2524.85058594 931.34375 c 4,2,3
 2644.14257812 857.666015625 2644.14257812 857.666015625 2700.81054688 729.061523438 c 132,-1,4
 2757.47851562 600.45703125 2757.47851562 600.45703125 2739.47949219 463.88671875 c 132,-1,5
 2721.48144531 327.317382812 2721.48144531 327.317382812 2642.92871094 217.454101562 c 4,6,7
 2486.44335938 -1.408203125 2486.44335938 -1.408203125 2201.84667969 -41.626953125 c 4,8,9
 1951.02539062 -77.0712890625 1951.02539062 -77.0712890625 1754.40527344 29.072265625 c 4,10,11
 1633.5859375 94.294921875 1633.5859375 94.294921875 1568.11621094 207.564453125 c 5,12,13
 1519.64453125 119.260742188 1519.64453125 119.260742188 1435.76171875 60.6015625 c 132,-1,14
 1351.87988281 1.943359375 1351.87988281 1.943359375 1265.77832031 -13.806640625 c 4,15,16
 1092.390625 -45.5224609375 1092.390625 -45.5224609375 954.374023438 39.220703125 c 4,17,18
 885.189453125 81.7001953125 885.189453125 81.7001953125 827.301757812 163.83203125 c 132,-1,19
 769.4140625 245.963867188 769.4140625 245.963867188 770.546875 372.383789062 c 4,20,21
 770.991210938 422.037109375 770.991210938 422.037109375 784.44140625 519.428710938 c 132,-1,22
 797.890625 616.8203125 797.890625 616.8203125 787.475585938 668.115234375 c 132,-1,23
 777.060546875 719.409179688 777.060546875 719.409179688 740.760742188 763.682617188 c 132,-1,24
 704.461914062 807.95703125 704.461914062 807.95703125 654.771484375 830.350585938 c 4,25,26
 548.671875 878.165039062 548.671875 878.165039062 438.504882812 830.307617188 c 132,-1,27
 328.337890625 782.451171875 328.337890625 782.451171875 276.625976562 671.333984375 c 132,-1,28
 224.9140625 560.216796875 224.9140625 560.216796875 246.778320312 440.071289062 c 132,-1,29
 268.643554688 319.92578125 268.643554688 319.92578125 343.348632812 231.298828125 c 132,-1,30
 418.055664062 142.668945312 418.055664062 142.668945312 526.938476562 102.9140625 c 4,31,32
 546.375976562 96.134765625 546.375976562 96.134765625 560.1328125 76.7666015625 c 132,-1,33
 573.890625 57.3984375 573.890625 57.3984375 573.890625 32.6142578125 c 132,-1,34
 573.890625 7.8291015625 573.890625 7.8291015625 553.377929688 -12.6826171875 c 132,-1,35
 532.866210938 -33.1943359375 532.866210938 -33.1943359375 511.921875 -33.1943359375 c 132,-1,36
 490.9765625 -33.1943359375 490.9765625 -33.1943359375 478.922851562 -28.59375 c 4,37,38
 335.030273438 23.943359375 335.030273438 23.943359375 236.303710938 141.068359375 c 132,-1,39
 137.578125 258.193359375 137.578125 258.193359375 108.392578125 418.563476562 c 132,-1,40
 79.20703125 578.93359375 79.20703125 578.93359375 151.516601562 734.3125 c 132,-1,41
 223.827148438 889.690429688 223.827148438 889.690429688 385.946289062 960.116210938 c 132,-1,42
 548.06640625 1030.54296875 548.06640625 1030.54296875 712.842773438 957.859375 c 4,43,44
 837.662109375 901.3046875 837.662109375 901.3046875 896.522460938 779.431640625 c 4,45,46
 943.696289062 681.754882812 943.696289062 681.754882812 929.744140625 553.235351562 c 4,47,48
 927.188476562 529.702148438 927.188476562 529.702148438 916.169921875 449.912109375 c 132,-1,49
 905.151367188 370.12109375 905.151367188 370.12109375 914.133789062 320.904296875 c 4,50,51
 933.1875 216.513671875 933.1875 216.513671875 1026.25 159.372070312 c 132,-1,52
 1119.31347656 102.231445312 1119.31347656 102.231445312 1230.64746094 122.546875 c 4,53,54
 1295.73339844 134.14453125 1295.73339844 134.14453125 1352.91210938 174.131835938 c 4,55,56
 1497.359375 275.149414062 1497.359375 275.149414062 1499.20410156 504.723632812 c 4,57,58
 1499.58691406 552.314453125 1499.58691406 552.314453125 1499.64550781 555.8046875 c 6,59,-1
 1505.75878906 921.453125 l 6,60,61
 1506.62597656 949.541015625 1506.62597656 949.541015625 1527.12890625 969.418945312 c 132,-1,62
 1547.63085938 989.297851562 1547.63085938 989.297851562 1576.17285156 989.297851562 c 132,-1,63
 1604.71484375 989.297851562 1604.71484375 989.297851562 1625.2265625 968.786132812 c 132,-1,64
 1645.73925781 948.2734375 1645.73925781 948.2734375 1645.73925781 919.291015625 c 4,65,-1
 1645.73925781 919.11328125 l 5,66,-1
 1639.83300781 552.96484375 l 6,67,68
 1639.78027344 549.704101562 1639.78027344 549.704101562 1638.6328125 497.286132812 c 4,69,70
 1631.37695312 165.797851562 1631.37695312 165.797851562 1979.35449219 99.95703125 c 4,71,72
 2074.109375 82.0283203125 2074.109375 82.0283203125 2181.78320312 97.205078125 c 4,73,74
 2432.7578125 132.579101562 2432.7578125 132.579101562 2547.35839844 327.73828125 c 5,75,76
 2416.14550781 207.03515625 2416.14550781 207.03515625 2239.57910156 229.828125 c 4,77,78
 2127.02050781 244.358398438 2127.02050781 244.358398438 2040.61035156 317.943359375 c 132,-1,79
 1954.20214844 391.526367188 1954.20214844 391.526367188 1923.59960938 494.6953125 c 132,-1,80
 1892.99609375 597.86328125 1892.99609375 597.86328125 1916.33496094 696.9375 c 4,81,82
 1958.02734375 873.922851562 1958.02734375 873.922851562 2122.5390625 954.393554688 c 4,83,84
 2154.1171875 969.83984375 2154.1171875 969.83984375 2188.23144531 979.704101562 c 4,0,1
2379.54003906 833.751953125 m 132,-1,86
 2312.85644531 860.760742188 2312.85644531 860.760742188 2242.24316406 847.021484375 c 4,87,88
 2235.6875 845.6796875 2235.6875 845.6796875 2229.00878906 845.6015625 c 4,89,90
 2158.58007812 825.538085938 2158.58007812 825.538085938 2112.99414062 776.59765625 c 132,-1,91
 2067.40722656 727.657226562 2067.40722656 727.657226562 2052.60839844 664.8359375 c 132,-1,92
 2037.80273438 601.987304688 2037.80273438 601.987304688 2057.20410156 536.58203125 c 132,-1,93
 2076.60546875 471.176757812 2076.60546875 471.176757812 2131.38183594 424.53125 c 132,-1,94
 2186.15625 377.885742188 2186.15625 377.885742188 2257.50488281 368.67578125 c 132,-1,95
 2328.85546875 359.46484375 2328.85546875 359.46484375 2393.67871094 390.669921875 c 132,-1,96
 2458.50097656 421.875 2458.50097656 421.875 2495.80566406 483.390625 c 132,-1,97
 2533.109375 544.907226562 2533.109375 544.907226562 2530.81542969 616.8125 c 132,-1,98
 2528.52050781 688.719726562 2528.52050781 688.719726562 2487.37207031 747.73046875 c 132,-1,85
 2446.22070312 806.743164062 2446.22070312 806.743164062 2379.54003906 833.751953125 c 132,-1,86
EndSplineSet
EndChar

StartChar: th1
Encoding: 70 3364 70
Width: 1880
GlyphClass: 2
Flags: MW
LayerCount: 2
Back
Fore
SplineSet
940.08203125 955.216796875 m 1,0,1
 1155.66894531 1048.86914062 1155.66894531 1048.86914062 1374.19335938 981.564453125 c 0,2,3
 1481.84570312 951.883789062 1481.84570312 951.883789062 1570.81640625 883.279296875 c 128,-1,4
 1659.78808594 814.67578125 1659.78808594 814.67578125 1715.52050781 714.50390625 c 128,-1,5
 1771.25292969 614.33203125 1771.25292969 614.33203125 1779.10742188 499.755859375 c 128,-1,6
 1786.96289062 385.1796875 1786.96289062 385.1796875 1737.86816406 277.666992188 c 128,-1,7
 1688.7734375 170.155273438 1688.7734375 170.155273438 1595.20117188 97.94140625 c 128,-1,8
 1501.62890625 25.7275390625 1501.62890625 25.7275390625 1386.19140625 8.6171875 c 0,9,10
 1380.59082031 7.7041015625 1380.59082031 7.7041015625 1363.26367188 7.7041015625 c 128,-1,11
 1345.93652344 7.7041015625 1345.93652344 7.7041015625 1325.42382812 28.2158203125 c 128,-1,12
 1304.91210938 48.728515625 1304.91210938 48.728515625 1304.91210938 75.9072265625 c 128,-1,13
 1304.91210938 103.0859375 1304.91210938 103.0859375 1322.71289062 123.41796875 c 128,-1,14
 1340.51367188 143.75 1340.51367188 143.75 1365.66601562 147.103515625 c 0,15,16
 1442.58105469 158.50390625 1442.58105469 158.50390625 1508.02539062 210.279296875 c 128,-1,17
 1573.46875 262.055664062 1573.46875 262.055664062 1608.91015625 337.5703125 c 128,-1,18
 1644.3515625 413.0859375 1644.3515625 413.0859375 1637.7734375 490.498046875 c 0,19,20
 1637.66992188 491.721679688 1637.66992188 491.721679688 1637.61132812 492.8828125 c 0,21,22
 1631.49316406 613.6171875 1631.49316406 613.6171875 1544.42480469 713.720703125 c 128,-1,23
 1457.35546875 813.823242188 1457.35546875 813.823242188 1335.83789062 846.943359375 c 0,24,25
 1334.6640625 847.263671875 1334.6640625 847.263671875 1333.55273438 847.607421875 c 0,26,27
 1220.75683594 882.510742188 1220.75683594 882.510742188 1096.74609375 856.609375 c 1,28,29
 1230.01855469 741.51953125 1230.01855469 741.51953125 1278.58398438 577.92578125 c 0,30,31
 1323.2890625 440.194335938 1323.2890625 440.194335938 1288.92675781 292.844726562 c 128,-1,32
 1254.56542969 145.49609375 1254.56542969 145.49609375 1128.76757812 60.916015625 c 0,33,34
 1024.52441406 -11.9150390625 1024.52441406 -11.9150390625 898.166992188 4.8466796875 c 128,-1,35
 771.809570312 21.6083984375 771.809570312 21.6083984375 688.923828125 115.73828125 c 0,36,37
 560.151367188 255.254882812 560.151367188 255.254882812 579.333007812 465.841796875 c 0,38,39
 590.668945312 590.325195312 590.668945312 590.325195312 647.469726562 689.701171875 c 128,-1,40
 704.26953125 789.077148438 704.26953125 789.077148438 783.5078125 857.291015625 c 1,41,42
 741.868164062 865.276367188 741.868164062 865.276367188 701.599609375 864.986328125 c 2,43,-1
 701.079101562 864.984375 l 2,44,45
 699.9140625 864.984375 699.9140625 864.984375 698.7421875 865.0234375 c 0,46,47
 602.366210938 868.266601562 602.366210938 868.266601562 508.594726562 829.866210938 c 128,-1,48
 414.823242188 791.466796875 414.823242188 791.466796875 345.29296875 718.125976562 c 128,-1,49
 275.76171875 644.78515625 275.76171875 644.78515625 253.3359375 553.458984375 c 0,50,51
 253.048828125 552.286132812 253.048828125 552.286132812 252.701171875 551.052734375 c 0,52,53
 221.59765625 448.944335938 221.59765625 448.944335938 273.186523438 335.045898438 c 128,-1,54
 324.775390625 221.1484375 324.775390625 221.1484375 428.890625 175.517578125 c 0,55,56
 429.540039062 175.233398438 429.540039062 175.233398438 449.456054688 165.994140625 c 128,-1,57
 469.373046875 156.75390625 469.373046875 156.75390625 502.434570312 151.2265625 c 128,-1,58
 535.49609375 145.700195312 535.49609375 145.700195312 552.797851562 125.44140625 c 128,-1,59
 570.099609375 105.181640625 570.099609375 105.181640625 570.099609375 78.314453125 c 128,-1,60
 570.099609375 51.447265625 570.099609375 51.447265625 549.587890625 30.9345703125 c 128,-1,61
 529.075195312 10.4228515625 529.075195312 10.4228515625 511.35546875 10.4228515625 c 0,62,63
 452.413085938 10.4228515625 452.413085938 10.4228515625 374.551757812 45.6220703125 c 0,64,65
 215.916992188 117.337890625 215.916992188 117.337890625 143.837890625 275.700195312 c 128,-1,66
 71.7587890625 434.061523438 71.7587890625 434.061523438 117.681640625 587.966796875 c 1,67,68
 149.202148438 715.05859375 149.202148438 715.05859375 239.764648438 812.78125 c 128,-1,69
 330.327148438 910.50390625 330.327148438 910.50390625 451.342773438 959.631835938 c 128,-1,70
 572.357421875 1008.75976562 572.357421875 1008.75976562 701.001953125 1004.9765625 c 1,71,72
 824.169921875 1005.77441406 824.169921875 1005.77441406 940.08203125 955.216796875 c 1,0,1
940.125 795.970703125 m 1,73,74
 832.834960938 732.431640625 832.834960938 732.431640625 777.4609375 631.857421875 c 0,75,76
 776.931640625 630.8984375 776.931640625 630.8984375 776.34765625 629.912109375 c 0,77,78
 693.272460938 489.830078125 693.272460938 489.830078125 727.534179688 336.9765625 c 0,79,80
 744.389648438 261.782226562 744.389648438 261.782226562 792.224609375 210.19921875 c 0,81,82
 792.91796875 209.452148438 792.91796875 209.452148438 793.58203125 208.693359375 c 0,83,84
 839.440429688 156.275390625 839.440429688 156.275390625 915.725585938 145.875 c 128,-1,85
 992.009765625 135.473632812 992.009765625 135.473632812 1047.96875 175.21484375 c 0,86,87
 1048.99804688 175.955078125 1048.99804688 175.955078125 1050.00976562 176.630859375 c 0,88,89
 1169.390625 256.329101562 1169.390625 256.329101562 1162.67285156 435.9921875 c 0,90,91
 1160.7265625 488.0703125 1160.7265625 488.0703125 1152.77832031 512.330078125 c 128,-1,92
 1144.83007812 536.58984375 1144.83007812 536.58984375 1144.52929688 537.607421875 c 0,93,94
 1096.46875 700.197265625 1096.46875 700.197265625 940.125 795.970703125 c 1,73,74
EndSplineSet
EndChar

StartChar: th2
Encoding: 71 3365 71
Width: 1601
GlyphClass: 2
Flags: MW
LayerCount: 2
Back
Fore
SplineSet
129.713867188 999.369140625 m 4,0,1
 147.127929688 1013.43945312 147.127929688 1013.43945312 171.953125 1013.86523438 c 132,-1,2
 196.778320312 1014.29101562 196.778320312 1014.29101562 218.032226562 995.311523438 c 132,-1,3
 239.287109375 976.33203125 239.287109375 976.33203125 241.192382812 949.602539062 c 4,4,5
 242.473632812 793.220703125 242.473632812 793.220703125 244.1484375 504.11328125 c 132,-1,6
 245.822265625 215.005859375 245.822265625 215.005859375 246.309570312 141.662109375 c 5,7,8
 300.706054688 141.623046875 300.706054688 141.623046875 409.5 141.543945312 c 132,-1,9
 518.293945312 141.46484375 518.293945312 141.46484375 572.690429688 141.42578125 c 5,10,11
 571.50390625 280.22265625 571.50390625 280.22265625 570.317382812 419.018554688 c 5,12,13
 558.780273438 701.313476562 558.780273438 701.313476562 685.888671875 850.279296875 c 4,14,15
 749.48828125 928.926757812 749.48828125 928.926757812 845.647460938 970.938476562 c 132,-1,16
 941.807617188 1012.95117188 941.807617188 1012.95117188 1046.19433594 1011.37792969 c 4,17,18
 1248.50488281 1008.32910156 1248.50488281 1008.32910156 1369.27636719 873.987304688 c 132,-1,19
 1490.04785156 739.646484375 1490.04785156 739.646484375 1497.625 562.776367188 c 4,20,21
 1501.32714844 551.673828125 1501.32714844 551.673828125 1500.30566406 328.807617188 c 132,-1,22
 1499.28515625 105.94140625 1499.28515625 105.94140625 1500.93164062 89.703125 c 132,-1,23
 1502.578125 73.46484375 1502.578125 73.46484375 1496.4453125 52.77734375 c 4,24,25
 1482.02929688 4.15234375 1482.02929688 4.15234375 1436.19921875 1.150390625 c 4,26,27
 1197.06738281 0.8486328125 1197.06738281 0.8486328125 754.94140625 1.2626953125 c 132,-1,28
 312.81640625 1.677734375 312.81640625 1.677734375 200.85546875 1.6953125 c 5,29,30
 167.458007812 -3.4423828125 167.458007812 -3.4423828125 138.486328125 13.875 c 132,-1,31
 109.514648438 31.19140625 109.514648438 31.19140625 107.124023438 64.306640625 c 4,32,33
 105.650390625 230.125 105.650390625 230.125 103.8984375 536.682617188 c 132,-1,34
 102.146484375 843.241210938 102.146484375 843.241210938 101.614257812 921.046875 c 5,35,36
 93.07421875 969.762695312 93.07421875 969.762695312 129.713867188 999.369140625 c 4,0,1
1042.29394531 870.77734375 m 4,37,38
 872.17578125 873.278320312 872.17578125 873.278320312 780.271484375 742.563476562 c 4,39,40
 721.970703125 659.645507812 721.970703125 659.645507812 716.377929688 578.8671875 c 132,-1,41
 710.786132812 498.088867188 710.786132812 498.088867188 710.407226562 428.59375 c 132,-1,42
 710.028320312 359.099609375 710.028320312 359.099609375 711.450195312 273.009765625 c 132,-1,43
 712.873046875 186.919921875 712.873046875 186.919921875 712.698242188 141.32421875 c 5,44,-1
 1359.47949219 140.85546875 l 5,45,46
 1359.82226562 250.541992188 1359.82226562 250.541992188 1359.54785156 291.8828125 c 132,-1,47
 1359.2734375 333.22265625 1359.2734375 333.22265625 1361.79980469 453.634765625 c 132,-1,48
 1364.32617188 574.047851562 1364.32617188 574.047851562 1336.88574219 664.219726562 c 132,-1,49
 1309.4453125 754.392578125 1309.4453125 754.392578125 1225.24023438 813.23828125 c 132,-1,50
 1141.03515625 872.083984375 1141.03515625 872.083984375 1042.29394531 870.77734375 c 4,37,38
EndSplineSet
EndChar

StartChar: th3
Encoding: 72 3366 72
Width: 1292
GlyphClass: 2
Flags: MW
LayerCount: 2
Back
Fore
SplineSet
428.602539062 943.9375 m 132,-1,1
 574.09765625 1009.8671875 574.09765625 1009.8671875 730.829101562 1008.75878906 c 132,-1,2
 887.560546875 1007.65136719 887.560546875 1007.65136719 994.463867188 945.46875 c 4,3,4
 1084.77539062 896.36328125 1084.77539062 896.36328125 1132.00390625 800.640625 c 132,-1,5
 1179.23242188 704.91796875 1179.23242188 704.91796875 1152.76367188 608.318359375 c 5,6,7
 1147.90136719 570.290039062 1147.90136719 570.290039062 1115.24414062 526.82421875 c 132,-1,8
 1082.5859375 483.359375 1082.5859375 483.359375 1077.03125 472.44140625 c 5,9,10
 1154.09960938 423.876953125 1154.09960938 423.876953125 1181.25097656 331.077148438 c 132,-1,11
 1208.40234375 238.27734375 1208.40234375 238.27734375 1169.46582031 155.931640625 c 4,12,13
 1125.8515625 53.3388671875 1125.8515625 53.3388671875 1010.44824219 10.748046875 c 132,-1,14
 895.044921875 -31.8427734375 895.044921875 -31.8427734375 781.041992188 25.3759765625 c 4,15,16
 723.52734375 54.244140625 723.52734375 54.244140625 707.615234375 85.79296875 c 132,-1,17
 691.703125 117.341796875 691.703125 117.341796875 704.727539062 141.060546875 c 132,-1,18
 717.751953125 164.780273438 717.751953125 164.780273438 734.6796875 174.913085938 c 4,19,20
 775.934570312 199.611328125 775.934570312 199.611328125 810.55859375 172.569335938 c 4,21,22
 841.624023438 143.892578125 841.624023438 143.892578125 885.280273438 136.151367188 c 132,-1,23
 928.936523438 128.41015625 928.936523438 128.41015625 970.076171875 144.619140625 c 132,-1,24
 1011.21582031 160.828125 1011.21582031 160.828125 1033.41894531 197.625976562 c 4,25,26
 1063.26855469 241.702148438 1063.26855469 241.702148438 1045.74804688 295.037109375 c 4,27,28
 1017.52929688 380.936523438 1017.52929688 380.936523438 882.166992188 385.185546875 c 4,29,30
 817.821289062 387.205078125 817.821289062 387.205078125 794.380859375 393.981445312 c 132,-1,31
 770.94140625 400.756835938 770.94140625 400.756835938 759.765625 427.22265625 c 132,-1,32
 748.58984375 453.688476562 748.58984375 453.688476562 757.528320312 480.9921875 c 132,-1,33
 766.466796875 508.294921875 766.466796875 508.294921875 789.306640625 517.162109375 c 132,-1,34
 812.146484375 526.030273438 812.146484375 526.030273438 868.635742188 535.1015625 c 4,35,36
 1003.17578125 556.704101562 1003.17578125 556.704101562 1019.19335938 655.90625 c 4,37,38
 1029.16796875 717.673828125 1029.16796875 717.673828125 993.1953125 762.260742188 c 4,39,40
 908.76953125 879.474609375 908.76953125 879.474609375 691.715820312 866.651367188 c 4,41,42
 560.890625 860.614257812 560.890625 860.614257812 446.71484375 795.609375 c 132,-1,43
 332.538085938 730.60546875 332.538085938 730.60546875 277.546875 619.060546875 c 4,44,45
 219.392578125 509.55859375 219.392578125 509.55859375 249.44140625 380.85546875 c 4,46,47
 288.377929688 214.083007812 288.377929688 214.083007812 438.31640625 145.568359375 c 4,48,49
 538.705078125 99.6953125 538.705078125 99.6953125 493.0234375 28.8671875 c 4,50,51
 467.283203125 -11.041015625 467.283203125 -11.041015625 422.954101562 0.0234375 c 4,52,53
 259.241210938 55.4853515625 259.241210938 55.4853515625 166.555664062 212.982421875 c 4,54,55
 92.42578125 337.444335938 92.42578125 337.444335938 100.862304688 487.60546875 c 132,-1,56
 109.297851562 637.766601562 109.297851562 637.766601562 195.552734375 753.89453125 c 4,57,0
 283.107421875 878.0078125 283.107421875 878.0078125 428.602539062 943.9375 c 132,-1,1
EndSplineSet
EndChar

StartChar: th4
Encoding: 73 3367 73
Width: 1988
GlyphClass: 2
Flags: MW
LayerCount: 2
Back
Fore
SplineSet
1076.36621094 490.858398438 m 2,0,-1
 1076.11425781 437.640625 l 1,1,2
 1083.49316406 329.545898438 1083.49316406 329.545898438 1163.94335938 242.563476562 c 128,-1,3
 1244.39453125 155.58203125 1244.39453125 155.58203125 1351.60058594 139.831054688 c 0,4,5
 1352.79394531 139.655273438 1352.79394531 139.655273438 1353.93261719 139.447265625 c 0,6,7
 1433.2890625 125.037109375 1433.2890625 125.037109375 1514.6875 154.943359375 c 128,-1,8
 1596.08496094 184.8515625 1596.08496094 184.8515625 1655.61132812 248.08203125 c 128,-1,9
 1715.13769531 311.314453125 1715.13769531 311.314453125 1734.24707031 389.9609375 c 0,10,11
 1734.67480469 391.721679688 1734.67480469 391.721679688 1735.18457031 393.428710938 c 0,12,13
 1760.32226562 477.77734375 1760.32226562 477.77734375 1736.97460938 569.561523438 c 128,-1,14
 1713.625 661.34765625 1713.625 661.34765625 1650.99902344 732.412109375 c 128,-1,15
 1588.37207031 803.477539062 1588.37207031 803.477539062 1504.56445312 830.44140625 c 0,16,17
 1503.77832031 830.6953125 1503.77832031 830.6953125 1503.03808594 830.951171875 c 0,18,19
 1409.34375 863.491210938 1409.34375 863.491210938 1314.85449219 845.833007812 c 0,20,21
 1277.76039402 838.355965306 1277.76039402 838.355965306 1254.28742357 862.171146716 c 128,-1,22
 1230.81445312 885.986328125 1230.81445312 885.986328125 1230.9765625 908.423828125 c 0,23,24
 1231.44824219 973.50390625 1231.44824219 973.50390625 1289.13476562 983.451171875 c 0,25,26
 1419.48046875 1007.80957031 1419.48046875 1007.80957031 1547.78808594 963.590820312 c 0,27,28
 1771.62695312 891.379882812 1771.62695312 891.379882812 1860.046875 653.381835938 c 0,29,30
 1911.67089844 514.423828125 1911.67089844 514.423828125 1870.2890625 356.907226562 c 1,31,32
 1842.01464844 240.538085938 1842.01464844 240.538085938 1759.71875 151.13671875 c 128,-1,33
 1677.42089844 61.736328125 1677.42089844 61.736328125 1562.69921875 21.037109375 c 128,-1,34
 1447.97753906 -19.6630859375 1447.97753906 -19.6630859375 1337.57324219 -1.330078125 c 0,35,36
 1114.68554688 35.681640625 1114.68554688 35.681640625 1001.27636719 224 c 1,37,38
 925.815429688 105.088867188 925.815429688 105.088867188 812.110351562 50.587890625 c 128,-1,39
 698.40625 -3.9140625 698.40625 -3.9140625 578.302734375 -1.7880859375 c 128,-1,40
 458.200195312 0.3388671875 458.200195312 0.3388671875 354.5234375 61.8740234375 c 1,41,42
 271.21875 106.481445312 271.21875 106.481445312 211.508789062 181.794921875 c 128,-1,43
 151.797851562 257.108398438 151.797851562 257.108398438 124.6171875 344.05078125 c 0,44,45
 65.1005859375 534.421875 65.1005859375 534.421875 149.477539062 707.134765625 c 1,46,47
 196.471679688 813.639648438 196.471679688 813.639648438 288.013671875 887.876953125 c 128,-1,48
 379.5546875 962.116210938 379.5546875 962.116210938 494.108398438 989.083984375 c 128,-1,49
 608.662109375 1016.05273438 608.662109375 1016.05273438 721.677734375 988.907226562 c 0,50,51
 744.452148438 983.772460938 744.452148438 983.772460938 760.450195312 963.614257812 c 128,-1,52
 776.450195312 943.455078125 776.450195312 943.455078125 776.260742188 917.291015625 c 128,-1,53
 776.071289062 891.125976562 776.071289062 891.125976562 755.411132812 870.763671875 c 0,54,55
 727.257477106 843.015899369 727.257477106 843.015899369 688.977539062 852.779296875 c 0,56,57
 610.225585938 871.6953125 610.225585938 871.6953125 526.720703125 851.154296875 c 128,-1,58
 443.21484375 830.61328125 443.21484375 830.61328125 376.1171875 776.868164062 c 128,-1,59
 309.020507812 723.122070312 309.020507812 723.122070312 276.794921875 648.994140625 c 0,60,61
 276.161132812 647.537109375 276.161132812 647.537109375 275.451171875 646.08984375 c 0,62,63
 217.305664062 527.489257812 217.305664062 527.489257812 260.825195312 387.670898438 c 0,64,65
 280.418945312 324.720703125 280.418945312 324.720703125 322.1796875 270.180664062 c 128,-1,66
 363.939453125 215.641601562 363.939453125 215.641601562 420.612304688 185.293945312 c 0,67,68
 422.184570312 184.451171875 422.184570312 184.451171875 423.73828125 183.515625 c 0,69,70
 492.282226562 142.146484375 492.282226562 142.146484375 578.0703125 140.043945312 c 128,-1,71
 663.859375 137.94140625 663.859375 137.94140625 741.739257812 173.997070312 c 128,-1,72
 819.6171875 210.05078125 819.6171875 210.05078125 866.396484375 275.059570312 c 0,73,74
 867.0390625 275.956054688 867.0390625 275.956054688 867.77734375 276.915039062 c 0,75,76
 945.609670736 377.873217468 945.609670736 377.873217468 935.923828125 527.25390625 c 0,77,78
 935.318359375 536.592773438 935.318359375 536.592773438 935.334960938 539.088867188 c 2,79,-1
 937.833984375 938.034179688 l 2,80,81
 938.358398438 966.694335938 938.358398438 966.694335938 959.015625 986.831054688 c 128,-1,82
 979.672851562 1006.96777344 979.672851562 1006.96777344 1008.3359375 1006.75976562 c 128,-1,83
 1036.83886719 1006.55371094 1036.83886719 1006.55371094 1057.20117188 986.235351562 c 128,-1,84
 1077.56347656 965.91796875 1077.56347656 965.91796875 1077.83300781 937.416015625 c 0,85,86
 1076.72949219 512.310546875 1076.72949219 512.310546875 1076.36621094 490.858398438 c 2,0,-1
EndSplineSet
EndChar

StartChar: n1
Encoding: 74 3368 74
Width: 1988
GlyphClass: 2
Flags: MW
LayerCount: 2
Back
Fore
SplineSet
912.307617188 492.73828125 m 6,0,-1
 912.174804688 545.95703125 l 5,1,2
 904.013671875 653.995117188 904.013671875 653.995117188 822.935546875 740.392578125 c 132,-1,3
 741.856445312 826.790039062 741.856445312 826.790039062 634.540039062 841.763671875 c 4,4,5
 633.344726562 841.931640625 633.344726562 841.931640625 632.206054688 842.130859375 c 4,6,7
 552.74609375 855.966796875 552.74609375 855.966796875 471.567382812 825.471679688 c 132,-1,8
 390.387695312 794.975585938 390.387695312 794.975585938 331.3203125 731.315429688 c 132,-1,9
 272.252929688 667.654296875 272.252929688 667.654296875 253.713867188 588.87109375 c 4,10,11
 253.298828125 587.107421875 253.298828125 587.107421875 252.801757812 585.396484375 c 4,12,13
 228.274414062 500.869140625 228.274414062 500.869140625 252.287109375 409.255859375 c 132,-1,14
 276.299804688 317.641601562 276.299804688 317.641601562 339.438476562 247.03125 c 132,-1,15
 402.578125 176.420898438 402.578125 176.420898438 486.579101562 150.064453125 c 4,16,17
 487.3671875 149.817382812 487.3671875 149.817382812 488.108398438 149.56640625 c 4,18,19
 582.036132812 117.705078125 582.036132812 117.705078125 676.395507812 136.046875 c 4,20,21
 683.477539062 137.52734375 683.477539062 137.52734375 701.588867188 137.52734375 c 132,-1,22
 719.69921875 137.52734375 719.69921875 137.52734375 740.211914062 117.015625 c 132,-1,23
 760.723632812 96.5029296875 760.723632812 96.5029296875 760.723632812 74.0654296875 c 4,24,25
 760.723632812 8.982421875 760.723632812 8.982421875 703.110351562 -1.380859375 c 4,26,27
 572.944335938 -26.6826171875 572.944335938 -26.6826171875 444.319335938 16.60546875 c 4,28,29
 219.963867188 87.1953125 219.963867188 87.1953125 129.82421875 324.546875 c 4,30,31
 77.1953125 463.126953125 77.1953125 463.126953125 117.436523438 620.939453125 c 5,32,33
 144.8671875 737.510742188 144.8671875 737.510742188 226.514648438 827.504882812 c 132,-1,34
 308.163085938 917.499023438 308.163085938 917.499023438 422.586914062 959.02734375 c 132,-1,35
 537.010742188 1000.55664062 537.010742188 1000.55664062 647.544921875 983.0234375 c 4,36,37
 870.694335938 947.625976562 870.694335938 947.625976562 985.463867188 760.1328125 c 5,38,39
 1060.0625 879.587890625 1060.0625 879.587890625 1173.37011719 934.91015625 c 132,-1,40
 1286.67675781 990.233398438 1286.67675781 990.233398438 1406.79199219 988.9765625 c 132,-1,41
 1526.90722656 987.719726562 1526.90722656 987.719726562 1631.02636719 926.935546875 c 5,42,43
 1714.65136719 882.932617188 1714.65136719 882.932617188 1774.90527344 808.053710938 c 132,-1,44
 1835.16015625 733.174804688 1835.16015625 733.174804688 1862.96972656 646.430664062 c 4,45,46
 1923.86230469 456.495117188 1923.86230469 456.495117188 1840.73730469 283.17578125 c 5,47,48
 1794.515625 176.333984375 1794.515625 176.333984375 1703.51367188 101.435546875 c 132,-1,49
 1612.51171875 26.537109375 1612.51171875 26.537109375 1498.15625 -1.259765625 c 132,-1,50
 1383.80078125 -29.0576171875 1383.80078125 -29.0576171875 1270.59277344 -2.73046875 c 4,51,52
 1247.78125 2.240234375 1247.78125 2.240234375 1231.63671875 22.2822265625 c 132,-1,53
 1215.4921875 42.32421875 1215.4921875 42.32421875 1215.4921875 68.4892578125 c 132,-1,54
 1215.4921875 94.654296875 1215.4921875 94.654296875 1236.00390625 115.166015625 c 132,-1,55
 1256.51660156 135.677734375 1256.51660156 135.677734375 1275.27246094 135.677734375 c 132,-1,56
 1294.02832031 135.677734375 1294.02832031 135.677734375 1302.30566406 133.630859375 c 4,57,58
 1381.19238281 115.28515625 1381.19238281 115.28515625 1464.546875 136.4296875 c 132,-1,59
 1547.90234375 157.575195312 1547.90234375 157.575195312 1614.60839844 211.8046875 c 132,-1,60
 1681.31445312 266.03515625 1681.31445312 266.03515625 1713.00292969 340.39453125 c 4,61,62
 1713.62597656 341.85546875 1713.62597656 341.85546875 1714.32519531 343.30859375 c 4,63,64
 1771.61035156 462.326171875 1771.61035156 462.326171875 1727.08007812 601.826171875 c 4,65,66
 1707.03125 664.6328125 1707.03125 664.6328125 1664.87792969 718.869140625 c 132,-1,67
 1622.72363281 773.10546875 1622.72363281 773.10546875 1565.83300781 803.041015625 c 4,68,69
 1564.25390625 803.872070312 1564.25390625 803.872070312 1562.69433594 804.796875 c 4,70,71
 1493.85253906 845.668945312 1493.85253906 845.668945312 1408.05078125 847.150390625 c 132,-1,72
 1322.24902344 848.631835938 1322.24902344 848.631835938 1244.6328125 812.013671875 c 132,-1,73
 1167.01757812 775.396484375 1167.01757812 775.396484375 1120.70996094 710.05078125 c 4,74,75
 1120.07421875 709.150390625 1120.07421875 709.150390625 1119.34277344 708.185546875 c 4,76,77
 1053.71875 621.77734375 1053.71875 621.77734375 1052.31347656 491.162109375 c 4,78,79
 1052.33691406 466.693359375 1052.33691406 466.693359375 1053.00976562 457.360351562 c 132,-1,80
 1053.68261719 448.026367188 1053.68261719 448.026367188 1053.68457031 445.529296875 c 6,81,-1
 1054.07324219 46.576171875 l 6,82,83
 1053.75585938 17.9130859375 1053.75585938 17.9130859375 1033.24511719 -2.3720703125 c 132,-1,84
 1012.734375 -22.6572265625 1012.734375 -22.6572265625 984.0703125 -22.6572265625 c 132,-1,85
 955.567382812 -22.6572265625 955.567382812 -22.6572265625 935.05859375 -2.4873046875 c 132,-1,86
 914.549804688 17.6826171875 914.549804688 17.6826171875 914.073242188 46.181640625 c 4,87,88
 912.099609375 471.284179688 912.099609375 471.284179688 912.307617188 492.73828125 c 6,0,-1
EndSplineSet
EndChar

StartChar: p1
Encoding: 75 3370 75
Width: 1728
GlyphClass: 2
Flags: MW
LayerCount: 2
Back
Fore
SplineSet
1556.56347656 1007 m 0,0,1
 1571.56347656 1007 l 0,2,3
 1586.56347656 1007 1586.56347656 1007 1607.06347656 986.5 c 128,-1,4
 1627.56347656 966 1627.56347656 966 1627.56347656 937 c 2,5,-1
 1628.56347656 66 l 2,6,7
 1628.56347656 36 1628.56347656 36 1608.06347656 16 c 128,-1,8
 1587.56347656 -4 1587.56347656 -4 1558.56347656 -4 c 2,9,-1
 572.563476562 1 l 2,10,11
 546.563476562 1 546.563476562 1 525.063476562 22.5 c 128,-1,12
 503.563476562 44 503.563476562 44 503.563476562 67.5 c 128,-1,13
 503.563476562 91 503.563476562 91 516.063476562 110 c 128,-1,14
 528.563476562 129 528.563476562 129 545.563476562 136 c 0,15,16
 614.563476562 169 614.563476562 169 650.063476562 239 c 128,-1,17
 685.563476562 309 685.563476562 309 669.563476562 384.5 c 128,-1,18
 653.563476562 460 653.563476562 460 593.563476562 508 c 128,-1,19
 533.563476562 556 533.563476562 556 455.563476562 555.5 c 128,-1,20
 377.563476562 555 377.563476562 555 317.563476562 504 c 128,-1,21
 257.563476562 453 257.563476562 453 244.063476562 375.5 c 128,-1,22
 230.563476562 298 230.563476562 298 270.563476562 229 c 128,-1,23
 310.563476562 160 310.563476562 160 383.563476562 135 c 0,24,25
 402.563476562 128 402.563476562 128 416.563476562 109 c 0,26,27
 430.563476562 89 430.563476562 89 430.563476562 64.5 c 128,-1,28
 430.563476562 40 430.563476562 40 410.063476562 19.5 c 128,-1,29
 389.563476562 -1 389.563476562 -1 368.563476562 -1 c 128,-1,30
 347.563476562 -1 347.563476562 -1 335.563476562 3 c 0,31,32
 213.563476562 48 213.563476562 48 148.563476562 160 c 128,-1,33
 83.5634765625 272 83.5634765625 272 105.563476562 399.5 c 128,-1,34
 127.563476562 527 127.563476562 527 226.563476562 611 c 128,-1,35
 325.563476562 695 325.563476562 695 454.063476562 696 c 128,-1,36
 582.563476562 697 582.563476562 697 681.063476562 617.5 c 128,-1,37
 779.563476562 538 779.563476562 538 808.563476562 404.5 c 128,-1,38
 837.563476562 271 837.563476562 271 756.563476562 144 c 1,39,-1
 1488.56347656 136 l 1,40,-1
 1487.56347656 936 l 2,41,42
 1487.56347656 937 1487.56347656 937 1487.56347656 951.5 c 128,-1,43
 1487.56347656 966 1487.56347656 966 1516.06347656 995 c 128,-1,44
 1544.56347656 1024 1544.56347656 1024 1556.56347656 1007 c 0,0,1
EndSplineSet
EndChar

StartChar: p2
Encoding: 76 3371 76
Width: 2290
GlyphClass: 2
Flags: MW
LayerCount: 2
Back
Fore
SplineSet
2188.31152344 112.225585938 m 1,0,1
 2197.57519531 14.931640625 2197.57519531 14.931640625 2134.94238281 1.8154296875 c 1,2,3
 675.032226562 -2.080078125 l 2,4,5
 575.180664062 -2.654296875 575.180664062 -2.654296875 549.919921875 4.2978515625 c 128,-1,6
 524.658203125 11.25 524.658203125 11.25 513.422851562 40.8876953125 c 128,-1,7
 502.186523438 70.5244140625 502.186523438 70.5244140625 514.91796875 99.7861328125 c 128,-1,8
 527.649414062 129.047851562 527.649414062 129.047851562 558.212890625 136.872070312 c 1,9,10
 617.650390625 163.720703125 617.650390625 163.720703125 651.125976562 222.739257812 c 128,-1,11
 684.6015625 281.756835938 684.6015625 281.756835938 681.126953125 349.49609375 c 128,-1,12
 677.651367188 417.235351562 677.651367188 417.235351562 636.286132812 467.723632812 c 1,13,14
 597.7109375 522.4609375 597.7109375 522.4609375 531.184570312 543.318359375 c 128,-1,15
 464.657226562 564.17578125 464.657226562 564.17578125 397.579101562 545.131835938 c 128,-1,16
 330.5 526.087890625 330.5 526.087890625 290.373046875 472.506835938 c 1,17,18
 247.5 422.853515625 247.5 422.853515625 242.340820312 354.868164062 c 128,-1,19
 237.181640625 286.881835938 237.181640625 286.881835938 269.515625 226.848632812 c 128,-1,20
 301.849609375 166.81640625 301.849609375 166.81640625 361.15625 138.801757812 c 1,21,22
 397.545898438 130.254882812 397.545898438 130.254882812 420.580078125 101.486328125 c 128,-1,23
 443.61328125 72.7177734375 443.61328125 72.7177734375 432.78515625 41.9375 c 128,-1,24
 421.95703125 11.158203125 421.95703125 11.158203125 397.327148438 -0.2265625 c 0,25,26
 345.779296875 -24.0537109375 345.779296875 -24.0537109375 296.8046875 14.373046875 c 1,27,28
 231.934570312 45.5859375 231.934570312 45.5859375 185.053710938 103.821289062 c 128,-1,29
 138.172851562 162.056640625 138.172851562 162.056640625 117.543945312 229.814453125 c 0,30,31
 71.45703125 381.192382812 71.45703125 381.192382812 146.438476562 508.563476562 c 0,32,33
 179.4765625 572.403320312 179.4765625 572.403320312 238.936523438 617.512695312 c 128,-1,34
 298.397460938 662.62109375 298.397460938 662.62109375 366.614257812 681.27734375 c 0,35,36
 518.953125 722.938476562 518.953125 722.938476562 644.078125 644.756835938 c 1,37,38
 729.140625 597.817382812 729.140625 597.817382812 776.84765625 508.778320312 c 128,-1,39
 824.5546875 419.739257812 824.5546875 419.739257812 821.453125 318.78125 c 128,-1,40
 818.352539062 217.822265625 818.352539062 217.822265625 763.043945312 137.96484375 c 1,41,42
 811.149414062 137.750976562 811.149414062 137.750976562 873.685546875 137.473632812 c 128,-1,43
 936.221679688 137.196289062 936.221679688 137.196289062 998.7578125 136.918945312 c 128,-1,44
 1061.29492188 136.641601562 1061.29492188 136.641601562 1109.39941406 136.427734375 c 1,45,46
 1108.85839844 146.666015625 1108.85839844 146.666015625 1106.69628906 185.344726562 c 128,-1,47
 1104.53320312 224.0234375 1104.53320312 224.0234375 1103.96484375 237.26953125 c 128,-1,48
 1103.39648438 250.515625 1103.39648438 250.515625 1101.98925781 285.479492188 c 128,-1,49
 1100.58203125 320.442382812 1100.58203125 320.442382812 1100.9296875 337.48046875 c 128,-1,50
 1101.27734375 354.517578125 1101.27734375 354.517578125 1101.61132812 385.6015625 c 0,51,52
 1104.98339844 699.524414062 1104.98339844 699.524414062 1311.53027344 877.64453125 c 0,53,54
 1454.234375 1000.70800781 1454.234375 1000.70800781 1632.23535156 999.7421875 c 1,55,56
 1769.96484375 1001.96972656 1769.96484375 1001.96972656 1892.87695312 928.484375 c 0,57,58
 2083.09863281 814.754882812 2083.09863281 814.754882812 2150.54882812 587.182617188 c 0,59,60
 2199.40136719 422.356445312 2199.40136719 422.356445312 2188.31152344 112.225585938 c 1,0,1
1765.87402344 835.369140625 m 0,61,62
 1609.0078125 897.989257812 1609.0078125 897.989257812 1459.72558594 811.916015625 c 0,63,64
 1344.29980469 745.364257812 1344.29980469 745.364257812 1286.84667969 613.5546875 c 128,-1,65
 1229.39257812 481.745117188 1229.39257812 481.745117188 1246.3046875 193.538085938 c 0,66,67
 1248.74804688 151.907226562 1248.74804688 151.907226562 1249.42871094 139.619140625 c 1,68,-1
 2048.40332031 139.619140625 l 1,69,70
 2048.31152344 160.956054688 2048.31152344 160.956054688 2048.83007812 252.939453125 c 128,-1,71
 2049.34765625 344.922851562 2049.34765625 344.922851562 2042.94238281 407.036132812 c 0,72,73
 2018.7890625 641.249023438 2018.7890625 641.249023438 1880.28125 765.033203125 c 0,74,75
 1830.40429688 809.608398438 1830.40429688 809.608398438 1765.87402344 835.369140625 c 0,61,62
EndSplineSet
EndChar

StartChar: p3
Encoding: 77 3372 77
Width: 2514
GlyphClass: 2
Flags: MW
AnchorPoint: "dotreph" 1071.9 1167.02 basechar 0
LayerCount: 2
Back
Fore
SplineSet
1119.63085938 516.134765625 m 1,0,-1
 1123.55273438 438.624023438 l 2,1,2
 1123.56082514 438.612735237 1123.56082514 438.612735237 1123.54492188 437.55859375 c 2,3,-1
 1118.46679688 100.95703125 l 1,4,-1
 1118.20117188 55.51953125 l 2,5,6
 1118 55 1118 55 1118.203125 54.95703125 c 0,7,8
 1118 26 1118 26 1097.69042969 5.4619140625 c 0,9,10
 1077 -15 1077 -15 1048.19628906 -15.0498046875 c 0,11,12
 1008 -15 1008 -15 998.701171875 5.4619140625 c 0,13,14
 985 35 985 35 978.189453125 40.82421875 c 0,15,16
 978.112476974 40.8956399207 978.112476974 40.8956399207 978.203125 56.341796875 c 2,17,-1
 978.3359375 78.97265625 l 2,18,19
 978 81 978 81 978.193359375 82.5234375 c 0,20,21
 978 84 978 84 978.47265625 102.421875 c 2,22,-1
 980.453125 439.810546875 l 2,23,24
 980 443 980 443 979.518554688 467.463867188 c 128,-1,25
 979 492 979 492 978.038085938 528.766601562 c 0,26,27
 976 649 976 649 926.776367188 721.618164062 c 0,28,29
 834 857 834 857 681.79296875 865.43359375 c 0,30,31
 529 874 529 874 409.720703125 779.17578125 c 0,32,33
 331 717 331 717 285.5390625 620.359375 c 1,34,35
 408 707 408 707 554.18359375 674.77734375 c 0,36,37
 640 656 640 656 705.357421875 598.478515625 c 0,38,39
 771 541 771 541 800.951171875 458.703125 c 0,40,41
 831 377 831 377 817.234375 290.15234375 c 0,42,43
 804 204 804 204 750.166015625 134.662109375 c 0,44,45
 697 66 697 66 616.392578125 30.8359375 c 0,46,47
 536 -4 536 -4 443.916992188 4.94140625 c 128,-1,48
 352 14 352 14 273.041015625 72.0595703125 c 128,-1,49
 194 130 194 130 152.159179688 214.713867188 c 0,50,51
 68 383 68 383 119.801757812 576.064453125 c 0,52,53
 172 769 172 769 327.944335938 893.005859375 c 128,-1,54
 484 1017 484 1017 683.810546875 1005.54296875 c 0,55,56
 790 999 790 999 893.026367188 944.331054688 c 0,57,58
 996 889 996 889 1058.27539062 772.537109375 c 1,59,60
 1125 878 1125 878 1224.72363281 933.708007812 c 0,61,62
 1324 990 1324 990 1425.11523438 1001.26953125 c 0,63,64
 1593 1020 1593 1020 1738.56054688 934.423828125 c 128,-1,65
 1884 849 1884 849 1950.66015625 693.087890625 c 0,66,67
 1998 582 1998 582 1991.07617188 459.926757812 c 0,68,69
 1979 256 1979 256 1832.93359375 115.84765625 c 1,70,-1
 2274.9765625 117.66796875 l 5,71,-1
 2274.9765625 955.8828125 l 6,72,73
 2275 971 2275 971 2274.96972656 970.891601562 c 4,74,75
 2275 985 2275 985 2295.38867188 1006.15039062 c 4,76,77
 2316 1027 2316 1027 2339.89550781 1026.87988281 c 4,78,79
 2364 1027 2364 1027 2380.11035156 1017.5078125 c 4,80,81
 2415 997 2415 997 2414.98339844 956.872070312 c 4,82,83
 2415 956 2415 956 2414.9765625 955.8828125 c 6,84,-1
 2414.9765625 47.8828125 l 6,85,86
 2415 19 2415 19 2394.52636719 -1.515625 c 132,-1,87
 2373.98756787 -22.0124066942 2373.98756787 -22.0124066942 2345.19140625 -22.1171875 c 6,88,-1
 1533.06835938 -25.072265625 l 2,89,90
 1504 -25 1504 -25 1483.46972656 -4.5595703125 c 128,-1,91
 1463 16 1463 16 1462.95800781 43.126953125 c 0,92,93
 1463 70 1463 70 1480.75195312 90.6318359375 c 0,94,95
 1499 111 1499 111 1523.6875 114.32421875 c 0,96,97
 1609 126 1609 126 1684.64550781 176.447265625 c 0,98,99
 1760 227 1760 227 1802.84375 302.12890625 c 0,100,101
 1845 377 1845 377 1850.63085938 467.909179688 c 0,102,103
 1856 559 1856 559 1827.24707031 625.620117188 c 0,104,105
 1773 751 1773 751 1667.83984375 813.59765625 c 0,106,107
 1562 876 1562 876 1440.84960938 862.15625 c 0,108,109
 1369 854 1369 854 1303.68261719 817.05078125 c 0,110,111
 1238 780 1238 780 1194.16796875 722.9453125 c 0,112,113
 1125 633 1125 633 1119.63085938 516.134765625 c 1,0,-1
524.228515625 538.021484375 m 0,114,115
 416.66796875 561.5859375 416.66796875 561.5859375 339.27734375 483.251953125 c 0,116,117
 318.618164062 461.774414062 318.618164062 461.774414062 291.3203125 461.774414062 c 128,-1,118
 264.022460938 461.774414062 264.022460938 461.774414062 244.75390625 477.3828125 c 1,119,120
 232.609375 366.7265625 232.609375 366.7265625 268.614257812 294.826171875 c 0,121,122
 338.295898438 155.672851562 338.295898438 155.672851562 455.174804688 144.50390625 c 128,-1,123
 572.053710938 133.3359375 572.053710938 133.3359375 639.48046875 220.388671875 c 128,-1,124
 706.905273438 307.443359375 706.905273438 307.443359375 669.34765625 410.951171875 c 0,125,126
 651.810546875 459.282226562 651.810546875 459.282226562 613.130859375 493.150390625 c 128,-1,127
 574.448242188 527.021484375 574.448242188 527.021484375 524.228515625 538.021484375 c 0,114,115
EndSplineSet
EndChar

StartChar: p4
Encoding: 78 3373 78
Width: 1340
GlyphClass: 2
Flags: MW
LayerCount: 2
Back
Fore
SplineSet
420.991210938 920.84375 m 4,0,1
 614.830078125 1014.02734375 614.830078125 1014.02734375 868.127929688 987.251953125 c 4,2,3
 1049.33984375 968.099609375 1049.33984375 968.099609375 1142.22753906 879.595703125 c 4,4,5
 1209.12890625 815.8515625 1209.12890625 815.8515625 1224.99316406 723.568359375 c 132,-1,6
 1240.85742188 631.28515625 1240.85742188 631.28515625 1189.80957031 567.721679688 c 132,-1,7
 1138.76074219 504.159179688 1138.76074219 504.159179688 1082.24609375 487.501953125 c 132,-1,8
 1025.73144531 470.844726562 1025.73144531 470.844726562 951.16796875 475 c 132,-1,9
 876.604492188 479.15625 876.604492188 479.15625 850.423828125 478.549804688 c 132,-1,10
 824.2421875 477.944335938 824.2421875 477.944335938 810.623046875 459.643554688 c 132,-1,11
 797.004882812 441.342773438 797.004882812 441.342773438 817.8984375 425.341796875 c 132,-1,12
 838.791015625 409.341796875 838.791015625 409.341796875 860.083007812 407.505859375 c 132,-1,13
 881.374023438 405.670898438 881.374023438 405.670898438 965.4296875 406.125 c 4,14,15
 1168.37402344 407.221679688 1168.37402344 407.221679688 1225.08886719 262.6015625 c 4,16,17
 1261.33496094 170.14453125 1261.33496094 170.14453125 1214.93261719 87.67578125 c 132,-1,18
 1168.52929688 5.20703125 1168.52929688 5.20703125 1075.88574219 -22.263671875 c 4,19,20
 1022.14648438 -38.1982421875 1022.14648438 -38.1982421875 929.454101562 -32.869140625 c 6,21,-1
 741.840820312 -22.083984375 l 6,22,23
 714.116210938 -20.87890625 714.116210938 -20.87890625 694.495117188 -0.38671875 c 132,-1,24
 674.874023438 20.1064453125 674.874023438 20.1064453125 674.874023438 48.4736328125 c 132,-1,25
 674.874023438 76.83984375 674.874023438 76.83984375 695.385742188 97.3525390625 c 132,-1,26
 715.897460938 117.864257812 715.897460938 117.864257812 731.639648438 117.864257812 c 132,-1,27
 747.380859375 117.864257812 747.380859375 117.864257812 749.875976562 117.685546875 c 6,28,-1
 937.489257812 106.8984375 l 6,29,30
 1005.76953125 102.971679688 1005.76953125 102.971679688 1040.05371094 113.137695312 c 132,-1,31
 1074.33789062 123.303710938 1074.33789062 123.303710938 1090.54296875 152.104492188 c 132,-1,32
 1106.74804688 180.905273438 1106.74804688 180.905273438 1094.6328125 211.797851562 c 4,33,34
 1072.07128906 269.327148438 1072.07128906 269.327148438 950.627929688 265.665039062 c 4,35,36
 894.907226562 263.985351562 894.907226562 263.985351562 840.49609375 268.674804688 c 132,-1,37
 786.083984375 273.365234375 786.083984375 273.365234375 742.704101562 306.590820312 c 4,38,39
 654.17578125 374.39453125 654.17578125 374.39453125 665.05859375 459.873046875 c 132,-1,40
 675.940429688 545.3515625 675.940429688 545.3515625 751.100585938 588.693359375 c 4,41,42
 800.948242188 617.440429688 800.948242188 617.440429688 871.188476562 619.06640625 c 4,43,44
 878.897460938 619.245117188 878.897460938 619.245117188 944.12890625 615.609375 c 132,-1,45
 1009.359375 611.974609375 1009.359375 611.974609375 1033.22363281 619.008789062 c 132,-1,46
 1057.08789062 626.04296875 1057.08789062 626.04296875 1074.63964844 647.8984375 c 132,-1,47
 1092.19140625 669.75390625 1092.19140625 669.75390625 1085.59863281 708.106445312 c 4,48,49
 1065.39941406 825.6171875 1065.39941406 825.6171875 852.524414062 848.120117188 c 132,-1,50
 639.650390625 870.622070312 639.650390625 870.622070312 481.647460938 794.666015625 c 4,51,52
 395.424804688 753.216796875 395.424804688 753.216796875 334.963867188 685.494140625 c 132,-1,53
 274.501953125 617.770507812 274.501953125 617.770507812 254.903320312 543.137695312 c 132,-1,54
 235.303710938 468.504882812 235.303710938 468.504882812 245.333984375 398.829101562 c 132,-1,55
 255.364257812 329.153320312 255.364257812 329.153320312 290.116210938 271.5390625 c 132,-1,56
 324.8671875 213.924804688 324.8671875 213.924804688 381.8203125 172.552734375 c 132,-1,57
 438.7734375 131.180664062 438.7734375 131.180664062 482.954101562 121.079101562 c 4,58,59
 559.442382812 103.591796875 559.442382812 103.591796875 559.442382812 47.533203125 c 4,60,61
 559.442382812 18.5498046875 559.442382812 18.5498046875 538.9296875 -1.9619140625 c 132,-1,62
 518.41796875 -22.4736328125 518.41796875 -22.4736328125 499.654296875 -22.4736328125 c 132,-1,63
 480.890625 -22.4736328125 480.890625 -22.4736328125 472.600585938 -20.419921875 c 4,64,65
 378.446289062 1.4736328125 378.446289062 1.4736328125 299.305664062 58.96484375 c 132,-1,66
 220.165039062 116.45703125 220.165039062 116.45703125 170.237304688 199.23046875 c 4,67,68
 65.4609375 372.936523438 65.4609375 372.936523438 116.985351562 569.140625 c 4,69,70
 147.64453125 685.89453125 147.64453125 685.89453125 228.618164062 776.592773438 c 132,-1,71
 309.590820312 867.291992188 309.590820312 867.291992188 420.991210938 920.84375 c 4,0,1
EndSplineSet
EndChar

StartChar: m1
Encoding: 79 3374 79
Width: 1397
GlyphClass: 2
Flags: MW
LayerCount: 2
Back
Fore
SplineSet
714.498046875 1017.65917969 m 0,0,1
 752.350585938 1017.67089844 752.350585938 1017.67089844 789.7578125 1013.11816406 c 0,2,3
 889.41015625 1000.99023438 889.41015625 1000.99023438 981.32421875 958 c 128,-1,4
 1073.23828125 915.009765625 1073.23828125 915.009765625 1146.96679688 846.459960938 c 0,5,6
 1221.64257812 777.028320312 1221.64257812 777.028320312 1255.82617188 697.262695312 c 0,7,8
 1284.37109375 630.654296875 1284.37109375 630.654296875 1291.2890625 520.971679688 c 2,9,-1
 1295.57617188 452.975585938 l 1,10,-1
 1296.03710938 445.674804688 l 1,11,-1
 1297.4921875 422.598632812 l 2,12,13
 1297.68847656 419.981445312 1297.68847656 419.981445312 1297.68847656 417.353515625 c 0,14,15
 1297.68847656 409.700195312 1297.68847656 409.700195312 1296.03710938 402.235351562 c 2,16,-1
 1296.03710938 68.9755859375 l 2,17,18
 1296.03710938 39.9755859375 1296.03710938 39.9755859375 1275.53710938 19.4755859375 c 128,-1,19
 1255.03710938 -1.0244140625 1255.03710938 -1.0244140625 1226.03710938 -1.0244140625 c 2,20,-1
 272.767578125 -1.0244140625 l 2,21,22
 268.970703125 -1.44140625 268.970703125 -1.44140625 265.139648438 -1.44140625 c 128,-1,23
 261.30859375 -1.44140625 261.30859375 -1.44140625 257.51171875 -1.0244140625 c 2,24,-1
 170.037109375 -1.0244140625 l 2,25,26
 141.037109375 -1.0244140625 141.037109375 -1.0244140625 120.537109375 19.4755859375 c 128,-1,27
 100.037109375 39.9755859375 100.037109375 39.9755859375 100.037109375 68.9755859375 c 2,28,-1
 100.037109375 450.297851562 l 2,29,30
 100 451.4375 100 451.4375 100 452.580078125 c 0,31,32
 100 455.915039062 100 455.915039062 100.31640625 459.229492188 c 0,33,34
 109.030273438 556.384765625 109.030273438 556.384765625 148.372070312 646.825195312 c 128,-1,35
 187.713867188 737.264648438 187.713867188 737.264648438 252.998046875 811.190429688 c 128,-1,36
 318.283203125 885.116210938 318.283203125 885.116210938 402.6171875 934.137695312 c 0,37,38
 546.2109375 1017.60449219 546.2109375 1017.60449219 714.498046875 1017.65917969 c 0,0,1
644.158203125 868.262695312 m 0,39,40
 616.90234375 868.297851562 616.90234375 868.297851562 591.63671875 860.452148438 c 0,41,42
 584.081054688 858.032226562 584.081054688 858.032226562 576.18359375 857.364257812 c 0,43,44
 521.102539062 841.077148438 521.102539062 841.077148438 472.97265625 813.100585938 c 0,45,46
 377.087890625 757.364257812 377.087890625 757.364257812 313.891601562 658.709960938 c 128,-1,47
 250.6953125 560.055664062 250.6953125 560.055664062 240.037109375 449.577148438 c 1,48,-1
 240.037109375 138.975585938 l 1,49,-1
 249.66015625 138.975585938 l 1,50,51
 412.22265625 219.749023438 412.22265625 219.749023438 563.525390625 319.430664062 c 0,52,53
 636.647460938 367.604492188 636.647460938 367.604492188 688.787109375 412.513671875 c 128,-1,54
 740.927734375 457.423828125 740.927734375 457.423828125 774.125 508.360351562 c 0,55,56
 826.338867188 588.474609375 826.338867188 588.474609375 825.322265625 672.346679688 c 0,57,58
 824.8203125 713.7265625 824.8203125 713.7265625 809.368164062 752.56640625 c 128,-1,59
 793.916015625 791.40625 793.916015625 791.40625 766.974609375 817.909179688 c 0,60,61
 732.362304688 851.955078125 732.362304688 851.955078125 685.181640625 863.403320312 c 0,62,63
 665.266601562 868.234375 665.266601562 868.234375 644.158203125 868.262695312 c 0,39,40
929.748046875 827.303710938 m 1,64,65
 964.319335938 755.961914062 964.319335938 755.961914062 965.3125 674.041992188 c 0,66,67
 966.842773438 547.654296875 966.842773438 547.654296875 891.412109375 431.916992188 c 0,68,69
 860.341796875 384.244140625 860.341796875 384.244140625 815.301757812 339.623046875 c 128,-1,70
 770.26171875 295.001953125 770.26171875 295.001953125 732.228515625 266.432617188 c 128,-1,71
 694.1953125 237.86328125 694.1953125 237.86328125 640.548828125 202.520507812 c 0,72,73
 591.166992188 169.987304688 591.166992188 169.987304688 539.947265625 138.975585938 c 1,74,-1
 1156.03710938 138.975585938 l 1,75,-1
 1156.03710938 441.282226562 l 1,76,-1
 1151.56640625 512.159179688 l 2,77,78
 1146.16992188 597.717773438 1146.16992188 597.717773438 1127.14453125 642.116210938 c 0,79,80
 1104.62402344 694.665039062 1104.62402344 694.665039062 1051.63671875 743.930664062 c 0,81,82
 997.525390625 794.2421875 997.525390625 794.2421875 929.748046875 827.303710938 c 1,64,65
EndSplineSet
EndChar

StartChar: y1
Encoding: 80 3375 80
Width: 1877
GlyphClass: 2
Flags: MW
LayerCount: 2
Back
Fore
SplineSet
1408.65527344 998.888671875 m 128,-1,1
 1429.16699219 1019.40039062 1429.16699219 1019.40039062 1451.58691406 1019.40039062 c 128,-1,2
 1474.00585938 1019.40039062 1474.00585938 1019.40039062 1488.31640625 1012.56835938 c 0,3,4
 1569.60253906 975.16015625 1569.60253906 975.16015625 1632.90136719 909.59375 c 128,-1,5
 1696.19921875 844.02734375 1696.19921875 844.02734375 1730.81347656 764.576171875 c 0,6,7
 1808.84667969 585.462890625 1808.84667969 585.462890625 1755.73632812 418.734375 c 1,8,9
 1722.34667969 292.796875 1722.34667969 292.796875 1632.20214844 195.87890625 c 128,-1,10
 1542.05761719 98.9599609375 1542.05761719 98.9599609375 1420.89257812 50.216796875 c 0,11,12
 1192.03125 -41.849609375 1192.03125 -41.849609375 961.337890625 49.69140625 c 1,13,14
 801.583007812 -18.6591796875 801.583007812 -18.6591796875 623.764648438 10.5078125 c 128,-1,15
 445.946289062 39.6748046875 445.946289062 39.6748046875 316.547851562 154.87890625 c 128,-1,16
 187.1484375 270.083984375 187.1484375 270.083984375 130.501953125 435.669921875 c 128,-1,17
 73.85546875 601.256835938 73.85546875 601.256835938 122.41015625 762.95703125 c 0,18,19
 157.71484375 883.03125 157.71484375 883.03125 264.159179688 955.596679688 c 128,-1,20
 370.604492188 1028.16210938 370.604492188 1028.16210938 487.934570312 1002.28125 c 128,-1,21
 605.264648438 976.400390625 605.264648438 976.400390625 671.158203125 881.27734375 c 1,22,23
 744.251953125 970.141601562 744.251953125 970.141601562 842.430664062 1000.01074219 c 128,-1,24
 940.608398438 1029.87890625 940.608398438 1029.87890625 1023.72070312 1011.62792969 c 128,-1,25
 1106.83203125 993.375976562 1106.83203125 993.375976562 1174.98046875 937.899414062 c 128,-1,26
 1243.12792969 882.422851562 1243.12792969 882.422851562 1287.37304688 785.506835938 c 128,-1,27
 1331.61816406 688.58984375 1331.61816406 688.58984375 1326.7109375 569.319335938 c 128,-1,28
 1321.80371094 450.047851562 1321.80371094 450.047851562 1268.35546875 340.301757812 c 128,-1,29
 1214.90820312 230.5546875 1214.90820312 230.5546875 1124.3046875 151.283203125 c 1,30,31
 1150.10742188 147.833984375 1150.10742188 147.833984375 1162.59082031 147.678710938 c 128,-1,32
 1175.07421875 147.5234375 1175.07421875 147.5234375 1176.39453125 147.455078125 c 0,33,34
 1272.05371094 142.6015625 1272.05371094 142.6015625 1365.29492188 180.567382812 c 128,-1,35
 1458.53515625 218.534179688 1458.53515625 218.534179688 1527.65722656 291.479492188 c 128,-1,36
 1596.78027344 364.424804688 1596.78027344 364.424804688 1620.68554688 455.53125 c 0,37,38
 1621.02929688 456.838867188 1621.02929688 456.838867188 1621.40820312 458.0859375 c 0,39,40
 1658.66894531 572.955078125 1658.66894531 572.955078125 1602.7109375 702.258789062 c 128,-1,41
 1546.75195312 831.561523438 1546.75195312 831.561523438 1429.7890625 885.388671875 c 0,42,43
 1388.14355469 903.842773438 1388.14355469 903.842773438 1388.14355469 954.456054688 c 0,44,0
 1388.14355469 978.375976562 1388.14355469 978.375976562 1408.65527344 998.888671875 c 128,-1,1
1069.22167969 840.17578125 m 0,45,46
 981.033203125 898.646484375 981.033203125 898.646484375 895.564453125 869.419921875 c 0,47,48
 894.171875 868.942382812 894.171875 868.942382812 892.74609375 868.521484375 c 0,49,50
 831.83203125 850.528320312 831.83203125 850.528320312 786.80859375 798.213867188 c 128,-1,51
 741.786132812 745.900390625 741.786132812 745.900390625 723.5546875 678.383789062 c 128,-1,52
 705.32421875 610.868164062 705.32421875 610.868164062 716.88671875 545.76171875 c 0,53,54
 717.090820312 544.610351562 717.090820312 544.610351562 717.25 543.5 c 0,55,56
 732.239257812 439.412109375 732.239257812 439.412109375 798.405273438 349.68359375 c 128,-1,57
 864.571289062 259.955078125 864.571289062 259.955078125 961.1796875 206.24609375 c 1,58,59
 1027.18945312 243.338867188 1027.18945312 243.338867188 1078.51464844 306.758789062 c 128,-1,60
 1129.83886719 370.178710938 1129.83886719 370.178710938 1157.20898438 443.071289062 c 0,61,62
 1218.328125 605.842773438 1218.328125 605.842773438 1152.55273438 744.556640625 c 0,63,64
 1152.36523438 744.951171875 1152.36523438 744.951171875 1152.19726562 745.318359375 c 0,65,66
 1125.86328125 802.62109375 1125.86328125 802.62109375 1069.22167969 840.17578125 c 0,45,46
462.529296875 862.74609375 m 0,67,68
 391.697265625 879.701171875 391.697265625 879.701171875 332.65234375 830.376953125 c 128,-1,69
 273.607421875 781.052734375 273.607421875 781.052734375 256.681640625 723.3359375 c 0,70,71
 221.4140625 606.091796875 221.4140625 606.091796875 265.997070312 476.944335938 c 128,-1,72
 310.580078125 347.796875 310.580078125 347.796875 408.662109375 261.611328125 c 0,73,74
 408.998046875 261.31640625 408.998046875 261.31640625 409.330078125 261.017578125 c 0,75,76
 484.850585938 192.928710938 484.850585938 192.928710938 587.743164062 163.477539062 c 128,-1,77
 690.635742188 134.026367188 690.635742188 134.026367188 794.40625 148.4609375 c 1,78,79
 611.418945312 298.888671875 611.418945312 298.888671875 578.828125 522.662109375 c 0,80,81
 564.166992188 606.807617188 564.166992188 606.807617188 582.142578125 692.77734375 c 0,82,83
 582.09375 694.067382812 582.09375 694.067382812 582.09375 696.515625 c 128,-1,84
 582.09375 698.962890625 582.09375 698.962890625 582.45703125 702.521484375 c 0,85,86
 587.603515625 755.671875 587.603515625 755.671875 552.3828125 803.772460938 c 128,-1,87
 517.163085938 851.873046875 517.163085938 851.873046875 465.23046875 862.15625 c 0,88,89
 463.849609375 862.4296875 463.849609375 862.4296875 462.529296875 862.74609375 c 0,67,68
1028.34960938 83.369140625 m 2,90,-1
 1027.87890625 83.10546875 l 2,91,92
 1028.03417969 83.1962890625 1028.03417969 83.1962890625 1028.34960938 83.369140625 c 2,90,-1
EndSplineSet
EndChar

StartChar: r3
Encoding: 81 3376 81
Width: 1497
GlyphClass: 2
Flags: MW
LayerCount: 2
Back
Fore
SplineSet
1040.46777344 952.82421875 m 0,0,1
 1174.27246094 898.326171875 1174.27246094 898.326171875 1268.19335938 790.2109375 c 0,2,3
 1377.57128906 669.927734375 1377.57128906 669.927734375 1394.55664062 505.879882812 c 128,-1,4
 1411.54296875 341.831054688 1411.54296875 341.831054688 1322.32421875 202.39453125 c 0,5,6
 1239.88085938 69.2294921875 1239.88085938 69.2294921875 1085.80957031 19.7685546875 c 128,-1,7
 931.73828125 -29.69140625 931.73828125 -29.69140625 788.5078125 37.349609375 c 0,8,9
 719.026367188 67.2060546875 719.026367188 67.2060546875 664.619140625 121.295898438 c 128,-1,10
 610.212890625 175.385742188 610.212890625 175.385742188 580.149414062 241.649414062 c 0,11,12
 512.271484375 391.260742188 512.271484375 391.260742188 554.8359375 532.21484375 c 1,13,14
 597.049804688 702.8046875 597.049804688 702.8046875 752.459960938 793.83984375 c 0,15,16
 825.588867188 836.676757812 825.588867188 836.676757812 908.7734375 848.291015625 c 1,17,18
 757.8359375 887.087890625 757.8359375 887.087890625 601.681640625 853.048828125 c 0,19,20
 601.090820312 852.919921875 601.090820312 852.919921875 600.57421875 852.81640625 c 0,21,22
 472.609375 827.08203125 472.609375 827.08203125 372.177734375 737.46875 c 128,-1,23
 271.74609375 647.854492188 271.74609375 647.854492188 247.49609375 528.322265625 c 0,24,25
 247.42578125 527.970703125 247.42578125 527.970703125 247.31640625 527.4609375 c 0,26,27
 232.223632812 457.584960938 232.223632812 457.584960938 250.365234375 383.88671875 c 128,-1,28
 268.506835938 310.188476562 268.506835938 310.188476562 314.725585938 249.999023438 c 128,-1,29
 360.943359375 189.809570312 360.943359375 189.809570312 424.98828125 158.2578125 c 0,30,31
 425.620117188 157.9453125 425.620117188 157.9453125 441.770507812 149.590820312 c 128,-1,32
 457.921875 141.236328125 457.921875 141.236328125 480.123046875 135.239257812 c 0,33,34
 544.1328125 117.94921875 544.1328125 117.94921875 544.1328125 65.974609375 c 0,35,36
 544.1328125 45.2177734375 544.1328125 45.2177734375 534.760742188 29.08984375 c 0,37,38
 514.49609375 -5.7822265625 514.49609375 -5.7822265625 476.077148438 -5.7822265625 c 128,-1,39
 437.658203125 -5.7822265625 437.658203125 -5.7822265625 352.895507812 36.9599609375 c 128,-1,40
 268.133789062 79.7021484375 268.133789062 79.7021484375 202.736328125 163.479492188 c 128,-1,41
 137.337890625 247.2578125 137.337890625 247.2578125 112.823242188 350.557617188 c 128,-1,42
 88.30859375 453.857421875 88.30859375 453.857421875 110.661132812 560.747070312 c 128,-1,43
 133.013671875 667.63671875 133.013671875 667.63671875 202.53125 759.986328125 c 0,44,45
 340.368164062 943.090820312 340.368164062 943.090820312 579.307617188 993.211914062 c 128,-1,46
 818.247070312 1043.33203125 818.247070312 1043.33203125 1040.46777344 952.82421875 c 0,0,1
989.2734375 851.58203125 m 2,47,-1
 990.435546875 851.537109375 l 2,48,49
 989.463867188 851.5703125 989.463867188 851.5703125 989.2734375 851.58203125 c 2,47,-1
981.720703125 711.80859375 m 0,50,51
 882.236328125 718.015625 882.236328125 718.015625 797.35546875 653.03125 c 128,-1,52
 712.473632812 588.045898438 712.473632812 588.045898438 690.46484375 497.609375 c 0,53,54
 690.133789062 496.25 690.133789062 496.25 689.751953125 494.916015625 c 0,55,56
 657.015625 357.755859375 657.015625 357.755859375 743.395507812 245.770507812 c 0,57,58
 786.03125 190.497070312 786.03125 190.497070312 844.634765625 165.57421875 c 0,59,60
 845.880859375 165.045898438 845.880859375 165.045898438 847.115234375 164.462890625 c 0,61,62
 938.083007812 122.330078125 938.083007812 122.330078125 1044.38964844 156.407226562 c 128,-1,63
 1150.69628906 190.484375 1150.69628906 190.484375 1203.75585938 276.7890625 c 0,64,65
 1204.453125 277.921875 1204.453125 277.921875 1205.17578125 279.00390625 c 0,66,67
 1260.78613281 362.2734375 1260.78613281 362.2734375 1254.82421875 473.451171875 c 0,68,69
 1254.23144531 475.818359375 1254.23144531 475.818359375 1253.80078125 478.25 c 0,70,71
 1237.328125 571.76953125 1237.328125 571.76953125 1158.11035156 640.35546875 c 128,-1,72
 1078.89257812 708.94140625 1078.89257812 708.94140625 984.041015625 711.703125 c 0,73,74
 982.858398438 711.737304688 982.858398438 711.737304688 981.720703125 711.80859375 c 0,50,51
EndSplineSet
EndChar

StartChar: rh
Encoding: 82 3377 82
Width: 1396
GlyphClass: 2
Flags: MW
LayerCount: 2
Back
Fore
SplineSet
1078.31054688 883.744140625 m 4,0,1
 1163.19628906 821.8203125 1163.19628906 821.8203125 1219.38183594 732.649414062 c 4,2,3
 1333.76855469 551.110351562 1333.76855469 551.110351562 1278.08691406 349.751953125 c 132,-1,4
 1222.40527344 148.392578125 1222.40527344 148.392578125 1038.71289062 53.2568359375 c 4,5,6
 937.27734375 0.72265625 937.27734375 0.72265625 846.521484375 0.72265625 c 4,7,8
 817.5390625 0.72265625 817.5390625 0.72265625 797.026367188 21.234375 c 132,-1,9
 776.514648438 41.74609375 776.514648438 41.74609375 776.514648438 69.998046875 c 132,-1,10
 776.514648438 98.25 776.514648438 98.25 795.965820312 118.735351562 c 132,-1,11
 815.416015625 139.219726562 815.416015625 139.219726562 863.088867188 142.184570312 c 132,-1,12
 910.760742188 145.149414062 910.760742188 145.149414062 974.123046875 177.965820312 c 132,-1,13
 1037.48632812 210.783203125 1037.48632812 210.783203125 1080.32226562 263.607421875 c 4,14,15
 1172.19726562 376.907226562 1172.19726562 376.907226562 1151.5859375 521.310546875 c 4,16,17
 1141.32128906 593.224609375 1141.32128906 593.224609375 1099.6796875 659.231445312 c 132,-1,18
 1058.03808594 725.23828125 1058.03808594 725.23828125 995.80078125 770.640625 c 4,19,20
 871.362304688 861.418945312 871.362304688 861.418945312 696.805664062 862.256835938 c 132,-1,21
 522.249023438 863.095703125 522.249023438 863.095703125 393.955078125 765.94921875 c 4,22,23
 330.0390625 717.55078125 330.0390625 717.55078125 288.98828125 647.116210938 c 132,-1,24
 247.938476562 576.680664062 247.938476562 576.680664062 241.796875 506.3046875 c 4,25,26
 229.166015625 361.5625 229.166015625 361.5625 320.875 255.3203125 c 132,-1,27
 412.58203125 149.080078125 412.58203125 149.080078125 552.681640625 140.73046875 c 4,28,29
 580.3515625 139.475585938 580.3515625 139.475585938 599.934570312 118.984375 c 132,-1,30
 619.517578125 98.494140625 619.517578125 98.494140625 619.517578125 70.1533203125 c 132,-1,31
 619.517578125 41.8125 619.517578125 41.8125 599.004882812 21.2998046875 c 132,-1,32
 578.493164062 0.7880859375 578.493164062 0.7880859375 562.717773438 0.7880859375 c 4,33,34
 493.020507812 0.7880859375 493.020507812 0.7880859375 421.381835938 25.095703125 c 4,35,36
 298.741210938 66.708984375 298.741210938 66.708984375 225.758789062 151.255859375 c 4,37,38
 84.5556640625 314.834960938 84.5556640625 314.834960938 101.896484375 513.55078125 c 4,39,40
 111.27734375 621.055664062 111.27734375 621.055664062 166.658203125 716.21875 c 132,-1,41
 222.0390625 811.380859375 222.0390625 811.380859375 307.158203125 875.834960938 c 4,42,43
 475.522460938 1003.32324219 475.522460938 1003.32324219 696.411132812 1002.26269531 c 132,-1,44
 917.298828125 1001.20214844 917.298828125 1001.20214844 1078.31054688 883.744140625 c 4,0,1
EndSplineSet
EndChar

StartChar: l3
Encoding: 83 3378 83
Width: 1748
GlyphClass: 2
Flags: MW
LayerCount: 2
Back
Fore
SplineSet
241.588867188 369.66015625 m 1,0,-1
 241.590820312 342.015625 l 1,1,-1
 241.590820312 341.177734375 l 1,2,-1
 240.420898438 148.6875 l 1,3,-1
 1508.22949219 133.63671875 l 1,4,-1
 1502.87792969 973.857421875 l 2,5,6
 1502.86328125 974.598632812 1502.86328125 974.598632812 1502.86328125 989.129882812 c 128,-1,7
 1502.86328125 1003.66113281 1502.86328125 1003.66113281 1523.24121094 1024.48046875 c 128,-1,8
 1543.61914062 1045.29882812 1543.61914062 1045.29882812 1572.73535156 1045.29882812 c 128,-1,9
 1601.8515625 1045.29882812 1601.8515625 1045.29882812 1622.36425781 1024.78710938 c 128,-1,10
 1642.87597656 1004.27539062 1642.87597656 1004.27539062 1642.87597656 975.291992188 c 2,11,-1
 1648.68066406 63.2421875 l 2,12,13
 1648.68164062 33.8203125 1648.68164062 33.8203125 1628.16992188 13.3076171875 c 128,-1,14
 1607.65820312 -7.2041015625 1607.65820312 -7.2041015625 1578.67480469 -7.2041015625 c 0,15,16
 1578.22949219 -7.2041015625 1578.22949219 -7.2041015625 1577.85058594 -7.19921875 c 2,17,-1
 169.168945312 9.5234375 l 2,18,19
 129.28125 10.0009765625 129.28125 10.0009765625 109.259765625 44.697265625 c 0,20,21
 100 60.744140625 100 60.744140625 100 79.525390625 c 2,22,-1
 101.590820312 341.6875 l 2,23,24
 100.859375 369.2265625 100.859375 369.2265625 101.3515625 399.631835938 c 128,-1,25
 101.84375 430.038085938 101.84375 430.038085938 102.264648438 459.88671875 c 128,-1,26
 102.685546875 489.736328125 102.685546875 489.736328125 105.770507812 521.641601562 c 128,-1,27
 108.85546875 553.545898438 108.85546875 553.545898438 113.30859375 584.083984375 c 0,28,29
 147.555664062 818.928710938 147.555664062 818.928710938 329.407226562 932.286132812 c 0,30,31
 464.966796875 1016.79101562 464.966796875 1016.79101562 629.736328125 999.5078125 c 0,32,33
 709.924804688 991.095703125 709.924804688 991.095703125 781.264648438 957.060546875 c 0,34,35
 883.805664062 912.624023438 883.805664062 912.624023438 957.294921875 826.689453125 c 128,-1,36
 1030.78515625 740.755859375 1030.78515625 740.755859375 1061.29394531 632.038085938 c 128,-1,37
 1091.80273438 523.3203125 1091.80273438 523.3203125 1072.31738281 413.41796875 c 0,38,39
 1066.40625 380.099609375 1066.40625 380.099609375 1042.86230469 367.869140625 c 128,-1,40
 1019.31835938 355.638671875 1019.31835938 355.638671875 1011.01464844 355.638671875 c 128,-1,41
 1002.7109375 355.638671875 1002.7109375 355.638671875 1002.10449219 355.650390625 c 2,42,-1
 241.588867188 369.66015625 l 1,0,-1
722.047851562 830.23046875 m 0,43,44
 654.99609375 862.52734375 654.99609375 862.52734375 577.7734375 861.127929688 c 128,-1,45
 500.551757812 859.728515625 500.551757812 859.728515625 433.413085938 828.436523438 c 128,-1,46
 366.274414062 797.14453125 366.274414062 797.14453125 324.926757812 740.982421875 c 0,47,48
 324.259765625 740.075195312 324.259765625 740.075195312 323.530273438 739.1484375 c 0,49,50
 259.653320312 658.115234375 259.653320312 658.115234375 246.327148438 509.595703125 c 1,51,-1
 939.303710938 496.83203125 l 1,52,53
 938.3515625 601.403320312 938.3515625 601.403320312 878.650390625 694.944335938 c 128,-1,54
 818.950195312 788.484375 818.950195312 788.484375 724.766601562 828.990234375 c 0,55,56
 723.399414062 829.579101562 723.399414062 829.579101562 722.047851562 830.23046875 c 0,43,44
EndSplineSet
EndChar

StartChar: lh
Encoding: 84 3379 84
Width: 1340
GlyphClass: 2
Flags: MW
LayerCount: 2
Back
Fore
SplineSet
752.557617188 1006.69335938 m 0,0,1
 926.877929688 1004.4765625 926.877929688 1004.4765625 1020.52832031 956.96484375 c 0,2,3
 1208.82617188 861.435546875 1208.82617188 861.435546875 1230.95800781 695.361328125 c 0,4,5
 1240.53515625 623.497070312 1240.53515625 623.497070312 1215.62402344 562.038085938 c 128,-1,6
 1190.71289062 500.578125 1190.71289062 500.578125 1143.11230469 459.75390625 c 1,7,8
 1197.01269531 416.724609375 1197.01269531 416.724609375 1224.2890625 349.594726562 c 128,-1,9
 1251.56542969 282.46484375 1251.56542969 282.46484375 1232.59375 210.674804688 c 0,10,11
 1196.53027344 74.2119140625 1196.53027344 74.2119140625 1043.71972656 22.740234375 c 0,12,13
 975.190429688 -0.3427734375 975.190429688 -0.3427734375 921.145507812 -1.478515625 c 128,-1,14
 867.100585938 -2.61328125 867.100585938 -2.61328125 817.272460938 -2.35546875 c 2,15,-1
 397.430664062 -0.181640625 l 2,16,17
 308.712890625 0.2763671875 308.712890625 0.2763671875 281.607421875 -19.3447265625 c 0,18,19
 231.68359375 -55.482421875 231.68359375 -55.482421875 242.654296875 -108.279296875 c 128,-1,20
 253.625 -161.077148438 253.625 -161.077148438 326.610351562 -171.48828125 c 0,21,22
 344.86328125 -174.091796875 344.86328125 -174.091796875 383.749023438 -174.080078125 c 2,23,-1
 1166.62988281 -173.833984375 l 2,24,25
 1167.11914062 -173.827148438 1167.11914062 -173.827148438 1181.87207031 -173.827148438 c 128,-1,26
 1196.625 -173.827148438 1196.625 -173.827148438 1217.13671875 -194.338867188 c 128,-1,27
 1237.6484375 -214.850585938 1237.6484375 -214.850585938 1237.6484375 -243.833984375 c 128,-1,28
 1237.6484375 -272.81640625 1237.6484375 -272.81640625 1217.13671875 -293.329101562 c 128,-1,29
 1196.625 -313.840820312 1196.625 -313.840820312 1167.64160156 -313.840820312 c 2,30,-1
 383.791992188 -314.080078125 l 2,31,32
 280.094726562 -314.111328125 280.094726562 -314.111328125 228.124023438 -287.149414062 c 0,33,34
 125.799804688 -234.065429688 125.799804688 -234.065429688 104.715820312 -132.59375 c 0,35,36
 91.4111328125 -68.5625 91.4111328125 -68.5625 115.640625 -8.837890625 c 0,37,38
 163.134765625 108.23046875 163.134765625 108.23046875 299.516601562 133.478515625 c 0,39,40
 335.501953125 140.140625 335.501953125 140.140625 398.155273438 139.81640625 c 2,41,-1
 817.997070312 137.642578125 l 2,42,43
 944.321289062 136.98828125 944.321289062 136.98828125 991.106445312 152.747070312 c 0,44,45
 1080.43066406 182.833984375 1080.43066406 182.833984375 1097.07226562 245.806640625 c 128,-1,46
 1113.71386719 308.779296875 1113.71386719 308.779296875 1050.60253906 354.404296875 c 0,47,48
 1005.87011719 386.743164062 1005.87011719 386.743164062 907.948242188 392.3359375 c 0,49,50
 896.975585938 392.768554688 896.975585938 392.768554688 884.969726562 393.37890625 c 2,51,-1
 855.424804688 394.880859375 l 2,52,53
 817.622070312 397.2890625 817.622070312 397.2890625 798.645507812 431.219726562 c 0,54,55
 789.869140625 446.912109375 789.869140625 446.912109375 789.869140625 470.3203125 c 128,-1,56
 789.869140625 493.728515625 789.869140625 493.728515625 810.380859375 514.241210938 c 128,-1,57
 830.892578125 534.752929688 830.892578125 534.752929688 845.9765625 534.752929688 c 128,-1,58
 861.060546875 534.752929688 861.060546875 534.752929688 862.194335938 534.71484375 c 2,59,-1
 892.864257812 533.3046875 l 2,60,61
 953.916992188 530.498046875 953.916992188 530.498046875 986.244140625 535.737304688 c 128,-1,62
 1018.5703125 540.975585938 1018.5703125 540.975585938 1045.2578125 560.616210938 c 0,63,64
 1102.09960938 602.451171875 1102.09960938 602.451171875 1090.94335938 686.184570312 c 128,-1,65
 1079.78613281 769.91796875 1079.78613281 769.91796875 975.127929688 823.01171875 c 0,66,67
 892.557617188 864.90234375 892.557617188 864.90234375 750.778320312 866.705078125 c 0,68,69
 460.75 870.393554688 460.75 870.393554688 325.885742188 724.517578125 c 1,70,71
 396.125976562 744.390625 396.125976562 744.390625 474.225585938 722.862304688 c 128,-1,72
 552.325195312 701.333007812 552.325195312 701.333007812 605.75 629.598632812 c 128,-1,73
 659.174804688 557.86328125 659.174804688 557.86328125 656.870117188 468.252929688 c 128,-1,74
 654.565429688 378.642578125 654.565429688 378.642578125 596.986328125 309.684570312 c 128,-1,75
 539.40625 240.7265625 539.40625 240.7265625 462.270507812 225.016601562 c 0,76,77
 314.36328125 194.893554688 314.36328125 194.893554688 214.96875 289.1015625 c 128,-1,78
 115.575195312 383.310546875 115.575195312 383.310546875 108.904296875 511.372070312 c 128,-1,79
 102.233398438 639.43359375 102.233398438 639.43359375 165.252929688 742.3203125 c 0,80,81
 330.471679688 1012.05957031 330.471679688 1012.05957031 752.557617188 1006.69335938 c 0,0,1
493.368164062 546.107421875 m 128,-1,83
 468.760742188 579.1484375 468.760742188 579.1484375 430.6015625 589.666992188 c 128,-1,84
 392.44140625 600.186523438 392.44140625 600.186523438 356.749023438 587.623046875 c 128,-1,85
 321.056640625 575.060546875 321.056640625 575.060546875 298.918945312 544.375 c 128,-1,86
 276.78125 513.688476562 276.78125 513.688476562 276.116210938 475.85546875 c 128,-1,87
 275.452148438 438.024414062 275.452148438 438.024414062 295.771484375 407.846679688 c 128,-1,88
 316.090820312 377.668945312 316.090820312 377.668945312 354.329101562 365.682617188 c 128,-1,89
 392.567382812 353.6953125 392.567382812 353.6953125 427.979492188 360.907226562 c 128,-1,90
 463.391601562 368.120117188 463.391601562 368.120117188 489.627929688 399.541015625 c 128,-1,91
 515.865234375 430.962890625 515.865234375 430.962890625 516.920898438 472.013671875 c 128,-1,82
 517.9765625 513.064453125 517.9765625 513.064453125 493.368164062 546.107421875 c 128,-1,83
EndSplineSet
EndChar

StartChar: zh
Encoding: 85 3380 85
Width: 1331
GlyphClass: 2
Flags: MWO
LayerCount: 2
Back
Fore
SplineSet
623.732421875 912.0390625 m 4,0,1
 745.583007812 1016.55957031 745.583007812 1016.55957031 905.412109375 993.513671875 c 132,-1,2
 1065.2421875 970.466796875 1065.2421875 970.466796875 1160.61621094 853.66796875 c 132,-1,3
 1255.99023438 736.869140625 1255.99023438 736.869140625 1223.84960938 587.05859375 c 4,4,5
 1203.82128906 495.264648438 1203.82128906 495.264648438 1135.51171875 426.547851562 c 132,-1,6
 1067.203125 357.831054688 1067.203125 357.831054688 968.513671875 323.26171875 c 5,7,8
 1046.82421875 217.12890625 1046.82421875 217.12890625 1029.27050781 101.658203125 c 132,-1,9
 1011.71777344 -13.8115234375 1011.71777344 -13.8115234375 897.974609375 -83.8359375 c 4,10,11
 813.66796875 -135.737304688 813.66796875 -135.737304688 680.82421875 -140.889648438 c 132,-1,12
 547.98046875 -146.041992188 547.98046875 -146.041992188 413.037109375 -81.7685546875 c 132,-1,13
 278.094726562 -17.4951171875 278.094726562 -17.4951171875 190.38671875 99.56640625 c 4,14,15
 175.83203125 118.454101562 175.83203125 118.454101562 175.83203125 139.87890625 c 132,-1,16
 175.83203125 161.3046875 175.83203125 161.3046875 185.204101562 177.432617188 c 4,17,18
 205.46875 212.3046875 205.46875 212.3046875 243.462890625 212.3046875 c 132,-1,19
 281.458007812 212.3046875 281.458007812 212.3046875 302.427734375 183.513671875 c 4,20,21
 368.416015625 95.44140625 368.416015625 95.44140625 473.583984375 45.3486328125 c 132,-1,22
 578.752929688 -4.7431640625 578.752929688 -4.7431640625 675.150390625 -1.0048828125 c 132,-1,23
 771.547851562 2.734375 771.547851562 2.734375 812.08984375 27.693359375 c 4,24,25
 945.602539062 109.889648438 945.602539062 109.889648438 861.173828125 233 c 4,26,27
 842.182617188 260.69140625 842.182617188 260.69140625 808.505859375 291.267578125 c 5,28,29
 382.487304688 257.659179688 382.487304688 257.659179688 196.264648438 452.047851562 c 4,30,31
 133.016601562 518.068359375 133.016601562 518.068359375 107.5546875 623.208984375 c 132,-1,32
 82.0927734375 728.348632812 82.0927734375 728.348632812 142.443359375 837.447265625 c 132,-1,33
 202.79296875 946.546875 202.79296875 946.546875 321.041015625 986.08203125 c 4,34,35
 332.272460938 990.014648438 332.272460938 990.014648438 352.71484375 990.014648438 c 132,-1,36
 373.158203125 990.014648438 373.158203125 990.014648438 393.669921875 969.502929688 c 132,-1,37
 414.182617188 948.991210938 414.182617188 948.991210938 414.182617188 923.908203125 c 132,-1,38
 414.182617188 898.825195312 414.182617188 898.825195312 399.8984375 879.282226562 c 132,-1,39
 385.615234375 859.739257812 385.615234375 859.739257812 365.197265625 853.0703125 c 132,-1,40
 344.780273438 846.401367188 344.780273438 846.401367188 315.6484375 827.537109375 c 132,-1,41
 286.516601562 808.672851562 286.516601562 808.672851562 258.755859375 758.486328125 c 132,-1,42
 230.995117188 708.30078125 230.995117188 708.30078125 245.600585938 647.990234375 c 4,43,44
 293.89453125 448.56640625 293.89453125 448.56640625 636.490234375 430.708984375 c 5,45,46
 463.755859375 593.015625 463.755859375 593.015625 531.921875 780.42578125 c 4,47,48
 559.8671875 857.2578125 559.8671875 857.2578125 623.732421875 912.0390625 c 4,0,1
895.95703125 853.42578125 m 4,49,50
 788.499023438 868.920898438 788.499023438 868.920898438 712.6875 803.893554688 c 132,-1,51
 636.876953125 738.865234375 636.876953125 738.865234375 655.302734375 657.23828125 c 132,-1,52
 673.727539062 575.612304688 673.727539062 575.612304688 777.686523438 494.296875 c 4,53,54
 788.5859375 485.771484375 788.5859375 485.771484375 811.999023438 467.987304688 c 132,-1,55
 835.412109375 450.203125 835.412109375 450.203125 840.432617188 446.33203125 c 132,-1,56
 845.452148438 442.461914062 845.452148438 442.461914062 847.911132812 440.478515625 c 132,-1,57
 850.370117188 438.495117188 850.370117188 438.495117188 851.5 437.615234375 c 4,58,59
 968.793945312 457.416992188 968.793945312 457.416992188 1039.32617188 528.37109375 c 132,-1,60
 1109.85742188 599.32421875 1109.85742188 599.32421875 1086.16113281 690.256835938 c 132,-1,61
 1062.46484375 781.190429688 1062.46484375 781.190429688 980.564453125 825.391601562 c 4,62,63
 940.525390625 847 940.525390625 847 895.95703125 853.42578125 c 4,49,50
EndSplineSet
EndChar

